# MagicaVoxel @ Ephtracy

# material
mtllib Rock1.mtl
usemtl palette

# normals
vn -1 0 0
vn 1 0 0
vn 0 0 1
vn 0 0 -1
vn 0 -1 0
vn 0 1 0

# texcoords
vt 0.974609 0.5
vt 0.978516 0.5
vt 0.982422 0.5
vt 0.986328 0.5

# verts
v -6 0 3.5
v -6 0 0.5
v -6 0 -2.5
v -6 0 -3.5
v -6 2 3.5
v -6 2 0.5
v -6 2 -0.5
v -6 3 -0.5
v -6 3 -1.5
v -6 6 -2.5
v -6 6 -3.5
v -6 7 -0.5
v -6 7 -1.5
v -6 7 -3.5
v -5 0 4.5
v -5 0 3.5
v -5 2 4.5
v -5 2 3.5
v -5 2 0.5
v -5 2 -0.5
v -5 3 2.5
v -5 3 -0.5
v -5 6 4.5
v -5 6 2.5
v -5 6 -0.5
v -2 0 -3.5
v -2 0 -4.5
v -2 6 -3.5
v -2 6 -4.5
v -1 0 4.5
v -1 0 3.5
v -1 2 4.5
v -1 2 3.5
v -1 2 2.5
v -1 4 4.5
v -1 4 2.5
v 1 4 3.5
v 1 4 2.5
v 1 5 2.5
v 1 5 -0.5
v 1 6 3.5
v 1 6 2.5
v 1 6 -0.5
v 3 5 -0.5
v 3 5 -1.5
v 3 6 1.5
v 3 6 -0.5
v 3 6 -1.5
v 3 6 -4.5
v 3 7 1.5
v 3 7 0.5
v 3 7 -1.5
v 3 7 -4.5
v 3 8 0.5
v 3 8 -4.5
v -2 0 4.5
v -2 0 3.5
v -2 2 4.5
v -2 2 3.5
v -2 2 2.5
v -2 5 2.5
v -2 5 -0.5
v -2 6 4.5
v -2 6 2.5
v -2 6 -0.5
v 0 5 -0.5
v 0 5 -1.5
v 0 6 -1.5
v 0 6 -3.5
v 0 7 -0.5
v 0 7 -3.5
v 2 0 4.5
v 2 0 3.5
v 2 2 4.5
v 2 2 3.5
v 2 4 4.5
v 2 4 3.5
v 5 0 3.5
v 5 0 1.5
v 5 0 -0.5
v 5 0 -1.5
v 5 0 -4.5
v 5 5 3.5
v 5 5 1.5
v 5 5 -0.5
v 5 6 3.5
v 5 6 1.5
v 5 7 0.5
v 5 7 -0.5
v 5 7 -1.5
v 5 7 -4.5
v 5 8 0.5
v 5 8 -4.5
v 6 0 1.5
v 6 0 -0.5
v 6 5 1.5
v 6 5 -0.5
v 6 7 1.5
v 6 7 -0.5
v -5 0 4.5
v -5 2 4.5
v -5 6 4.5
v -4 0 4.5
v -4 2 4.5
v -3 2 4.5
v -3 6 4.5
v -2 0 4.5
v -2 2 4.5
v -2 6 4.5
v -1 0 4.5
v -1 2 4.5
v -1 4 4.5
v 2 0 4.5
v 2 2 4.5
v 2 4 4.5
v -6 0 3.5
v -6 2 3.5
v -5 0 3.5
v -5 2 3.5
v -2 0 3.5
v -2 2 3.5
v -1 0 3.5
v -1 2 3.5
v 1 4 3.5
v 1 6 3.5
v 2 0 3.5
v 2 2 3.5
v 2 4 3.5
v 2 6 3.5
v 3 0 3.5
v 3 5 3.5
v 5 0 3.5
v 5 5 3.5
v 5 6 3.5
v -2 2 2.5
v -2 5 2.5
v -1 2 2.5
v -1 4 2.5
v 1 4 2.5
v 1 5 2.5
v 3 6 1.5
v 3 7 1.5
v 5 0 1.5
v 5 5 1.5
v 5 6 1.5
v 6 0 1.5
v 6 5 1.5
v 6 7 1.5
v 3 7 0.5
v 3 8 0.5
v 5 7 0.5
v 5 8 0.5
v -6 2 -0.5
v -6 3 -0.5
v -6 7 -0.5
v -5 2 -0.5
v -5 3 -0.5
v -5 6 -0.5
v -4 6 -0.5
v -4 7 -0.5
v -2 5 -0.5
v -2 6 -0.5
v 0 5 -0.5
v 0 7 -0.5
v 0 5 -1.5
v 0 6 -1.5
v 1 5 -1.5
v 1 6 -1.5
v 3 5 -1.5
v 3 6 -1.5
v 1 5 -0.5
v 1 6 -0.5
v 3 5 -0.5
v 3 6 -0.5
v 5 0 -0.5
v 5 5 -0.5
v 5 7 -0.5
v 6 0 -0.5
v 6 5 -0.5
v 6 7 -0.5
v -6 0 -3.5
v -6 6 -3.5
v -6 7 -3.5
v -2 0 -3.5
v -2 6 -3.5
v 0 6 -3.5
v 0 7 -3.5
v -2 0 -4.5
v -2 6 -4.5
v 0 0 -4.5
v 0 6 -4.5
v 1 0 -4.5
v 1 6 -4.5
v 3 6 -4.5
v 3 7 -4.5
v 3 8 -4.5
v 5 0 -4.5
v 5 7 -4.5
v 5 8 -4.5
v -5 0 4.5
v -4 0 4.5
v -2 0 4.5
v -1 0 4.5
v 2 0 4.5
v -6 0 3.5
v -5 0 3.5
v -2 0 3.5
v -1 0 3.5
v 2 0 3.5
v 3 0 3.5
v 5 0 3.5
v 5 0 1.5
v 6 0 1.5
v -6 0 0.5
v -4 0 0.5
v 3 0 -0.5
v 5 0 -0.5
v 6 0 -0.5
v 1 0 -1.5
v 5 0 -1.5
v -6 0 -2.5
v -2 0 -2.5
v -6 0 -3.5
v -2 0 -3.5
v 0 0 -3.5
v -2 0 -4.5
v 0 0 -4.5
v 1 0 -4.5
v 5 0 -4.5
v -6 2 3.5
v -5 2 3.5
v -2 2 3.5
v -1 2 3.5
v -2 2 2.5
v -1 2 2.5
v -6 2 0.5
v -5 2 0.5
v -6 2 -0.5
v -5 2 -0.5
v -1 4 4.5
v 2 4 4.5
v 1 4 3.5
v 2 4 3.5
v -1 4 2.5
v 1 4 2.5
v -2 5 2.5
v 1 5 2.5
v -2 5 -0.5
v 0 5 -0.5
v 1 5 -0.5
v 3 5 -0.5
v 0 5 -1.5
v 1 5 -1.5
v 3 5 -1.5
v -5 6 4.5
v -3 6 4.5
v -2 6 4.5
v 1 6 3.5
v 2 6 3.5
v 5 6 3.5
v -5 6 2.5
v -4 6 2.5
v -3 6 2.5
v -2 6 2.5
v 1 6 2.5
v 2 6 2.5
v 3 6 1.5
v 5 6 1.5
v -5 6 -0.5
v -4 6 -0.5
v -2 6 -0.5
v 1 6 -0.5
v 3 6 -0.5
v 0 6 -1.5
v 1 6 -1.5
v 3 6 -1.5
v -2 6 -3.5
v 0 6 -3.5
v -2 6 -4.5
v 0 6 -4.5
v 1 6 -4.5
v 3 6 -4.5
v 3 7 1.5
v 6 7 1.5
v 3 7 0.5
v 5 7 0.5
v -6 7 -0.5
v -4 7 -0.5
v 0 7 -0.5
v 5 7 -0.5
v 6 7 -0.5
v -6 7 -1.5
v -4 7 -1.5
v -6 7 -3.5
v 0 7 -3.5
v 3 8 0.5
v 5 8 0.5
v 3 8 -4.5
v 5 8 -4.5

# faces
f 5/1/1 2/1/1 1/1/1
f 6/4/1 3/4/1 2/4/1
f 6/1/1 2/1/1 5/1/1
f 7/4/1 3/4/1 6/4/1
f 8/4/1 3/4/1 7/4/1
f 9/4/1 3/4/1 8/4/1
f 10/3/1 4/3/1 3/3/1
f 10/4/1 3/4/1 9/4/1
f 11/3/1 4/3/1 10/3/1
f 12/1/1 9/1/1 8/1/1
f 13/4/1 10/4/1 9/4/1
f 13/1/1 9/1/1 12/1/1
f 13/4/1 11/4/1 10/4/1
f 14/4/1 11/4/1 13/4/1
f 17/1/1 16/1/1 15/1/1
f 18/1/1 16/1/1 17/1/1
f 21/4/1 18/4/1 17/4/1
f 21/4/1 20/4/1 19/4/1
f 21/4/1 19/4/1 18/4/1
f 22/4/1 20/4/1 21/4/1
f 23/4/1 21/4/1 17/4/1
f 24/1/1 22/1/1 21/1/1
f 24/4/1 21/4/1 23/4/1
f 25/1/1 22/1/1 24/1/1
f 28/3/1 27/3/1 26/3/1
f 29/3/1 27/3/1 28/3/1
f 32/4/1 31/4/1 30/4/1
f 33/4/1 31/4/1 32/4/1
f 35/1/1 33/1/1 32/1/1
f 35/1/1 34/1/1 33/1/1
f 36/1/1 34/1/1 35/1/1
f 39/1/1 38/1/1 37/1/1
f 41/1/1 39/1/1 37/1/1
f 42/4/1 40/4/1 39/4/1
f 42/1/1 39/1/1 41/1/1
f 43/4/1 40/4/1 42/4/1
f 47/4/1 45/4/1 44/4/1
f 48/4/1 45/4/1 47/4/1
f 50/4/1 47/4/1 46/4/1
f 50/4/1 48/4/1 47/4/1
f 51/4/1 48/4/1 50/4/1
f 52/2/1 49/2/1 48/2/1
f 52/4/1 48/4/1 51/4/1
f 53/2/1 49/2/1 52/2/1
f 54/4/1 52/4/1 51/4/1
f 54/4/1 53/4/1 52/4/1
f 55/4/1 53/4/1 54/4/1
f 56/4/2 57/4/2 58/4/2
f 58/4/2 57/4/2 59/4/2
f 58/1/2 59/1/2 61/1/2
f 59/1/2 60/1/2 61/1/2
f 58/1/2 61/1/2 63/1/2
f 61/4/2 62/4/2 64/4/2
f 63/1/2 61/1/2 64/1/2
f 64/4/2 62/4/2 65/4/2
f 66/4/2 67/4/2 68/4/2
f 66/4/2 68/4/2 70/4/2
f 68/4/2 69/4/2 70/4/2
f 70/4/2 69/4/2 71/4/2
f 72/4/2 73/4/2 74/4/2
f 74/4/2 73/4/2 75/4/2
f 74/1/2 75/1/2 76/1/2
f 76/1/2 75/1/2 77/1/2
f 78/1/2 79/1/2 83/1/2
f 83/1/2 79/1/2 84/1/2
f 80/4/2 81/4/2 85/4/2
f 83/4/2 84/4/2 86/4/2
f 86/4/2 84/4/2 87/4/2
f 85/4/2 81/4/2 89/4/2
f 81/2/2 82/2/2 90/2/2
f 89/4/2 81/4/2 90/4/2
f 90/2/2 82/2/2 91/2/2
f 88/4/2 89/4/2 92/4/2
f 89/4/2 90/4/2 92/4/2
f 90/4/2 91/4/2 92/4/2
f 92/4/2 91/4/2 93/4/2
f 94/1/2 95/1/2 96/1/2
f 96/1/2 95/1/2 97/1/2
f 96/4/2 97/4/2 98/4/2
f 98/4/2 97/4/2 99/4/2
f 103/1/3 101/1/3 100/1/3
f 104/4/3 102/4/3 101/4/3
f 104/1/3 101/1/3 103/1/3
f 105/4/3 104/4/3 103/4/3
f 105/4/3 102/4/3 104/4/3
f 106/4/3 102/4/3 105/4/3
f 107/4/3 105/4/3 103/4/3
f 108/1/3 106/1/3 105/1/3
f 108/4/3 105/4/3 107/4/3
f 109/1/3 106/1/3 108/1/3
f 113/4/3 111/4/3 110/4/3
f 114/1/3 112/1/3 111/1/3
f 114/4/3 111/4/3 113/4/3
f 115/1/3 112/1/3 114/1/3
f 118/1/3 117/1/3 116/1/3
f 119/1/3 117/1/3 118/1/3
f 122/4/3 121/4/3 120/4/3
f 123/4/3 121/4/3 122/4/3
f 128/1/3 125/1/3 124/1/3
f 129/1/3 125/1/3 128/1/3
f 130/4/3 127/4/3 126/4/3
f 130/4/3 128/4/3 127/4/3
f 130/4/3 129/4/3 128/4/3
f 131/4/3 129/4/3 130/4/3
f 132/1/3 131/1/3 130/1/3
f 133/4/3 129/4/3 131/4/3
f 133/1/3 131/1/3 132/1/3
f 134/4/3 129/4/3 133/4/3
f 137/4/3 136/4/3 135/4/3
f 138/4/3 136/4/3 137/4/3
f 139/4/3 136/4/3 138/4/3
f 140/4/3 136/4/3 139/4/3
f 145/4/3 142/4/3 141/4/3
f 146/1/3 144/1/3 143/1/3
f 147/4/3 145/4/3 144/4/3
f 147/1/3 144/1/3 146/1/3
f 148/4/3 142/4/3 145/4/3
f 148/4/3 145/4/3 147/4/3
f 151/4/3 150/4/3 149/4/3
f 152/4/3 150/4/3 151/4/3
f 156/4/3 154/4/3 153/4/3
f 157/1/3 155/1/3 154/1/3
f 157/4/3 154/4/3 156/4/3
f 158/1/3 155/1/3 157/1/3
f 159/1/3 155/1/3 158/1/3
f 160/1/3 155/1/3 159/1/3
f 162/4/3 160/4/3 159/4/3
f 163/4/3 162/4/3 161/4/3
f 164/4/3 160/4/3 162/4/3
f 164/4/3 162/4/3 163/4/3
f 167/4/3 166/4/3 165/4/3
f 168/4/3 166/4/3 167/4/3
f 169/2/3 168/2/3 167/2/3
f 170/2/3 168/2/3 169/2/3
f 171/4/4 172/4/4 173/4/4
f 173/4/4 172/4/4 174/4/4
f 175/1/4 176/1/4 178/1/4
f 176/4/4 177/4/4 179/4/4
f 178/1/4 176/1/4 179/1/4
f 179/4/4 177/4/4 180/4/4
f 181/3/4 182/3/4 184/3/4
f 182/4/4 183/4/4 185/4/4
f 184/3/4 182/3/4 185/3/4
f 185/4/4 183/4/4 186/4/4
f 186/4/4 183/4/4 187/4/4
f 188/3/4 189/3/4 190/3/4
f 190/3/4 189/3/4 191/3/4
f 190/4/4 191/4/4 192/4/4
f 192/4/4 191/4/4 193/4/4
f 192/2/4 193/2/4 194/2/4
f 192/2/4 194/2/4 197/2/4
f 194/2/4 195/2/4 197/2/4
f 195/4/4 196/4/4 198/4/4
f 197/2/4 195/2/4 198/2/4
f 198/4/4 196/4/4 199/4/4
f 206/1/5 201/1/5 200/1/5
f 207/4/5 202/4/5 201/4/5
f 208/4/5 204/4/5 203/4/5
f 209/4/5 204/4/5 208/4/5
f 212/1/5 211/1/5 210/1/5
f 214/1/5 206/1/5 205/1/5
f 215/4/5 207/4/5 201/4/5
f 215/1/5 206/1/5 214/1/5
f 215/1/5 201/1/5 206/1/5
f 215/4/5 208/4/5 207/4/5
f 215/4/5 210/4/5 209/4/5
f 215/4/5 209/4/5 208/4/5
f 216/1/5 213/1/5 212/1/5
f 216/4/5 210/4/5 215/4/5
f 216/4/5 215/4/5 214/4/5
f 216/1/5 212/1/5 210/1/5
f 217/1/5 213/1/5 216/1/5
f 218/1/5 213/1/5 217/1/5
f 219/4/5 216/4/5 214/4/5
f 219/4/5 217/4/5 216/4/5
f 220/4/5 217/4/5 219/4/5
f 221/4/5 219/4/5 214/4/5
f 222/4/5 219/4/5 221/4/5
f 223/3/5 222/3/5 221/3/5
f 224/4/5 219/4/5 222/4/5
f 224/3/5 222/3/5 223/3/5
f 225/4/5 219/4/5 224/4/5
f 226/3/5 225/3/5 224/3/5
f 227/4/5 219/4/5 225/4/5
f 227/3/5 225/3/5 226/3/5
f 228/2/5 220/2/5 219/2/5
f 228/4/5 219/4/5 227/4/5
f 229/2/5 220/2/5 228/2/5
f 232/4/6 233/4/6 234/4/6
f 234/4/6 233/4/6 235/4/6
f 230/1/6 231/1/6 236/1/6
f 236/1/6 231/1/6 237/1/6
f 236/4/6 237/4/6 238/4/6
f 238/4/6 237/4/6 239/4/6
f 240/1/6 241/1/6 242/1/6
f 242/1/6 241/1/6 243/1/6
f 240/1/6 242/1/6 244/1/6
f 244/1/6 242/1/6 245/1/6
f 246/4/6 247/4/6 248/4/6
f 248/4/6 247/4/6 249/4/6
f 249/4/6 247/4/6 250/4/6
f 250/4/6 251/4/6 252/4/6
f 249/4/6 250/4/6 252/4/6
f 252/4/6 251/4/6 253/4/6
f 253/4/6 251/4/6 254/4/6
f 255/4/6 256/4/6 261/4/6
f 261/4/6 256/4/6 262/4/6
f 256/1/6 257/1/6 263/1/6
f 262/4/6 256/4/6 263/4/6
f 263/1/6 257/1/6 264/1/6
f 258/1/6 259/1/6 265/1/6
f 259/4/6 260/4/6 266/4/6
f 265/1/6 259/1/6 266/1/6
f 265/4/6 266/4/6 267/4/6
f 266/4/6 260/4/6 267/4/6
f 267/4/6 260/4/6 268/4/6
f 261/1/6 262/1/6 269/1/6
f 263/4/6 264/4/6 270/4/6
f 269/1/6 262/1/6 270/1/6
f 262/4/6 263/4/6 270/4/6
f 270/4/6 264/4/6 271/4/6
f 265/4/6 267/4/6 272/4/6
f 272/4/6 267/4/6 273/4/6
f 274/4/6 275/4/6 278/4/6
f 277/3/6 278/3/6 279/3/6
f 278/4/6 275/4/6 280/4/6
f 279/3/6 278/3/6 280/3/6
f 275/2/6 276/2/6 281/2/6
f 280/4/6 275/4/6 281/4/6
f 281/2/6 276/2/6 282/2/6
f 283/4/6 284/4/6 285/4/6
f 285/4/6 284/4/6 286/4/6
f 286/4/6 284/4/6 290/4/6
f 290/4/6 284/4/6 291/4/6
f 287/1/6 288/1/6 292/1/6
f 288/4/6 289/4/6 293/4/6
f 292/1/6 288/1/6 293/1/6
f 292/4/6 293/4/6 294/4/6
f 293/4/6 289/4/6 295/4/6
f 294/4/6 293/4/6 295/4/6
f 296/4/6 297/4/6 298/4/6
f 298/4/6 297/4/6 299/4/6
