# MagicaVoxel @ Ephtracy

# material
mtllib Fish1.mtl
usemtl palette

# normals
vn -1 0 0
vn 1 0 0
vn 0 0 1
vn 0 0 -1
vn 0 -1 0
vn 0 1 0

# texcoords
vt 0.0644531 0.5
vt 0.0917969 0.5
vt 0.404297 0.5
vt 0.994141 0.5

# verts
v -4.5 3 0.5
v -4.5 3 -0.5
v -4.5 4 0.5
v -4.5 4 -0.5
v -3.5 2 0.5
v -3.5 2 -0.5
v -3.5 3 0.5
v -3.5 3 -0.5
v -3.5 4 0.5
v -3.5 4 -0.5
v -3.5 5 0.5
v -3.5 5 -0.5
v -1.5 0 1.5
v -1.5 0 0.5
v -1.5 0 -0.5
v -1.5 0 -1.5
v -1.5 1 0.5
v -1.5 1 -0.5
v -1.5 2 0.5
v -1.5 2 -0.5
v -1.5 3 1.5
v -1.5 3 0.5
v -1.5 3 -0.5
v -1.5 3 -1.5
v -1.5 5 0.5
v -1.5 5 -0.5
v -1.5 6 0.5
v -1.5 6 -0.5
v 3.5 2 0.5
v 3.5 2 -0.5
v 3.5 3 0.5
v 3.5 3 -0.5
v 3.5 4 0.5
v 3.5 4 -0.5
v 3.5 5 0.5
v 3.5 5 -0.5
v -0.5 0 1.5
v -0.5 0 0.5
v -0.5 0 -0.5
v -0.5 0 -1.5
v -0.5 1 0.5
v -0.5 1 -0.5
v -0.5 2 0.5
v -0.5 2 -0.5
v -0.5 3 1.5
v -0.5 3 0.5
v -0.5 3 -0.5
v -0.5 3 -1.5
v 0.5 2 0.5
v 0.5 2 -0.5
v 0.5 3 0.5
v 0.5 3 -0.5
v 0.5 4 0.5
v 0.5 4 -0.5
v 0.5 5 0.5
v 0.5 5 -0.5
v 1.5 1 0.5
v 1.5 1 -0.5
v 1.5 2 0.5
v 1.5 2 -0.5
v 1.5 5 0.5
v 1.5 5 -0.5
v 1.5 6 0.5
v 1.5 6 -0.5
v 3.5 3 0.5
v 3.5 3 -0.5
v 3.5 4 0.5
v 3.5 4 -0.5
v 4.5 2 0.5
v 4.5 2 -0.5
v 4.5 3 0.5
v 4.5 3 -0.5
v 4.5 4 0.5
v 4.5 4 -0.5
v 4.5 5 0.5
v 4.5 5 -0.5
v -1.5 0 1.5
v -1.5 3 1.5
v -0.5 0 1.5
v -0.5 3 1.5
v -4.5 3 0.5
v -4.5 4 0.5
v -3.5 2 0.5
v -3.5 3 0.5
v -3.5 4 0.5
v -3.5 5 0.5
v -2.5 3 0.5
v -2.5 4 0.5
v -1.5 2 0.5
v -1.5 3 0.5
v -1.5 4 0.5
v -1.5 5 0.5
v -1.5 6 0.5
v -0.5 1 0.5
v -0.5 2 0.5
v -0.5 3 0.5
v 0.5 2 0.5
v 0.5 3 0.5
v 0.5 4 0.5
v 0.5 5 0.5
v 1.5 1 0.5
v 1.5 2 0.5
v 1.5 5 0.5
v 1.5 6 0.5
v 2.5 3 0.5
v 2.5 4 0.5
v 3.5 2 0.5
v 3.5 3 0.5
v 3.5 4 0.5
v 3.5 5 0.5
v 4.5 2 0.5
v 4.5 3 0.5
v 4.5 4 0.5
v 4.5 5 0.5
v -1.5 0 -0.5
v -1.5 1 -0.5
v -0.5 0 -0.5
v -0.5 1 -0.5
v -1.5 0 0.5
v -1.5 1 0.5
v -0.5 0 0.5
v -0.5 1 0.5
v -4.5 3 -0.5
v -4.5 4 -0.5
v -3.5 2 -0.5
v -3.5 3 -0.5
v -3.5 4 -0.5
v -3.5 5 -0.5
v -2.5 3 -0.5
v -2.5 4 -0.5
v -1.5 2 -0.5
v -1.5 3 -0.5
v -1.5 4 -0.5
v -1.5 5 -0.5
v -1.5 6 -0.5
v -0.5 1 -0.5
v -0.5 2 -0.5
v -0.5 3 -0.5
v 0.5 2 -0.5
v 0.5 3 -0.5
v 0.5 4 -0.5
v 0.5 5 -0.5
v 1.5 1 -0.5
v 1.5 2 -0.5
v 1.5 5 -0.5
v 1.5 6 -0.5
v 2.5 3 -0.5
v 2.5 4 -0.5
v 3.5 2 -0.5
v 3.5 3 -0.5
v 3.5 4 -0.5
v 3.5 5 -0.5
v 4.5 2 -0.5
v 4.5 3 -0.5
v 4.5 4 -0.5
v 4.5 5 -0.5
v -1.5 0 -1.5
v -1.5 3 -1.5
v -0.5 0 -1.5
v -0.5 3 -1.5
v -1.5 0 1.5
v -0.5 0 1.5
v -1.5 0 0.5
v -0.5 0 0.5
v -1.5 0 -0.5
v -0.5 0 -0.5
v -1.5 0 -1.5
v -0.5 0 -1.5
v -1.5 1 0.5
v -0.5 1 0.5
v 1.5 1 0.5
v -1.5 1 -0.5
v -0.5 1 -0.5
v 1.5 1 -0.5
v -3.5 2 0.5
v -1.5 2 0.5
v 3.5 2 0.5
v 4.5 2 0.5
v -3.5 2 -0.5
v -1.5 2 -0.5
v 3.5 2 -0.5
v 4.5 2 -0.5
v -4.5 3 0.5
v -3.5 3 0.5
v 0.5 3 0.5
v 2.5 3 0.5
v 3.5 3 0.5
v -4.5 3 -0.5
v -3.5 3 -0.5
v 0.5 3 -0.5
v 2.5 3 -0.5
v 3.5 3 -0.5
v 3.5 4 0.5
v 4.5 4 0.5
v 3.5 4 -0.5
v 4.5 4 -0.5
v 0.5 5 0.5
v 1.5 5 0.5
v 0.5 5 -0.5
v 1.5 5 -0.5
v 0.5 2 0.5
v 1.5 2 0.5
v 0.5 2 -0.5
v 1.5 2 -0.5
v -1.5 3 1.5
v -0.5 3 1.5
v -1.5 3 0.5
v -0.5 3 0.5
v 3.5 3 0.5
v 4.5 3 0.5
v -1.5 3 -0.5
v -0.5 3 -0.5
v 3.5 3 -0.5
v 4.5 3 -0.5
v -1.5 3 -1.5
v -0.5 3 -1.5
v -4.5 4 0.5
v -3.5 4 0.5
v 0.5 4 0.5
v 2.5 4 0.5
v 3.5 4 0.5
v -4.5 4 -0.5
v -3.5 4 -0.5
v 0.5 4 -0.5
v 2.5 4 -0.5
v 3.5 4 -0.5
v -3.5 5 0.5
v -1.5 5 0.5
v 3.5 5 0.5
v 4.5 5 0.5
v -3.5 5 -0.5
v -1.5 5 -0.5
v 3.5 5 -0.5
v 4.5 5 -0.5
v -1.5 6 0.5
v 1.5 6 0.5
v -1.5 6 -0.5
v 1.5 6 -0.5

# faces
f 3/2/1 2/2/1 1/2/1
f 4/2/1 2/2/1 3/2/1
f 7/2/1 6/2/1 5/2/1
f 8/2/1 6/2/1 7/2/1
f 11/2/1 10/2/1 9/2/1
f 12/2/1 10/2/1 11/2/1
f 17/3/1 14/3/1 13/3/1
f 18/3/1 16/3/1 15/3/1
f 19/3/1 17/3/1 13/3/1
f 19/3/1 18/3/1 17/3/1
f 20/3/1 16/3/1 18/3/1
f 20/3/1 18/3/1 19/3/1
f 21/3/1 19/3/1 13/3/1
f 22/3/1 19/3/1 21/3/1
f 23/3/1 16/3/1 20/3/1
f 24/3/1 16/3/1 23/3/1
f 27/3/1 26/3/1 25/3/1
f 28/3/1 26/3/1 27/3/1
f 31/3/1 30/3/1 29/3/1
f 32/3/1 30/3/1 31/3/1
f 35/3/1 34/3/1 33/3/1
f 36/3/1 34/3/1 35/3/1
f 37/3/2 38/3/2 41/3/2
f 39/3/2 40/3/2 42/3/2
f 37/3/2 41/3/2 43/3/2
f 42/3/2 40/3/2 44/3/2
f 37/3/2 43/3/2 45/3/2
f 45/3/2 43/3/2 46/3/2
f 44/3/2 40/3/2 47/3/2
f 47/3/2 40/3/2 48/3/2
f 49/2/2 50/2/2 51/2/2
f 51/2/2 50/2/2 52/2/2
f 53/2/2 54/2/2 55/2/2
f 55/2/2 54/2/2 56/2/2
f 57/3/2 58/3/2 59/3/2
f 59/3/2 58/3/2 60/3/2
f 61/3/2 62/3/2 63/3/2
f 63/3/2 62/3/2 64/3/2
f 65/3/2 66/3/2 67/3/2
f 67/3/2 66/3/2 68/3/2
f 69/3/2 70/3/2 71/3/2
f 71/3/2 70/3/2 72/3/2
f 73/3/2 74/3/2 75/3/2
f 75/3/2 74/3/2 76/3/2
f 79/3/3 78/3/3 77/3/3
f 80/3/3 78/3/3 79/3/3
f 84/2/3 82/2/3 81/2/3
f 85/2/3 82/2/3 84/2/3
f 87/2/3 84/2/3 83/2/3
f 87/2/3 86/2/3 85/2/3
f 87/2/3 85/2/3 84/2/3
f 88/2/3 86/2/3 87/2/3
f 89/2/3 87/2/3 83/2/3
f 90/4/3 88/4/3 87/4/3
f 90/2/3 87/2/3 89/2/3
f 91/2/3 86/2/3 88/2/3
f 91/4/3 88/4/3 90/4/3
f 92/2/3 86/2/3 91/2/3
f 96/2/3 91/2/3 90/2/3
f 96/2/3 92/2/3 91/2/3
f 97/3/3 95/3/3 94/3/3
f 97/2/3 96/2/3 95/2/3
f 98/2/3 92/2/3 96/2/3
f 98/2/3 96/2/3 97/2/3
f 99/2/3 92/2/3 98/2/3
f 100/3/3 93/3/3 92/3/3
f 100/2/3 92/2/3 99/2/3
f 101/3/3 97/3/3 94/3/3
f 102/3/3 97/3/3 101/3/3
f 103/3/3 93/3/3 100/3/3
f 104/3/3 93/3/3 103/3/3
f 105/1/3 99/1/3 98/1/3
f 106/1/3 99/1/3 105/1/3
f 108/3/3 106/3/3 105/3/3
f 109/3/3 106/3/3 108/3/3
f 111/3/3 108/3/3 107/3/3
f 112/3/3 108/3/3 111/3/3
f 113/3/3 110/3/3 109/3/3
f 114/3/3 110/3/3 113/3/3
f 117/3/3 116/3/3 115/3/3
f 118/3/3 116/3/3 117/3/3
f 119/3/4 120/3/4 121/3/4
f 121/3/4 120/3/4 122/3/4
f 123/2/4 124/2/4 126/2/4
f 126/2/4 124/2/4 127/2/4
f 125/2/4 126/2/4 129/2/4
f 127/2/4 128/2/4 129/2/4
f 126/2/4 127/2/4 129/2/4
f 129/2/4 128/2/4 130/2/4
f 125/2/4 129/2/4 131/2/4
f 129/4/4 130/4/4 132/4/4
f 131/2/4 129/2/4 132/2/4
f 130/2/4 128/2/4 133/2/4
f 132/4/4 130/4/4 133/4/4
f 133/2/4 128/2/4 134/2/4
f 132/2/4 133/2/4 138/2/4
f 133/2/4 134/2/4 138/2/4
f 136/3/4 137/3/4 139/3/4
f 137/2/4 138/2/4 139/2/4
f 138/2/4 134/2/4 140/2/4
f 139/2/4 138/2/4 140/2/4
f 140/2/4 134/2/4 141/2/4
f 134/3/4 135/3/4 142/3/4
f 141/2/4 134/2/4 142/2/4
f 136/3/4 139/3/4 143/3/4
f 143/3/4 139/3/4 144/3/4
f 142/3/4 135/3/4 145/3/4
f 145/3/4 135/3/4 146/3/4
f 140/1/4 141/1/4 147/1/4
f 147/1/4 141/1/4 148/1/4
f 147/3/4 148/3/4 150/3/4
f 150/3/4 148/3/4 151/3/4
f 149/3/4 150/3/4 153/3/4
f 153/3/4 150/3/4 154/3/4
f 151/3/4 152/3/4 155/3/4
f 155/3/4 152/3/4 156/3/4
f 157/3/4 158/3/4 159/3/4
f 159/3/4 158/3/4 160/3/4
f 163/3/5 162/3/5 161/3/5
f 164/3/5 162/3/5 163/3/5
f 167/3/5 166/3/5 165/3/5
f 168/3/5 166/3/5 167/3/5
f 172/3/5 170/3/5 169/3/5
f 172/3/5 171/3/5 170/3/5
f 173/3/5 171/3/5 172/3/5
f 174/3/5 171/3/5 173/3/5
f 179/2/5 176/2/5 175/2/5
f 180/2/5 176/2/5 179/2/5
f 181/3/5 178/3/5 177/3/5
f 182/3/5 178/3/5 181/3/5
f 188/2/5 184/2/5 183/2/5
f 189/2/5 184/2/5 188/2/5
f 190/1/5 186/1/5 185/1/5
f 191/3/5 187/3/5 186/3/5
f 191/1/5 186/1/5 190/1/5
f 192/3/5 187/3/5 191/3/5
f 195/3/5 194/3/5 193/3/5
f 196/3/5 194/3/5 195/3/5
f 199/3/5 198/3/5 197/3/5
f 200/3/5 198/3/5 199/3/5
f 201/3/6 202/3/6 203/3/6
f 203/3/6 202/3/6 204/3/6
f 205/3/6 206/3/6 207/3/6
f 207/3/6 206/3/6 208/3/6
f 209/3/6 210/3/6 213/3/6
f 213/3/6 210/3/6 214/3/6
f 211/3/6 212/3/6 215/3/6
f 215/3/6 212/3/6 216/3/6
f 217/2/6 218/2/6 222/2/6
f 222/2/6 218/2/6 223/2/6
f 219/1/6 220/1/6 224/1/6
f 220/3/6 221/3/6 225/3/6
f 224/1/6 220/1/6 225/1/6
f 225/3/6 221/3/6 226/3/6
f 227/2/6 228/2/6 231/2/6
f 231/2/6 228/2/6 232/2/6
f 229/3/6 230/3/6 233/3/6
f 233/3/6 230/3/6 234/3/6
f 235/3/6 236/3/6 237/3/6
f 237/3/6 236/3/6 238/3/6
