# MagicaVoxel @ Ephtracy

# material
mtllib Fish5.mtl
usemtl palette

# normals
vn -1 0 0
vn 1 0 0
vn 0 0 1
vn 0 0 -1
vn 0 -1 0
vn 0 1 0

# texcoords
vt 0.865234 0.5
vt 0.923828 0.5
vt 0.927734 0.5
vt 0.931641 0.5
vt 0.935547 0.5
vt 0.958984 0.5
vt 0.994141 0.5

# verts
v -4.5 3 0.5
v -4.5 3 -0.5
v -4.5 4 0.5
v -4.5 4 -0.5
v -3.5 2 0.5
v -3.5 2 -0.5
v -3.5 3 0.5
v -3.5 3 -0.5
v -3.5 4 0.5
v -3.5 4 -0.5
v -3.5 5 0.5
v -3.5 5 -0.5
v -1.5 0 1.5
v -1.5 0 0.5
v -1.5 0 -0.5
v -1.5 0 -1.5
v -1.5 1 0.5
v -1.5 1 -0.5
v -1.5 2 1.5
v -1.5 2 0.5
v -1.5 2 -0.5
v -1.5 3 1.5
v -1.5 3 0.5
v -1.5 3 -0.5
v -1.5 3 -1.5
v -1.5 5 0.5
v -1.5 5 -0.5
v -1.5 6 0.5
v -1.5 6 -0.5
v 3.5 2 0.5
v 3.5 2 -0.5
v 3.5 3 0.5
v 3.5 3 -0.5
v 3.5 4 0.5
v 3.5 4 -0.5
v 3.5 5 0.5
v 3.5 5 -0.5
v -0.5 0 1.5
v -0.5 0 0.5
v -0.5 0 -0.5
v -0.5 0 -1.5
v -0.5 1 0.5
v -0.5 1 -0.5
v -0.5 2 1.5
v -0.5 2 0.5
v -0.5 3 1.5
v -0.5 3 0.5
v -0.5 3 -0.5
v -0.5 3 -1.5
v 0.5 2 0.5
v 0.5 2 -0.5
v 0.5 3 0.5
v 0.5 3 -0.5
v 0.5 4 0.5
v 0.5 4 -0.5
v 0.5 5 0.5
v 0.5 5 -0.5
v 1.5 1 0.5
v 1.5 1 -0.5
v 1.5 2 0.5
v 1.5 2 -0.5
v 1.5 5 0.5
v 1.5 5 -0.5
v 1.5 6 0.5
v 1.5 6 -0.5
v 3.5 3 0.5
v 3.5 3 -0.5
v 3.5 4 0.5
v 3.5 4 -0.5
v 4.5 2 0.5
v 4.5 2 -0.5
v 4.5 3 0.5
v 4.5 3 -0.5
v 4.5 4 0.5
v 4.5 4 -0.5
v 4.5 5 0.5
v 4.5 5 -0.5
v -1.5 0 1.5
v -1.5 2 1.5
v -1.5 3 1.5
v -0.5 0 1.5
v -0.5 2 1.5
v -0.5 3 1.5
v -4.5 3 0.5
v -4.5 4 0.5
v -3.5 2 0.5
v -3.5 3 0.5
v -3.5 4 0.5
v -3.5 5 0.5
v -2.5 2 0.5
v -2.5 3 0.5
v -2.5 4 0.5
v -2.5 5 0.5
v -1.5 2 0.5
v -1.5 3 0.5
v -1.5 4 0.5
v -1.5 5 0.5
v -1.5 6 0.5
v -0.5 1 0.5
v -0.5 2 0.5
v -0.5 3 0.5
v -0.5 6 0.5
v 0.5 1 0.5
v 0.5 2 0.5
v 0.5 3 0.5
v 0.5 4 0.5
v 0.5 5 0.5
v 0.5 6 0.5
v 1.5 1 0.5
v 1.5 2 0.5
v 1.5 3 0.5
v 1.5 4 0.5
v 1.5 5 0.5
v 1.5 6 0.5
v 3.5 2 0.5
v 3.5 3 0.5
v 3.5 4 0.5
v 3.5 5 0.5
v 4.5 2 0.5
v 4.5 3 0.5
v 4.5 4 0.5
v 4.5 5 0.5
v -1.5 0 -0.5
v -1.5 1 -0.5
v -0.5 0 -0.5
v -0.5 1 -0.5
v -1.5 0 0.5
v -1.5 1 0.5
v -0.5 0 0.5
v -0.5 1 0.5
v -4.5 3 -0.5
v -4.5 4 -0.5
v -3.5 2 -0.5
v -3.5 3 -0.5
v -3.5 4 -0.5
v -3.5 5 -0.5
v -2.5 2 -0.5
v -2.5 3 -0.5
v -2.5 4 -0.5
v -2.5 5 -0.5
v -1.5 2 -0.5
v -1.5 3 -0.5
v -1.5 4 -0.5
v -1.5 5 -0.5
v -1.5 6 -0.5
v -0.5 1 -0.5
v -0.5 3 -0.5
v -0.5 6 -0.5
v 0.5 1 -0.5
v 0.5 2 -0.5
v 0.5 3 -0.5
v 0.5 4 -0.5
v 0.5 5 -0.5
v 0.5 6 -0.5
v 1.5 1 -0.5
v 1.5 2 -0.5
v 1.5 3 -0.5
v 1.5 4 -0.5
v 1.5 5 -0.5
v 1.5 6 -0.5
v 3.5 2 -0.5
v 3.5 3 -0.5
v 3.5 4 -0.5
v 3.5 5 -0.5
v 4.5 2 -0.5
v 4.5 3 -0.5
v 4.5 4 -0.5
v 4.5 5 -0.5
v -1.5 0 -1.5
v -1.5 3 -1.5
v -0.5 0 -1.5
v -0.5 3 -1.5
v -1.5 0 1.5
v -0.5 0 1.5
v -1.5 0 0.5
v -0.5 0 0.5
v -1.5 0 -0.5
v -0.5 0 -0.5
v -1.5 0 -1.5
v -0.5 0 -1.5
v -1.5 1 0.5
v -0.5 1 0.5
v 0.5 1 0.5
v 1.5 1 0.5
v -1.5 1 -0.5
v -0.5 1 -0.5
v 0.5 1 -0.5
v 1.5 1 -0.5
v -3.5 2 0.5
v -2.5 2 0.5
v -1.5 2 0.5
v 3.5 2 0.5
v 4.5 2 0.5
v -3.5 2 -0.5
v -2.5 2 -0.5
v -1.5 2 -0.5
v 3.5 2 -0.5
v 4.5 2 -0.5
v -4.5 3 0.5
v -3.5 3 0.5
v 0.5 3 0.5
v 1.5 3 0.5
v 3.5 3 0.5
v -4.5 3 -0.5
v -3.5 3 -0.5
v 0.5 3 -0.5
v 1.5 3 -0.5
v 3.5 3 -0.5
v 3.5 4 0.5
v 4.5 4 0.5
v 3.5 4 -0.5
v 4.5 4 -0.5
v 0.5 5 0.5
v 1.5 5 0.5
v 0.5 5 -0.5
v 1.5 5 -0.5
v 0.5 2 0.5
v 1.5 2 0.5
v 0.5 2 -0.5
v 1.5 2 -0.5
v -1.5 3 1.5
v -0.5 3 1.5
v -1.5 3 0.5
v -0.5 3 0.5
v 3.5 3 0.5
v 4.5 3 0.5
v -1.5 3 -0.5
v -0.5 3 -0.5
v 3.5 3 -0.5
v 4.5 3 -0.5
v -1.5 3 -1.5
v -0.5 3 -1.5
v -4.5 4 0.5
v -3.5 4 0.5
v 0.5 4 0.5
v 1.5 4 0.5
v 3.5 4 0.5
v -4.5 4 -0.5
v -3.5 4 -0.5
v 0.5 4 -0.5
v 1.5 4 -0.5
v 3.5 4 -0.5
v -3.5 5 0.5
v -2.5 5 0.5
v -1.5 5 0.5
v 3.5 5 0.5
v 4.5 5 0.5
v -3.5 5 -0.5
v -2.5 5 -0.5
v -1.5 5 -0.5
v 3.5 5 -0.5
v 4.5 5 -0.5
v -1.5 6 0.5
v -0.5 6 0.5
v 0.5 6 0.5
v 1.5 6 0.5
v -1.5 6 -0.5
v -0.5 6 -0.5
v 0.5 6 -0.5
v 1.5 6 -0.5

# faces
f 3/2/1 2/2/1 1/2/1
f 4/2/1 2/2/1 3/2/1
f 7/5/1 6/5/1 5/5/1
f 8/5/1 6/5/1 7/5/1
f 11/5/1 10/5/1 9/5/1
f 12/5/1 10/5/1 11/5/1
f 17/2/1 14/2/1 13/2/1
f 18/2/1 16/2/1 15/2/1
f 19/2/1 17/2/1 13/2/1
f 19/2/1 18/2/1 17/2/1
f 20/2/1 18/2/1 19/2/1
f 21/2/1 16/2/1 18/2/1
f 21/2/1 18/2/1 20/2/1
f 22/1/1 20/1/1 19/1/1
f 23/1/1 20/1/1 22/1/1
f 24/2/1 16/2/1 21/2/1
f 25/2/1 16/2/1 24/2/1
f 28/2/1 27/2/1 26/2/1
f 29/2/1 27/2/1 28/2/1
f 32/5/1 31/5/1 30/5/1
f 33/5/1 31/5/1 32/5/1
f 36/5/1 35/5/1 34/5/1
f 37/5/1 35/5/1 36/5/1
f 38/2/2 39/2/2 42/2/2
f 40/2/2 41/2/2 43/2/2
f 38/2/2 42/2/2 44/2/2
f 44/2/2 42/2/2 45/2/2
f 44/1/2 45/1/2 46/1/2
f 46/1/2 45/1/2 47/1/2
f 43/2/2 41/2/2 48/2/2
f 48/2/2 41/2/2 49/2/2
f 50/4/2 51/4/2 52/4/2
f 52/4/2 51/4/2 53/4/2
f 54/4/2 55/4/2 56/4/2
f 56/4/2 55/4/2 57/4/2
f 58/6/2 59/6/2 60/6/2
f 60/6/2 59/6/2 61/6/2
f 62/6/2 63/6/2 64/6/2
f 64/6/2 63/6/2 65/6/2
f 66/3/2 67/3/2 68/3/2
f 68/3/2 67/3/2 69/3/2
f 70/5/2 71/5/2 72/5/2
f 72/5/2 71/5/2 73/5/2
f 74/5/2 75/5/2 76/5/2
f 76/5/2 75/5/2 77/5/2
f 81/2/3 79/2/3 78/2/3
f 82/1/3 80/1/3 79/1/3
f 82/2/3 79/2/3 81/2/3
f 83/1/3 80/1/3 82/1/3
f 87/2/3 85/2/3 84/2/3
f 88/2/3 85/2/3 87/2/3
f 90/5/3 87/5/3 86/5/3
f 90/5/3 89/5/3 88/5/3
f 90/5/3 88/5/3 87/5/3
f 91/5/3 89/5/3 90/5/3
f 92/5/3 89/5/3 91/5/3
f 93/5/3 89/5/3 92/5/3
f 94/6/3 91/6/3 90/6/3
f 95/7/3 92/7/3 91/7/3
f 95/6/3 91/6/3 94/6/3
f 96/6/3 93/6/3 92/6/3
f 96/7/3 92/7/3 95/7/3
f 97/6/3 93/6/3 96/6/3
f 101/2/3 97/2/3 96/2/3
f 101/2/3 98/2/3 97/2/3
f 101/2/3 96/2/3 95/2/3
f 102/2/3 98/2/3 101/2/3
f 103/4/3 100/4/3 99/4/3
f 103/4/3 101/4/3 100/4/3
f 103/4/3 102/4/3 101/4/3
f 104/4/3 102/4/3 103/4/3
f 105/4/3 102/4/3 104/4/3
f 106/4/3 102/4/3 105/4/3
f 107/4/3 102/4/3 106/4/3
f 108/4/3 102/4/3 107/4/3
f 109/6/3 104/6/3 103/6/3
f 110/6/3 104/6/3 109/6/3
f 111/6/3 106/6/3 105/6/3
f 112/6/3 106/6/3 111/6/3
f 113/6/3 108/6/3 107/6/3
f 114/6/3 108/6/3 113/6/3
f 116/3/3 112/3/3 111/3/3
f 117/3/3 112/3/3 116/3/3
f 119/5/3 116/5/3 115/5/3
f 120/5/3 116/5/3 119/5/3
f 121/5/3 118/5/3 117/5/3
f 122/5/3 118/5/3 121/5/3
f 125/2/3 124/2/3 123/2/3
f 126/2/3 124/2/3 125/2/3
f 127/2/4 128/2/4 129/2/4
f 129/2/4 128/2/4 130/2/4
f 131/2/4 132/2/4 134/2/4
f 134/2/4 132/2/4 135/2/4
f 133/5/4 134/5/4 137/5/4
f 135/5/4 136/5/4 137/5/4
f 134/5/4 135/5/4 137/5/4
f 137/5/4 136/5/4 138/5/4
f 138/5/4 136/5/4 139/5/4
f 139/5/4 136/5/4 140/5/4
f 137/6/4 138/6/4 141/6/4
f 138/7/4 139/7/4 142/7/4
f 141/6/4 138/6/4 142/6/4
f 139/6/4 140/6/4 143/6/4
f 142/7/4 139/7/4 143/7/4
f 143/6/4 140/6/4 144/6/4
f 143/2/4 144/2/4 147/2/4
f 142/2/4 143/2/4 147/2/4
f 144/2/4 145/2/4 147/2/4
f 147/2/4 145/2/4 148/2/4
f 146/4/4 147/4/4 149/4/4
f 147/4/4 148/4/4 149/4/4
f 149/4/4 148/4/4 150/4/4
f 150/4/4 148/4/4 151/4/4
f 151/4/4 148/4/4 152/4/4
f 152/4/4 148/4/4 153/4/4
f 153/4/4 148/4/4 154/4/4
f 149/6/4 150/6/4 155/6/4
f 155/6/4 150/6/4 156/6/4
f 151/6/4 152/6/4 157/6/4
f 157/6/4 152/6/4 158/6/4
f 153/6/4 154/6/4 159/6/4
f 159/6/4 154/6/4 160/6/4
f 157/3/4 158/3/4 162/3/4
f 162/3/4 158/3/4 163/3/4
f 161/5/4 162/5/4 165/5/4
f 165/5/4 162/5/4 166/5/4
f 163/5/4 164/5/4 167/5/4
f 167/5/4 164/5/4 168/5/4
f 169/2/4 170/2/4 171/2/4
f 171/2/4 170/2/4 172/2/4
f 175/2/5 174/2/5 173/2/5
f 176/2/5 174/2/5 175/2/5
f 179/2/5 178/2/5 177/2/5
f 180/2/5 178/2/5 179/2/5
f 185/2/5 182/2/5 181/2/5
f 186/4/5 183/4/5 182/4/5
f 186/2/5 182/2/5 185/2/5
f 187/6/5 184/6/5 183/6/5
f 187/4/5 183/4/5 186/4/5
f 188/6/5 184/6/5 187/6/5
f 194/5/5 190/5/5 189/5/5
f 195/6/5 191/6/5 190/6/5
f 195/5/5 190/5/5 194/5/5
f 196/6/5 191/6/5 195/6/5
f 197/5/5 193/5/5 192/5/5
f 198/5/5 193/5/5 197/5/5
f 204/2/5 200/2/5 199/2/5
f 205/2/5 200/2/5 204/2/5
f 206/6/5 202/6/5 201/6/5
f 207/3/5 203/3/5 202/3/5
f 207/6/5 202/6/5 206/6/5
f 208/3/5 203/3/5 207/3/5
f 211/5/5 210/5/5 209/5/5
f 212/5/5 210/5/5 211/5/5
f 215/6/5 214/6/5 213/6/5
f 216/6/5 214/6/5 215/6/5
f 217/6/6 218/6/6 219/6/6
f 219/6/6 218/6/6 220/6/6
f 221/1/6 222/1/6 223/1/6
f 223/1/6 222/1/6 224/1/6
f 225/5/6 226/5/6 229/5/6
f 229/5/6 226/5/6 230/5/6
f 227/2/6 228/2/6 231/2/6
f 231/2/6 228/2/6 232/2/6
f 233/2/6 234/2/6 238/2/6
f 238/2/6 234/2/6 239/2/6
f 235/6/6 236/6/6 240/6/6
f 236/3/6 237/3/6 241/3/6
f 240/6/6 236/6/6 241/6/6
f 241/3/6 237/3/6 242/3/6
f 243/5/6 244/5/6 248/5/6
f 244/6/6 245/6/6 249/6/6
f 248/5/6 244/5/6 249/5/6
f 249/6/6 245/6/6 250/6/6
f 246/5/6 247/5/6 251/5/6
f 251/5/6 247/5/6 252/5/6
f 253/2/6 254/2/6 257/2/6
f 254/4/6 255/4/6 258/4/6
f 257/2/6 254/2/6 258/2/6
f 255/6/6 256/6/6 259/6/6
f 258/4/6 255/4/6 259/4/6
f 259/6/6 256/6/6 260/6/6
