# MagicaVoxel @ Ephtracy

# material
mtllib Pickaxe.mtl
usemtl palette

# normals
vn -1 0 0
vn 1 0 0
vn 0 0 1
vn 0 0 -1
vn 0 -1 0
vn 0 1 0

# texcoords
vt 0.373047 0.5
vt 0.974609 0.5
vt 0.994141 0.5

# verts
v -8 0 2
v -8 0 -1
v -8 1 2
v -8 1 -1
v -7 0 6
v -7 0 5
v -7 0 4
v -7 0 2
v -7 0 -1
v -7 0 -2
v -7 1 6
v -7 1 5
v -7 1 4
v -7 1 2
v -7 1 -1
v -7 1 -2
v -6 0 7
v -6 0 6
v -6 0 5
v -6 0 4
v -6 1 7
v -6 1 6
v -6 1 5
v -6 1 4
v -4 0 7
v -4 0 6
v -4 1 7
v -4 1 6
v -3 0 2
v -3 0 1
v -3 1 2
v -3 1 1
v -2 0 8
v -2 0 7
v -2 0 1
v -2 0 -0
v -2 1 8
v -2 1 7
v -2 1 1
v -2 1 -0
v -1 0 -0
v -1 0 -1
v -1 1 -0
v -1 1 -1
v 0 0 -1
v 0 0 -2
v 0 1 -1
v 0 1 -2
v 1 0 -2
v 1 0 -3
v 1 1 -2
v 1 1 -3
v 2 0 -3
v 2 0 -4
v 2 1 -3
v 2 1 -4
v 3 0 -4
v 3 0 -5
v 3 1 -4
v 3 1 -5
v 4 0 -5
v 4 0 -6
v 4 1 -5
v 4 1 -6
v 5 0 -6
v 5 0 -7
v 5 1 -6
v 5 1 -7
v 6 0 -7
v 6 0 -8
v 6 1 -7
v 6 1 -8
v -6 0 -1
v -6 0 -2
v -6 1 -1
v -6 1 -2
v -5 0 7
v -5 0 6
v -5 0 1
v -5 0 -1
v -5 1 7
v -5 1 6
v -5 1 1
v -5 1 -1
v -4 0 2
v -4 0 1
v -4 1 2
v -4 1 1
v -2 0 4
v -2 0 3
v -2 1 4
v -2 1 3
v -1 0 5
v -1 0 4
v -1 0 3
v -1 0 2
v -1 1 5
v -1 1 4
v -1 1 3
v -1 1 2
v 0 0 2
v 0 0 1
v 0 1 2
v 0 1 1
v 1 0 8
v 1 0 7
v 1 0 6
v 1 0 5
v 1 0 1
v 1 0 -0
v 1 1 8
v 1 1 7
v 1 1 6
v 1 1 5
v 1 1 1
v 1 1 -0
v 2 0 7
v 2 0 6
v 2 0 -0
v 2 0 -1
v 2 1 7
v 2 1 6
v 2 1 -0
v 2 1 -1
v 3 0 -1
v 3 0 -2
v 3 1 -1
v 3 1 -2
v 4 0 -2
v 4 0 -3
v 4 1 -2
v 4 1 -3
v 5 0 -3
v 5 0 -4
v 5 1 -3
v 5 1 -4
v 6 0 -4
v 6 0 -5
v 6 1 -4
v 6 1 -5
v 7 0 -5
v 7 0 -6
v 7 1 -5
v 7 1 -6
v 8 0 -6
v 8 0 -8
v 8 1 -6
v 8 1 -8
v -2 0 8
v -2 1 8
v 1 0 8
v 1 1 8
v -6 0 7
v -6 1 7
v -5 0 7
v -5 1 7
v -4 0 7
v -4 1 7
v -2 0 7
v -2 1 7
v 1 0 7
v 1 1 7
v 2 0 7
v 2 1 7
v -7 0 6
v -7 1 6
v -6 0 6
v -6 1 6
v -5 0 6
v -5 1 6
v -4 0 6
v -4 1 6
v -7 0 4
v -7 1 4
v -6 0 4
v -6 1 4
v -2 0 3
v -2 1 3
v -1 0 3
v -1 1 3
v -8 0 2
v -8 1 2
v -7 0 2
v -7 1 2
v -1 0 2
v -1 1 2
v 0 0 2
v 0 1 2
v 0 0 1
v 0 1 1
v 1 0 1
v 1 1 1
v 1 0 -0
v 1 1 -0
v 2 0 -0
v 2 1 -0
v 2 0 -1
v 2 1 -1
v 3 0 -1
v 3 1 -1
v 3 0 -2
v 3 1 -2
v 4 0 -2
v 4 1 -2
v 4 0 -3
v 4 1 -3
v 5 0 -3
v 5 1 -3
v 5 0 -4
v 5 1 -4
v 6 0 -4
v 6 1 -4
v 6 0 -5
v 6 1 -5
v 7 0 -5
v 7 1 -5
v 7 0 -6
v 7 1 -6
v 8 0 -6
v 8 1 -6
v 1 0 6
v 1 1 6
v 2 0 6
v 2 1 6
v -7 0 5
v -7 1 5
v -6 0 5
v -6 1 5
v -1 0 5
v -1 1 5
v 1 0 5
v 1 1 5
v -2 0 4
v -2 1 4
v -1 0 4
v -1 1 4
v -4 0 2
v -4 1 2
v -3 0 2
v -3 1 2
v -5 0 1
v -5 1 1
v -4 0 1
v -4 1 1
v -3 0 1
v -3 1 1
v -2 0 1
v -2 1 1
v -2 0 -0
v -2 1 -0
v -1 0 -0
v -1 1 -0
v -8 0 -1
v -8 1 -1
v -7 0 -1
v -7 1 -1
v -6 0 -1
v -6 1 -1
v -5 0 -1
v -5 1 -1
v -1 0 -1
v -1 1 -1
v 0 0 -1
v 0 1 -1
v -7 0 -2
v -7 1 -2
v -6 0 -2
v -6 1 -2
v 0 0 -2
v 0 1 -2
v 1 0 -2
v 1 1 -2
v 1 0 -3
v 1 1 -3
v 2 0 -3
v 2 1 -3
v 2 0 -4
v 2 1 -4
v 3 0 -4
v 3 1 -4
v 3 0 -5
v 3 1 -5
v 4 0 -5
v 4 1 -5
v 4 0 -6
v 4 1 -6
v 5 0 -6
v 5 1 -6
v 5 0 -7
v 5 1 -7
v 6 0 -7
v 6 1 -7
v 6 0 -8
v 6 1 -8
v 8 0 -8
v 8 1 -8
v -2 0 8
v 1 0 8
v -6 0 7
v -5 0 7
v -4 0 7
v -2 0 7
v 1 0 7
v 2 0 7
v -7 0 6
v -6 0 6
v -5 0 6
v -4 0 6
v -2 0 6
v -1 0 6
v 1 0 6
v 2 0 6
v -7 0 5
v -6 0 5
v -5 0 5
v -4 0 5
v -2 0 5
v -1 0 5
v 1 0 5
v -7 0 4
v -6 0 4
v -5 0 4
v -3 0 4
v -2 0 4
v -1 0 4
v -4 0 3
v -3 0 3
v -2 0 3
v -1 0 3
v -8 0 2
v -7 0 2
v -6 0 2
v -5 0 2
v -4 0 2
v -3 0 2
v -1 0 2
v 0 0 2
v -6 0 1
v -5 0 1
v -4 0 1
v -3 0 1
v -2 0 1
v 0 0 1
v 1 0 1
v -2 0 -0
v -1 0 -0
v 1 0 -0
v 2 0 -0
v -8 0 -1
v -7 0 -1
v -6 0 -1
v -5 0 -1
v -1 0 -1
v 0 0 -1
v 2 0 -1
v 3 0 -1
v -7 0 -2
v -6 0 -2
v 0 0 -2
v 1 0 -2
v 3 0 -2
v 4 0 -2
v 1 0 -3
v 2 0 -3
v 4 0 -3
v 5 0 -3
v 2 0 -4
v 3 0 -4
v 5 0 -4
v 6 0 -4
v 3 0 -5
v 4 0 -5
v 6 0 -5
v 7 0 -5
v 4 0 -6
v 5 0 -6
v 6 0 -6
v 7 0 -6
v 8 0 -6
v 5 0 -7
v 6 0 -7
v 6 0 -8
v 8 0 -8
v -2 1 8
v 1 1 8
v -6 1 7
v -5 1 7
v -4 1 7
v -2 1 7
v 1 1 7
v 2 1 7
v -7 1 6
v -6 1 6
v -5 1 6
v -4 1 6
v -2 1 6
v -1 1 6
v 1 1 6
v 2 1 6
v -7 1 5
v -6 1 5
v -5 1 5
v -4 1 5
v -2 1 5
v -1 1 5
v 1 1 5
v -7 1 4
v -6 1 4
v -5 1 4
v -3 1 4
v -2 1 4
v -1 1 4
v -4 1 3
v -3 1 3
v -2 1 3
v -1 1 3
v -8 1 2
v -7 1 2
v -6 1 2
v -5 1 2
v -4 1 2
v -3 1 2
v -1 1 2
v 0 1 2
v -6 1 1
v -5 1 1
v -4 1 1
v -3 1 1
v -2 1 1
v 0 1 1
v 1 1 1
v -2 1 -0
v -1 1 -0
v 1 1 -0
v 2 1 -0
v -8 1 -1
v -7 1 -1
v -6 1 -1
v -5 1 -1
v -1 1 -1
v 0 1 -1
v 2 1 -1
v 3 1 -1
v -7 1 -2
v -6 1 -2
v 0 1 -2
v 1 1 -2
v 3 1 -2
v 4 1 -2
v 1 1 -3
v 2 1 -3
v 4 1 -3
v 5 1 -3
v 2 1 -4
v 3 1 -4
v 5 1 -4
v 6 1 -4
v 3 1 -5
v 4 1 -5
v 6 1 -5
v 7 1 -5
v 4 1 -6
v 5 1 -6
v 6 1 -6
v 7 1 -6
v 8 1 -6
v 5 1 -7
v 6 1 -7
v 6 1 -8
v 8 1 -8

# faces
f 3/3/1 2/3/1 1/3/1
f 4/3/1 2/3/1 3/3/1
f 11/3/1 6/3/1 5/3/1
f 12/3/1 6/3/1 11/3/1
f 13/3/1 8/3/1 7/3/1
f 14/3/1 8/3/1 13/3/1
f 15/3/1 10/3/1 9/3/1
f 16/3/1 10/3/1 15/3/1
f 21/3/1 18/3/1 17/3/1
f 22/3/1 18/3/1 21/3/1
f 23/3/1 20/3/1 19/3/1
f 24/3/1 20/3/1 23/3/1
f 27/3/1 26/3/1 25/3/1
f 28/3/1 26/3/1 27/3/1
f 31/1/1 30/1/1 29/1/1
f 32/1/1 30/1/1 31/1/1
f 37/3/1 34/3/1 33/3/1
f 38/3/1 34/3/1 37/3/1
f 39/1/1 36/1/1 35/1/1
f 40/1/1 36/1/1 39/1/1
f 43/1/1 42/1/1 41/1/1
f 44/1/1 42/1/1 43/1/1
f 47/1/1 46/1/1 45/1/1
f 48/1/1 46/1/1 47/1/1
f 51/1/1 50/1/1 49/1/1
f 52/1/1 50/1/1 51/1/1
f 55/1/1 54/1/1 53/1/1
f 56/1/1 54/1/1 55/1/1
f 59/1/1 58/1/1 57/1/1
f 60/1/1 58/1/1 59/1/1
f 63/1/1 62/1/1 61/1/1
f 64/1/1 62/1/1 63/1/1
f 67/1/1 66/1/1 65/1/1
f 68/1/1 66/1/1 67/1/1
f 71/3/1 70/3/1 69/3/1
f 72/3/1 70/3/1 71/3/1
f 73/3/2 74/3/2 75/3/2
f 75/3/2 74/3/2 76/3/2
f 77/3/2 78/3/2 81/3/2
f 81/3/2 78/3/2 82/3/2
f 79/3/2 80/3/2 83/3/2
f 83/3/2 80/3/2 84/3/2
f 85/3/2 86/3/2 87/3/2
f 87/3/2 86/3/2 88/3/2
f 89/3/2 90/3/2 91/3/2
f 91/3/2 90/3/2 92/3/2
f 93/3/2 94/3/2 97/3/2
f 97/3/2 94/3/2 98/3/2
f 95/1/2 96/1/2 99/1/2
f 99/1/2 96/1/2 100/1/2
f 101/1/2 102/1/2 103/1/2
f 103/1/2 102/1/2 104/1/2
f 105/3/2 106/3/2 111/3/2
f 111/3/2 106/3/2 112/3/2
f 107/3/2 108/3/2 113/3/2
f 113/3/2 108/3/2 114/3/2
f 109/1/2 110/1/2 115/1/2
f 115/1/2 110/1/2 116/1/2
f 117/3/2 118/3/2 121/3/2
f 121/3/2 118/3/2 122/3/2
f 119/1/2 120/1/2 123/1/2
f 123/1/2 120/1/2 124/1/2
f 125/1/2 126/1/2 127/1/2
f 127/1/2 126/1/2 128/1/2
f 129/1/2 130/1/2 131/1/2
f 131/1/2 130/1/2 132/1/2
f 133/1/2 134/1/2 135/1/2
f 135/1/2 134/1/2 136/1/2
f 137/1/2 138/1/2 139/1/2
f 139/1/2 138/1/2 140/1/2
f 141/1/2 142/1/2 143/1/2
f 143/1/2 142/1/2 144/1/2
f 145/3/2 146/3/2 147/3/2
f 147/3/2 146/3/2 148/3/2
f 151/3/3 150/3/3 149/3/3
f 152/3/3 150/3/3 151/3/3
f 155/3/3 154/3/3 153/3/3
f 156/3/3 154/3/3 155/3/3
f 159/3/3 158/3/3 157/3/3
f 160/3/3 158/3/3 159/3/3
f 163/3/3 162/3/3 161/3/3
f 164/3/3 162/3/3 163/3/3
f 167/3/3 166/3/3 165/3/3
f 168/3/3 166/3/3 167/3/3
f 171/3/3 170/3/3 169/3/3
f 172/3/3 170/3/3 171/3/3
f 175/3/3 174/3/3 173/3/3
f 176/3/3 174/3/3 175/3/3
f 179/1/3 178/1/3 177/1/3
f 180/1/3 178/1/3 179/1/3
f 183/3/3 182/3/3 181/3/3
f 184/3/3 182/3/3 183/3/3
f 187/1/3 186/1/3 185/1/3
f 188/1/3 186/1/3 187/1/3
f 191/1/3 190/1/3 189/1/3
f 192/1/3 190/1/3 191/1/3
f 195/1/3 194/1/3 193/1/3
f 196/1/3 194/1/3 195/1/3
f 199/1/3 198/1/3 197/1/3
f 200/1/3 198/1/3 199/1/3
f 203/1/3 202/1/3 201/1/3
f 204/1/3 202/1/3 203/1/3
f 207/1/3 206/1/3 205/1/3
f 208/1/3 206/1/3 207/1/3
f 211/1/3 210/1/3 209/1/3
f 212/1/3 210/1/3 211/1/3
f 215/1/3 214/1/3 213/1/3
f 216/1/3 214/1/3 215/1/3
f 219/3/3 218/3/3 217/3/3
f 220/3/3 218/3/3 219/3/3
f 221/3/4 222/3/4 223/3/4
f 223/3/4 222/3/4 224/3/4
f 225/3/4 226/3/4 227/3/4
f 227/3/4 226/3/4 228/3/4
f 229/3/4 230/3/4 231/3/4
f 231/3/4 230/3/4 232/3/4
f 233/3/4 234/3/4 235/3/4
f 235/3/4 234/3/4 236/3/4
f 237/3/4 238/3/4 239/3/4
f 239/3/4 238/3/4 240/3/4
f 241/3/4 242/3/4 243/3/4
f 243/3/4 242/3/4 244/3/4
f 245/1/4 246/1/4 247/1/4
f 247/1/4 246/1/4 248/1/4
f 249/1/4 250/1/4 251/1/4
f 251/1/4 250/1/4 252/1/4
f 253/3/4 254/3/4 255/3/4
f 255/3/4 254/3/4 256/3/4
f 257/3/4 258/3/4 259/3/4
f 259/3/4 258/3/4 260/3/4
f 261/1/4 262/1/4 263/1/4
f 263/1/4 262/1/4 264/1/4
f 265/3/4 266/3/4 267/3/4
f 267/3/4 266/3/4 268/3/4
f 269/1/4 270/1/4 271/1/4
f 271/1/4 270/1/4 272/1/4
f 273/1/4 274/1/4 275/1/4
f 275/1/4 274/1/4 276/1/4
f 277/1/4 278/1/4 279/1/4
f 279/1/4 278/1/4 280/1/4
f 281/1/4 282/1/4 283/1/4
f 283/1/4 282/1/4 284/1/4
f 285/1/4 286/1/4 287/1/4
f 287/1/4 286/1/4 288/1/4
f 289/1/4 290/1/4 291/1/4
f 291/1/4 290/1/4 292/1/4
f 293/3/4 294/3/4 295/3/4
f 295/3/4 294/3/4 296/3/4
f 302/3/5 298/3/5 297/3/5
f 303/3/5 298/3/5 302/3/5
f 306/3/5 300/3/5 299/3/5
f 307/3/5 300/3/5 306/3/5
f 308/3/5 302/3/5 301/3/5
f 309/2/5 303/2/5 302/2/5
f 309/3/5 302/3/5 308/3/5
f 310/2/5 303/2/5 309/2/5
f 311/3/5 304/3/5 303/3/5
f 311/2/5 303/2/5 310/2/5
f 312/3/5 304/3/5 311/3/5
f 313/3/5 306/3/5 305/3/5
f 314/1/5 307/1/5 306/1/5
f 314/3/5 306/3/5 313/3/5
f 315/3/5 308/3/5 307/3/5
f 315/1/5 307/1/5 314/1/5
f 316/2/5 310/2/5 309/2/5
f 316/3/5 308/3/5 315/3/5
f 316/2/5 309/2/5 308/2/5
f 317/2/5 310/2/5 316/2/5
f 318/3/5 311/3/5 310/3/5
f 318/2/5 310/2/5 317/2/5
f 319/3/5 311/3/5 318/3/5
f 321/3/5 315/3/5 314/3/5
f 322/2/5 317/2/5 316/2/5
f 322/2/5 316/2/5 315/2/5
f 322/3/5 315/3/5 321/3/5
f 323/2/5 317/2/5 322/2/5
f 324/3/5 318/3/5 317/3/5
f 324/2/5 317/2/5 323/2/5
f 325/3/5 318/3/5 324/3/5
f 326/2/5 323/2/5 322/2/5
f 326/2/5 322/2/5 321/2/5
f 327/3/5 324/3/5 323/3/5
f 327/2/5 323/2/5 326/2/5
f 328/3/5 324/3/5 327/3/5
f 331/3/5 321/3/5 320/3/5
f 332/2/5 326/2/5 321/2/5
f 332/3/5 321/3/5 331/3/5
f 333/2/5 326/2/5 332/2/5
f 334/3/5 327/3/5 326/3/5
f 334/2/5 326/2/5 333/2/5
f 335/1/5 329/1/5 328/1/5
f 335/3/5 327/3/5 334/3/5
f 335/1/5 328/1/5 327/1/5
f 336/1/5 329/1/5 335/1/5
f 338/2/5 333/2/5 332/2/5
f 338/2/5 332/2/5 331/2/5
f 339/3/5 334/3/5 333/3/5
f 339/2/5 333/2/5 338/2/5
f 340/3/5 334/3/5 339/3/5
f 341/1/5 336/1/5 335/1/5
f 341/1/5 337/1/5 336/1/5
f 342/1/5 337/1/5 341/1/5
f 343/1/5 337/1/5 342/1/5
f 345/1/5 344/1/5 343/1/5
f 345/1/5 343/1/5 342/1/5
f 346/1/5 344/1/5 345/1/5
f 347/1/5 344/1/5 346/1/5
f 349/3/5 331/3/5 330/3/5
f 350/2/5 338/2/5 331/2/5
f 350/3/5 331/3/5 349/3/5
f 351/3/5 339/3/5 338/3/5
f 351/2/5 338/2/5 350/2/5
f 352/3/5 339/3/5 351/3/5
f 353/1/5 347/1/5 346/1/5
f 353/1/5 348/1/5 347/1/5
f 354/1/5 348/1/5 353/1/5
f 355/1/5 348/1/5 354/1/5
f 357/3/5 351/3/5 350/3/5
f 358/3/5 351/3/5 357/3/5
f 359/1/5 356/1/5 355/1/5
f 359/1/5 355/1/5 354/1/5
f 360/1/5 356/1/5 359/1/5
f 361/1/5 356/1/5 360/1/5
f 363/1/5 362/1/5 361/1/5
f 363/1/5 361/1/5 360/1/5
f 364/1/5 362/1/5 363/1/5
f 365/1/5 362/1/5 364/1/5
f 367/1/5 366/1/5 365/1/5
f 367/1/5 365/1/5 364/1/5
f 368/1/5 366/1/5 367/1/5
f 369/1/5 366/1/5 368/1/5
f 371/1/5 370/1/5 369/1/5
f 371/1/5 369/1/5 368/1/5
f 372/1/5 370/1/5 371/1/5
f 373/1/5 370/1/5 372/1/5
f 375/1/5 374/1/5 373/1/5
f 375/1/5 373/1/5 372/1/5
f 376/1/5 374/1/5 375/1/5
f 377/1/5 374/1/5 376/1/5
f 378/1/5 374/1/5 377/1/5
f 380/1/5 377/1/5 376/1/5
f 381/3/5 379/3/5 378/3/5
f 381/1/5 377/1/5 380/1/5
f 381/3/5 378/3/5 377/3/5
f 382/3/5 379/3/5 381/3/5
f 383/3/5 379/3/5 382/3/5
f 384/3/6 385/3/6 389/3/6
f 389/3/6 385/3/6 390/3/6
f 386/3/6 387/3/6 393/3/6
f 393/3/6 387/3/6 394/3/6
f 388/3/6 389/3/6 395/3/6
f 389/2/6 390/2/6 396/2/6
f 395/3/6 389/3/6 396/3/6
f 396/2/6 390/2/6 397/2/6
f 390/3/6 391/3/6 398/3/6
f 397/2/6 390/2/6 398/2/6
f 398/3/6 391/3/6 399/3/6
f 392/3/6 393/3/6 400/3/6
f 393/1/6 394/1/6 401/1/6
f 400/3/6 393/3/6 401/3/6
f 394/3/6 395/3/6 402/3/6
f 401/1/6 394/1/6 402/1/6
f 396/2/6 397/2/6 403/2/6
f 402/3/6 395/3/6 403/3/6
f 395/2/6 396/2/6 403/2/6
f 403/2/6 397/2/6 404/2/6
f 397/3/6 398/3/6 405/3/6
f 404/2/6 397/2/6 405/2/6
f 405/3/6 398/3/6 406/3/6
f 401/3/6 402/3/6 408/3/6
f 403/2/6 404/2/6 409/2/6
f 402/2/6 403/2/6 409/2/6
f 408/3/6 402/3/6 409/3/6
f 409/2/6 404/2/6 410/2/6
f 404/3/6 405/3/6 411/3/6
f 410/2/6 404/2/6 411/2/6
f 411/3/6 405/3/6 412/3/6
f 409/2/6 410/2/6 413/2/6
f 408/2/6 409/2/6 413/2/6
f 410/3/6 411/3/6 414/3/6
f 413/2/6 410/2/6 414/2/6
f 414/3/6 411/3/6 415/3/6
f 407/3/6 408/3/6 418/3/6
f 408/2/6 413/2/6 419/2/6
f 418/3/6 408/3/6 419/3/6
f 419/2/6 413/2/6 420/2/6
f 413/3/6 414/3/6 421/3/6
f 420/2/6 413/2/6 421/2/6
f 415/1/6 416/1/6 422/1/6
f 421/3/6 414/3/6 422/3/6
f 414/1/6 415/1/6 422/1/6
f 422/1/6 416/1/6 423/1/6
f 419/2/6 420/2/6 425/2/6
f 418/2/6 419/2/6 425/2/6
f 420/3/6 421/3/6 426/3/6
f 425/2/6 420/2/6 426/2/6
f 426/3/6 421/3/6 427/3/6
f 422/1/6 423/1/6 428/1/6
f 423/1/6 424/1/6 428/1/6
f 428/1/6 424/1/6 429/1/6
f 429/1/6 424/1/6 430/1/6
f 430/1/6 431/1/6 432/1/6
f 429/1/6 430/1/6 432/1/6
f 432/1/6 431/1/6 433/1/6
f 433/1/6 431/1/6 434/1/6
f 417/3/6 418/3/6 436/3/6
f 418/2/6 425/2/6 437/2/6
f 436/3/6 418/3/6 437/3/6
f 425/3/6 426/3/6 438/3/6
f 437/2/6 425/2/6 438/2/6
f 438/3/6 426/3/6 439/3/6
f 433/1/6 434/1/6 440/1/6
f 434/1/6 435/1/6 440/1/6
f 440/1/6 435/1/6 441/1/6
f 441/1/6 435/1/6 442/1/6
f 437/3/6 438/3/6 444/3/6
f 444/3/6 438/3/6 445/3/6
f 442/1/6 443/1/6 446/1/6
f 441/1/6 442/1/6 446/1/6
f 446/1/6 443/1/6 447/1/6
f 447/1/6 443/1/6 448/1/6
f 448/1/6 449/1/6 450/1/6
f 447/1/6 448/1/6 450/1/6
f 450/1/6 449/1/6 451/1/6
f 451/1/6 449/1/6 452/1/6
f 452/1/6 453/1/6 454/1/6
f 451/1/6 452/1/6 454/1/6
f 454/1/6 453/1/6 455/1/6
f 455/1/6 453/1/6 456/1/6
f 456/1/6 457/1/6 458/1/6
f 455/1/6 456/1/6 458/1/6
f 458/1/6 457/1/6 459/1/6
f 459/1/6 457/1/6 460/1/6
f 460/1/6 461/1/6 462/1/6
f 459/1/6 460/1/6 462/1/6
f 462/1/6 461/1/6 463/1/6
f 463/1/6 461/1/6 464/1/6
f 464/1/6 461/1/6 465/1/6
f 463/1/6 464/1/6 467/1/6
f 465/3/6 466/3/6 468/3/6
f 467/1/6 464/1/6 468/1/6
f 464/3/6 465/3/6 468/3/6
f 468/3/6 466/3/6 469/3/6
f 469/3/6 466/3/6 470/3/6
