# MagicaVoxel @ Ephtracy

# material
mtllib Shovel.mtl
usemtl palette

# normals
vn -1 0 0
vn 1 0 0
vn 0 0 1
vn 0 0 -1
vn 0 -1 0
vn 0 1 0

# texcoords
vt 0.373047 0.5
vt 0.958984 0.5
vt 0.994141 0.5

# verts
v -7.5 0 6.5
v -7.5 0 3.5
v -7.5 1 6.5
v -7.5 1 3.5
v -6.5 0 7.5
v -6.5 0 6.5
v -6.5 0 3.5
v -6.5 0 2.5
v -6.5 1 7.5
v -6.5 1 6.5
v -6.5 1 3.5
v -6.5 1 2.5
v -5.5 0 2.5
v -5.5 0 1.5
v -5.5 1 2.5
v -5.5 1 1.5
v -4.5 0 1.5
v -4.5 0 0.5
v -4.5 1 1.5
v -4.5 1 0.5
v -2.5 0 1.5
v -2.5 0 0.5
v -2.5 1 1.5
v -2.5 1 0.5
v -1.5 0 0.5
v -1.5 0 -0.5
v -1.5 1 0.5
v -1.5 1 -0.5
v -0.5 0 -0.5
v -0.5 0 -1.5
v -0.5 1 -0.5
v -0.5 1 -1.5
v 0.5 0 -1.5
v 0.5 0 -2.5
v 0.5 1 -1.5
v 0.5 1 -2.5
v 1.5 0 -2.5
v 1.5 0 -3.5
v 1.5 1 -2.5
v 1.5 1 -3.5
v 2.5 0 -3.5
v 2.5 0 -4.5
v 2.5 1 -3.5
v 2.5 1 -4.5
v 3.5 0 -4.5
v 3.5 0 -5.5
v 3.5 1 -4.5
v 3.5 1 -5.5
v 4.5 0 -5.5
v 4.5 0 -7.5
v 4.5 1 -5.5
v 4.5 1 -7.5
v -3.5 0 7.5
v -3.5 0 6.5
v -3.5 0 1.5
v -3.5 0 0.5
v -3.5 1 7.5
v -3.5 1 6.5
v -3.5 1 1.5
v -3.5 1 0.5
v -2.5 0 6.5
v -2.5 0 5.5
v -2.5 1 6.5
v -2.5 1 5.5
v -1.5 0 5.5
v -1.5 0 4.5
v -1.5 0 3.5
v -1.5 0 2.5
v -1.5 1 5.5
v -1.5 1 4.5
v -1.5 1 3.5
v -1.5 1 2.5
v -0.5 0 4.5
v -0.5 0 3.5
v -0.5 0 2.5
v -0.5 0 1.5
v -0.5 1 4.5
v -0.5 1 3.5
v -0.5 1 2.5
v -0.5 1 1.5
v 0.5 0 1.5
v 0.5 0 0.5
v 0.5 1 1.5
v 0.5 1 0.5
v 1.5 0 0.5
v 1.5 0 -0.5
v 1.5 1 0.5
v 1.5 1 -0.5
v 2.5 0 -0.5
v 2.5 0 -1.5
v 2.5 1 -0.5
v 2.5 1 -1.5
v 3.5 0 -1.5
v 3.5 0 -2.5
v 3.5 1 -1.5
v 3.5 1 -2.5
v 4.5 0 -2.5
v 4.5 0 -3.5
v 4.5 1 -2.5
v 4.5 1 -3.5
v 5.5 0 -3.5
v 5.5 0 -4.5
v 5.5 1 -3.5
v 5.5 1 -4.5
v 6.5 0 -6.5
v 6.5 0 -7.5
v 6.5 1 -6.5
v 6.5 1 -7.5
v 7.5 0 -4.5
v 7.5 0 -6.5
v 7.5 1 -4.5
v 7.5 1 -6.5
v -6.5 0 7.5
v -6.5 1 7.5
v -3.5 0 7.5
v -3.5 1 7.5
v -7.5 0 6.5
v -7.5 1 6.5
v -6.5 0 6.5
v -6.5 1 6.5
v -3.5 0 6.5
v -3.5 1 6.5
v -2.5 0 6.5
v -2.5 1 6.5
v -2.5 0 5.5
v -2.5 1 5.5
v -1.5 0 5.5
v -1.5 1 5.5
v -1.5 0 4.5
v -1.5 1 4.5
v -0.5 0 4.5
v -0.5 1 4.5
v -1.5 0 2.5
v -1.5 1 2.5
v -0.5 0 2.5
v -0.5 1 2.5
v -0.5 0 1.5
v -0.5 1 1.5
v 0.5 0 1.5
v 0.5 1 1.5
v 0.5 0 0.5
v 0.5 1 0.5
v 1.5 0 0.5
v 1.5 1 0.5
v 1.5 0 -0.5
v 1.5 1 -0.5
v 2.5 0 -0.5
v 2.5 1 -0.5
v 2.5 0 -1.5
v 2.5 1 -1.5
v 3.5 0 -1.5
v 3.5 1 -1.5
v 3.5 0 -2.5
v 3.5 1 -2.5
v 4.5 0 -2.5
v 4.5 1 -2.5
v 4.5 0 -3.5
v 4.5 1 -3.5
v 5.5 0 -3.5
v 5.5 1 -3.5
v 5.5 0 -4.5
v 5.5 1 -4.5
v 7.5 0 -4.5
v 7.5 1 -4.5
v -7.5 0 3.5
v -7.5 1 3.5
v -6.5 0 3.5
v -6.5 1 3.5
v -1.5 0 3.5
v -1.5 1 3.5
v -0.5 0 3.5
v -0.5 1 3.5
v -6.5 0 2.5
v -6.5 1 2.5
v -5.5 0 2.5
v -5.5 1 2.5
v -5.5 0 1.5
v -5.5 1 1.5
v -4.5 0 1.5
v -4.5 1 1.5
v -3.5 0 1.5
v -3.5 1 1.5
v -2.5 0 1.5
v -2.5 1 1.5
v -4.5 0 0.5
v -4.5 1 0.5
v -3.5 0 0.5
v -3.5 1 0.5
v -2.5 0 0.5
v -2.5 1 0.5
v -1.5 0 0.5
v -1.5 1 0.5
v -1.5 0 -0.5
v -1.5 1 -0.5
v -0.5 0 -0.5
v -0.5 1 -0.5
v -0.5 0 -1.5
v -0.5 1 -1.5
v 0.5 0 -1.5
v 0.5 1 -1.5
v 0.5 0 -2.5
v 0.5 1 -2.5
v 1.5 0 -2.5
v 1.5 1 -2.5
v 1.5 0 -3.5
v 1.5 1 -3.5
v 2.5 0 -3.5
v 2.5 1 -3.5
v 2.5 0 -4.5
v 2.5 1 -4.5
v 3.5 0 -4.5
v 3.5 1 -4.5
v 3.5 0 -5.5
v 3.5 1 -5.5
v 4.5 0 -5.5
v 4.5 1 -5.5
v 6.5 0 -6.5
v 6.5 1 -6.5
v 7.5 0 -6.5
v 7.5 1 -6.5
v 4.5 0 -7.5
v 4.5 1 -7.5
v 6.5 0 -7.5
v 6.5 1 -7.5
v -6.5 0 7.5
v -3.5 0 7.5
v -7.5 0 6.5
v -6.5 0 6.5
v -3.5 0 6.5
v -2.5 0 6.5
v -2.5 0 5.5
v -1.5 0 5.5
v -1.5 0 4.5
v -0.5 0 4.5
v -7.5 0 3.5
v -6.5 0 3.5
v -3.5 0 3.5
v -1.5 0 3.5
v -0.5 0 3.5
v -6.5 0 2.5
v -5.5 0 2.5
v -2.5 0 2.5
v -1.5 0 2.5
v -0.5 0 2.5
v -5.5 0 1.5
v -4.5 0 1.5
v -3.5 0 1.5
v -2.5 0 1.5
v -1.5 0 1.5
v -0.5 0 1.5
v 0.5 0 1.5
v -4.5 0 0.5
v -3.5 0 0.5
v -2.5 0 0.5
v -1.5 0 0.5
v -0.5 0 0.5
v 0.5 0 0.5
v 1.5 0 0.5
v -1.5 0 -0.5
v -0.5 0 -0.5
v 0.5 0 -0.5
v 1.5 0 -0.5
v 2.5 0 -0.5
v -0.5 0 -1.5
v 0.5 0 -1.5
v 1.5 0 -1.5
v 2.5 0 -1.5
v 3.5 0 -1.5
v 0.5 0 -2.5
v 1.5 0 -2.5
v 2.5 0 -2.5
v 3.5 0 -2.5
v 4.5 0 -2.5
v 1.5 0 -3.5
v 2.5 0 -3.5
v 3.5 0 -3.5
v 4.5 0 -3.5
v 5.5 0 -3.5
v 2.5 0 -4.5
v 3.5 0 -4.5
v 4.5 0 -4.5
v 5.5 0 -4.5
v 7.5 0 -4.5
v 3.5 0 -5.5
v 4.5 0 -5.5
v 5.5 0 -5.5
v 6.5 0 -5.5
v 5.5 0 -6.5
v 6.5 0 -6.5
v 7.5 0 -6.5
v 4.5 0 -7.5
v 6.5 0 -7.5
v -6.5 1 7.5
v -3.5 1 7.5
v -7.5 1 6.5
v -6.5 1 6.5
v -3.5 1 6.5
v -2.5 1 6.5
v -2.5 1 5.5
v -1.5 1 5.5
v -1.5 1 4.5
v -0.5 1 4.5
v -7.5 1 3.5
v -6.5 1 3.5
v -3.5 1 3.5
v -1.5 1 3.5
v -0.5 1 3.5
v -6.5 1 2.5
v -5.5 1 2.5
v -2.5 1 2.5
v -1.5 1 2.5
v -0.5 1 2.5
v -5.5 1 1.5
v -4.5 1 1.5
v -3.5 1 1.5
v -2.5 1 1.5
v -1.5 1 1.5
v -0.5 1 1.5
v 0.5 1 1.5
v -4.5 1 0.5
v -3.5 1 0.5
v -2.5 1 0.5
v -1.5 1 0.5
v -0.5 1 0.5
v 0.5 1 0.5
v 1.5 1 0.5
v -1.5 1 -0.5
v -0.5 1 -0.5
v 0.5 1 -0.5
v 1.5 1 -0.5
v 2.5 1 -0.5
v -0.5 1 -1.5
v 0.5 1 -1.5
v 1.5 1 -1.5
v 2.5 1 -1.5
v 3.5 1 -1.5
v 0.5 1 -2.5
v 1.5 1 -2.5
v 2.5 1 -2.5
v 3.5 1 -2.5
v 4.5 1 -2.5
v 1.5 1 -3.5
v 2.5 1 -3.5
v 3.5 1 -3.5
v 4.5 1 -3.5
v 5.5 1 -3.5
v 2.5 1 -4.5
v 3.5 1 -4.5
v 4.5 1 -4.5
v 5.5 1 -4.5
v 7.5 1 -4.5
v 3.5 1 -5.5
v 4.5 1 -5.5
v 5.5 1 -5.5
v 6.5 1 -5.5
v 5.5 1 -6.5
v 6.5 1 -6.5
v 7.5 1 -6.5
v 4.5 1 -7.5
v 6.5 1 -7.5

# faces
f 3/2/1 2/2/1 1/2/1
f 4/2/1 2/2/1 3/2/1
f 9/2/1 6/2/1 5/2/1
f 10/2/1 6/2/1 9/2/1
f 11/2/1 8/2/1 7/2/1
f 12/2/1 8/2/1 11/2/1
f 15/2/1 14/2/1 13/2/1
f 16/2/1 14/2/1 15/2/1
f 19/2/1 18/2/1 17/2/1
f 20/2/1 18/2/1 19/2/1
f 23/3/1 22/3/1 21/3/1
f 24/3/1 22/3/1 23/3/1
f 27/3/1 26/3/1 25/3/1
f 28/3/1 26/3/1 27/3/1
f 31/3/1 30/3/1 29/3/1
f 32/3/1 30/3/1 31/3/1
f 35/3/1 34/3/1 33/3/1
f 36/3/1 34/3/1 35/3/1
f 39/3/1 38/3/1 37/3/1
f 40/3/1 38/3/1 39/3/1
f 43/3/1 42/3/1 41/3/1
f 44/3/1 42/3/1 43/3/1
f 47/3/1 46/3/1 45/3/1
f 48/3/1 46/3/1 47/3/1
f 51/3/1 50/3/1 49/3/1
f 52/3/1 50/3/1 51/3/1
f 53/2/2 54/2/2 57/2/2
f 57/2/2 54/2/2 58/2/2
f 55/2/2 56/2/2 59/2/2
f 59/2/2 56/2/2 60/2/2
f 61/2/2 62/2/2 63/2/2
f 63/2/2 62/2/2 64/2/2
f 65/2/2 66/2/2 69/2/2
f 69/2/2 66/2/2 70/2/2
f 67/3/2 68/3/2 71/3/2
f 71/3/2 68/3/2 72/3/2
f 73/2/2 74/2/2 77/2/2
f 77/2/2 74/2/2 78/2/2
f 75/3/2 76/3/2 79/3/2
f 79/3/2 76/3/2 80/3/2
f 81/3/2 82/3/2 83/3/2
f 83/3/2 82/3/2 84/3/2
f 85/3/2 86/3/2 87/3/2
f 87/3/2 86/3/2 88/3/2
f 89/3/2 90/3/2 91/3/2
f 91/3/2 90/3/2 92/3/2
f 93/3/2 94/3/2 95/3/2
f 95/3/2 94/3/2 96/3/2
f 97/3/2 98/3/2 99/3/2
f 99/3/2 98/3/2 100/3/2
f 101/3/2 102/3/2 103/3/2
f 103/3/2 102/3/2 104/3/2
f 105/3/2 106/3/2 107/3/2
f 107/3/2 106/3/2 108/3/2
f 109/3/2 110/3/2 111/3/2
f 111/3/2 110/3/2 112/3/2
f 115/2/3 114/2/3 113/2/3
f 116/2/3 114/2/3 115/2/3
f 119/2/3 118/2/3 117/2/3
f 120/2/3 118/2/3 119/2/3
f 123/2/3 122/2/3 121/2/3
f 124/2/3 122/2/3 123/2/3
f 127/2/3 126/2/3 125/2/3
f 128/2/3 126/2/3 127/2/3
f 131/2/3 130/2/3 129/2/3
f 132/2/3 130/2/3 131/2/3
f 135/3/3 134/3/3 133/3/3
f 136/3/3 134/3/3 135/3/3
f 139/3/3 138/3/3 137/3/3
f 140/3/3 138/3/3 139/3/3
f 143/3/3 142/3/3 141/3/3
f 144/3/3 142/3/3 143/3/3
f 147/3/3 146/3/3 145/3/3
f 148/3/3 146/3/3 147/3/3
f 151/3/3 150/3/3 149/3/3
f 152/3/3 150/3/3 151/3/3
f 155/3/3 154/3/3 153/3/3
f 156/3/3 154/3/3 155/3/3
f 159/3/3 158/3/3 157/3/3
f 160/3/3 158/3/3 159/3/3
f 163/3/3 162/3/3 161/3/3
f 164/3/3 162/3/3 163/3/3
f 165/2/4 166/2/4 167/2/4
f 167/2/4 166/2/4 168/2/4
f 169/2/4 170/2/4 171/2/4
f 171/2/4 170/2/4 172/2/4
f 173/2/4 174/2/4 175/2/4
f 175/2/4 174/2/4 176/2/4
f 177/2/4 178/2/4 179/2/4
f 179/2/4 178/2/4 180/2/4
f 181/3/4 182/3/4 183/3/4
f 183/3/4 182/3/4 184/3/4
f 185/2/4 186/2/4 187/2/4
f 187/2/4 186/2/4 188/2/4
f 189/3/4 190/3/4 191/3/4
f 191/3/4 190/3/4 192/3/4
f 193/3/4 194/3/4 195/3/4
f 195/3/4 194/3/4 196/3/4
f 197/3/4 198/3/4 199/3/4
f 199/3/4 198/3/4 200/3/4
f 201/3/4 202/3/4 203/3/4
f 203/3/4 202/3/4 204/3/4
f 205/3/4 206/3/4 207/3/4
f 207/3/4 206/3/4 208/3/4
f 209/3/4 210/3/4 211/3/4
f 211/3/4 210/3/4 212/3/4
f 213/3/4 214/3/4 215/3/4
f 215/3/4 214/3/4 216/3/4
f 217/3/4 218/3/4 219/3/4
f 219/3/4 218/3/4 220/3/4
f 221/3/4 222/3/4 223/3/4
f 223/3/4 222/3/4 224/3/4
f 228/2/5 226/2/5 225/2/5
f 229/2/5 226/2/5 228/2/5
f 231/2/5 228/2/5 227/2/5
f 231/2/5 230/2/5 229/2/5
f 231/2/5 229/2/5 228/2/5
f 233/2/5 232/2/5 231/2/5
f 235/2/5 231/2/5 227/2/5
f 235/2/5 234/2/5 233/2/5
f 235/2/5 233/2/5 231/2/5
f 236/2/5 234/2/5 235/2/5
f 237/2/5 234/2/5 236/2/5
f 238/2/5 234/2/5 237/2/5
f 239/2/5 234/2/5 238/2/5
f 240/2/5 237/2/5 236/2/5
f 241/2/5 237/2/5 240/2/5
f 242/3/5 238/3/5 237/3/5
f 243/3/5 238/3/5 242/3/5
f 245/2/5 237/2/5 241/2/5
f 246/2/5 237/2/5 245/2/5
f 247/3/5 242/3/5 237/3/5
f 247/2/5 237/2/5 246/2/5
f 248/1/5 243/1/5 242/1/5
f 248/3/5 242/3/5 247/3/5
f 249/3/5 244/3/5 243/3/5
f 249/1/5 243/1/5 248/1/5
f 250/3/5 244/3/5 249/3/5
f 252/2/5 247/2/5 246/2/5
f 253/2/5 247/2/5 252/2/5
f 254/3/5 249/3/5 248/3/5
f 255/1/5 250/1/5 249/1/5
f 255/3/5 249/3/5 254/3/5
f 256/3/5 251/3/5 250/3/5
f 256/1/5 250/1/5 255/1/5
f 257/3/5 251/3/5 256/3/5
f 259/3/5 256/3/5 255/3/5
f 260/1/5 257/1/5 256/1/5
f 260/3/5 256/3/5 259/3/5
f 261/3/5 258/3/5 257/3/5
f 261/1/5 257/1/5 260/1/5
f 262/3/5 258/3/5 261/3/5
f 264/3/5 261/3/5 260/3/5
f 265/1/5 262/1/5 261/1/5
f 265/3/5 261/3/5 264/3/5
f 266/3/5 263/3/5 262/3/5
f 266/1/5 262/1/5 265/1/5
f 267/3/5 263/3/5 266/3/5
f 269/3/5 266/3/5 265/3/5
f 270/1/5 267/1/5 266/1/5
f 270/3/5 266/3/5 269/3/5
f 271/3/5 268/3/5 267/3/5
f 271/1/5 267/1/5 270/1/5
f 272/3/5 268/3/5 271/3/5
f 274/3/5 271/3/5 270/3/5
f 275/1/5 272/1/5 271/1/5
f 275/3/5 271/3/5 274/3/5
f 276/3/5 273/3/5 272/3/5
f 276/1/5 272/1/5 275/1/5
f 277/3/5 273/3/5 276/3/5
f 279/3/5 276/3/5 275/3/5
f 280/1/5 277/1/5 276/1/5
f 280/3/5 276/3/5 279/3/5
f 281/3/5 278/3/5 277/3/5
f 281/1/5 277/1/5 280/1/5
f 282/3/5 278/3/5 281/3/5
f 284/3/5 281/3/5 280/3/5
f 285/1/5 282/1/5 281/1/5
f 285/3/5 281/3/5 284/3/5
f 286/3/5 283/3/5 282/3/5
f 286/1/5 282/1/5 285/1/5
f 287/3/5 283/3/5 286/3/5
f 288/3/5 286/3/5 285/3/5
f 288/1/5 287/1/5 286/1/5
f 289/3/5 283/3/5 287/3/5
f 289/1/5 287/1/5 288/1/5
f 290/3/5 283/3/5 289/3/5
f 291/3/5 288/3/5 285/3/5
f 291/3/5 289/3/5 288/3/5
f 292/3/5 289/3/5 291/3/5
f 293/2/6 294/2/6 296/2/6
f 296/2/6 294/2/6 297/2/6
f 295/2/6 296/2/6 299/2/6
f 297/2/6 298/2/6 299/2/6
f 296/2/6 297/2/6 299/2/6
f 299/2/6 300/2/6 301/2/6
f 295/2/6 299/2/6 303/2/6
f 301/2/6 302/2/6 303/2/6
f 299/2/6 301/2/6 303/2/6
f 303/2/6 302/2/6 304/2/6
f 304/2/6 302/2/6 305/2/6
f 305/2/6 302/2/6 306/2/6
f 306/2/6 302/2/6 307/2/6
f 304/2/6 305/2/6 308/2/6
f 308/2/6 305/2/6 309/2/6
f 305/3/6 306/3/6 310/3/6
f 310/3/6 306/3/6 311/3/6
f 309/2/6 305/2/6 313/2/6
f 313/2/6 305/2/6 314/2/6
f 305/3/6 310/3/6 315/3/6
f 314/2/6 305/2/6 315/2/6
f 310/1/6 311/1/6 316/1/6
f 315/3/6 310/3/6 316/3/6
f 311/3/6 312/3/6 317/3/6
f 316/1/6 311/1/6 317/1/6
f 317/3/6 312/3/6 318/3/6
f 314/2/6 315/2/6 320/2/6
f 320/2/6 315/2/6 321/2/6
f 316/3/6 317/3/6 322/3/6
f 317/1/6 318/1/6 323/1/6
f 322/3/6 317/3/6 323/3/6
f 318/3/6 319/3/6 324/3/6
f 323/1/6 318/1/6 324/1/6
f 324/3/6 319/3/6 325/3/6
f 323/3/6 324/3/6 327/3/6
f 324/1/6 325/1/6 328/1/6
f 327/3/6 324/3/6 328/3/6
f 325/3/6 326/3/6 329/3/6
f 328/1/6 325/1/6 329/1/6
f 329/3/6 326/3/6 330/3/6
f 328/3/6 329/3/6 332/3/6
f 329/1/6 330/1/6 333/1/6
f 332/3/6 329/3/6 333/3/6
f 330/3/6 331/3/6 334/3/6
f 333/1/6 330/1/6 334/1/6
f 334/3/6 331/3/6 335/3/6
f 333/3/6 334/3/6 337/3/6
f 334/1/6 335/1/6 338/1/6
f 337/3/6 334/3/6 338/3/6
f 335/3/6 336/3/6 339/3/6
f 338/1/6 335/1/6 339/1/6
f 339/3/6 336/3/6 340/3/6
f 338/3/6 339/3/6 342/3/6
f 339/1/6 340/1/6 343/1/6
f 342/3/6 339/3/6 343/3/6
f 340/3/6 341/3/6 344/3/6
f 343/1/6 340/1/6 344/1/6
f 344/3/6 341/3/6 345/3/6
f 343/3/6 344/3/6 347/3/6
f 344/1/6 345/1/6 348/1/6
f 347/3/6 344/3/6 348/3/6
f 345/3/6 346/3/6 349/3/6
f 348/1/6 345/1/6 349/1/6
f 349/3/6 346/3/6 350/3/6
f 348/3/6 349/3/6 352/3/6
f 349/1/6 350/1/6 353/1/6
f 352/3/6 349/3/6 353/3/6
f 350/3/6 351/3/6 354/3/6
f 353/1/6 350/1/6 354/1/6
f 354/3/6 351/3/6 355/3/6
f 353/3/6 354/3/6 356/3/6
f 354/1/6 355/1/6 356/1/6
f 355/3/6 351/3/6 357/3/6
f 356/1/6 355/1/6 357/1/6
f 357/3/6 351/3/6 358/3/6
f 353/3/6 356/3/6 359/3/6
f 356/3/6 357/3/6 359/3/6
f 359/3/6 357/3/6 360/3/6
