# MagicaVoxel @ Ephtracy

# material
mtllib DeadTree.mtl
usemtl palette

# normals
vn -1 0 0
vn 1 0 0
vn 0 0 1
vn 0 0 -1
vn 0 -1 0
vn 0 1 0

# texcoords
vt 0.396484 0.5
vt 0.533203 0.5
vt 0.537109 0.5

# verts
v -4 7 -1
v -4 7 -2
v -4 8 -0
v -4 8 -1
v -4 9 -1
v -4 9 -2
v -4 10 -0
v -4 10 -1
v -3 0 1
v -3 0 -0
v -3 1 1
v -3 1 -0
v -3 9 3
v -3 9 2
v -3 10 3
v -3 10 2
v -2 0 2
v -2 0 1
v -2 0 -0
v -2 0 -2
v -2 1 2
v -2 1 1
v -2 1 -0
v -2 1 -2
v -2 7 -2
v -2 7 -3
v -2 8 3
v -2 8 2
v -2 8 -2
v -2 8 -3
v -2 9 3
v -2 9 2
v -2 9 -3
v -2 9 -4
v -2 11 -3
v -2 11 -4
v -1 0 3
v -1 0 2
v -1 1 3
v -1 1 2
v -1 1 1
v -1 1 -0
v -1 1 -1
v -1 2 -0
v -1 2 -1
v -1 3 -0
v -1 3 -1
v -1 5 -0
v -1 5 -1
v -1 6 3
v -1 6 2
v -1 6 1
v -1 6 -1
v -1 6 -2
v -1 7 -1
v -1 7 -2
v -1 7 -3
v -1 7 -4
v -1 8 4
v -1 8 3
v -1 8 2
v -1 8 -0
v -1 8 -1
v -1 8 -2
v -1 8 -3
v -1 8 -4
v -1 8 -5
v -1 9 4
v -1 9 3
v -1 9 -0
v -1 9 -1
v -1 9 -2
v -1 9 -3
v -1 9 -4
v -1 9 -5
v 0 1 2
v 0 1 1
v 0 2 -0
v 0 2 -1
v 0 3 2
v 0 3 1
v 0 3 -0
v 0 3 -1
v 0 6 4
v 0 6 3
v 0 7 4
v 0 7 3
v 0 8 5
v 0 8 4
v 0 9 4
v 0 10 5
v 0 10 4
v 1 0 -2
v 1 0 -3
v 1 1 -2
v 1 1 -3
v 1 3 2
v 1 3 1
v 1 4 2
v 1 4 1
v 1 6 -2
v 1 6 -3
v 1 7 4
v 1 7 3
v 1 7 2
v 1 7 1
v 1 7 -2
v 1 7 -3
v 1 8 4
v 1 8 3
v 1 8 2
v 1 8 1
v 2 6 -3
v 2 6 -4
v 2 7 -2
v 2 7 -3
v 2 7 -4
v 2 7 -5
v 2 8 3
v 2 8 2
v 2 8 -2
v 2 8 -3
v 2 8 -4
v 2 8 -5
v 2 9 3
v 2 10 3
v 2 10 2
v 2 10 -3
v 2 10 -4
v 3 6 -0
v 3 6 -1
v 3 7 3
v 3 7 1
v 3 7 -0
v 3 7 -1
v 3 8 3
v 3 8 2
v 3 8 -0
v 3 9 -1
v 3 9 -2
v 3 10 -0
v 3 10 -1
v 3 11 -1
v 3 11 -2
v -3 8 -0
v -3 8 -1
v -3 8 -2
v -3 9 -1
v -3 9 -2
v -3 10 -0
v -3 10 -1
v -1 9 3
v -1 9 2
v -1 10 3
v -1 10 2
v -1 10 -3
v -1 10 -4
v -1 11 -3
v -1 11 -4
v 0 7 2
v 0 7 1
v 0 7 -0
v 0 7 -3
v 0 7 -4
v 0 8 2
v 0 8 -0
v 0 8 -1
v 0 8 -2
v 0 8 -3
v 0 8 -4
v 0 8 -5
v 0 9 -0
v 0 9 -1
v 0 9 -2
v 0 9 -3
v 0 9 -4
v 0 9 -5
v 0 10 -3
v 0 10 -4
v 1 2 1
v 1 2 -0
v 1 3 1
v 1 3 -0
v 1 6 4
v 1 6 3
v 1 6 2
v 1 7 4
v 1 7 3
v 1 7 2
v 1 7 -0
v 1 7 -2
v 1 7 -3
v 1 8 5
v 1 8 4
v 1 8 3
v 1 8 2
v 1 8 -0
v 1 8 -3
v 1 9 4
v 1 9 3
v 1 9 2
v 1 10 5
v 1 10 4
v 2 0 3
v 2 0 2
v 2 0 -2
v 2 0 -3
v 2 1 3
v 2 1 2
v 2 1 -1
v 2 1 -2
v 2 1 -3
v 2 2 1
v 2 2 -0
v 2 3 1
v 2 3 -0
v 2 4 2
v 2 4 1
v 2 5 1
v 2 5 -1
v 2 6 2
v 2 6 1
v 2 6 -0
v 2 6 -1
v 2 7 4
v 2 7 2
v 2 7 1
v 2 7 -0
v 2 7 -1
v 2 8 3
v 2 8 2
v 2 8 1
v 2 9 4
v 2 9 3
v 3 0 2
v 3 0 1
v 3 0 -0
v 3 0 -2
v 3 1 2
v 3 1 1
v 3 1 -0
v 3 1 -2
v 3 6 -1
v 3 6 -4
v 3 7 -1
v 3 7 -2
v 3 7 -4
v 3 7 -5
v 3 8 -2
v 3 8 -3
v 3 8 -4
v 3 8 -5
v 3 9 3
v 3 9 2
v 3 10 3
v 3 10 2
v 3 10 -3
v 3 10 -4
v 4 0 1
v 4 0 -0
v 4 1 1
v 4 1 -0
v 4 5 1
v 4 5 -1
v 4 7 3
v 4 7 1
v 4 7 -1
v 4 8 2
v 4 8 -0
v 4 9 3
v 4 9 2
v 4 9 -1
v 4 9 -2
v 4 10 -0
v 4 10 -1
v 4 11 -1
v 4 11 -2
v 0 8 5
v 0 10 5
v 1 8 5
v 1 10 5
v -1 8 4
v -1 9 4
v 0 6 4
v 0 7 4
v 0 8 4
v 0 9 4
v 1 6 4
v 1 7 4
v 1 8 4
v 1 9 4
v 2 7 4
v 2 9 4
v -3 9 3
v -3 10 3
v -2 8 3
v -2 9 3
v -1 0 3
v -1 1 3
v -1 6 3
v -1 8 3
v -1 9 3
v -1 10 3
v 0 0 3
v 0 1 3
v 0 6 3
v 0 7 3
v 0 8 3
v 1 7 3
v 1 8 3
v 2 0 3
v 2 1 3
v 2 8 3
v 2 9 3
v 2 10 3
v 3 7 3
v 3 8 3
v 3 9 3
v 3 10 3
v 4 7 3
v 4 9 3
v -2 0 2
v -2 1 2
v -1 0 2
v -1 1 2
v 0 1 2
v 0 3 2
v 1 3 2
v 1 4 2
v 1 6 2
v 1 7 2
v 2 0 2
v 2 1 2
v 2 4 2
v 2 6 2
v 2 7 2
v 3 0 2
v 3 1 2
v -3 0 1
v -3 1 1
v -2 0 1
v -2 1 1
v -1 1 1
v -1 6 1
v 0 1 1
v 0 3 1
v 1 3 1
v 1 4 1
v 2 4 1
v 2 5 1
v 2 6 1
v 2 7 1
v 3 0 1
v 3 1 1
v 3 5 1
v 3 7 1
v 4 0 1
v 4 1 1
v 4 5 1
v 4 7 1
v -4 8 -0
v -4 10 -0
v -3 8 -0
v -3 10 -0
v -1 8 -0
v -1 9 -0
v 0 7 -0
v 0 8 -0
v 0 9 -0
v 1 2 -0
v 1 3 -0
v 1 7 -0
v 1 8 -0
v 2 2 -0
v 2 3 -0
v 3 8 -0
v 3 10 -0
v 4 8 -0
v 4 10 -0
v -4 7 -1
v -4 8 -1
v -3 7 -1
v -3 8 -1
v -1 7 -1
v -1 8 -1
v 2 6 -1
v 2 7 -1
v 3 6 -1
v 3 7 -1
v 3 10 -1
v 3 11 -1
v 4 10 -1
v 4 11 -1
v -1 8 -2
v -1 9 -2
v 0 8 -2
v 0 9 -2
v 2 7 -2
v 2 8 -2
v 3 7 -2
v 3 8 -2
v -2 9 -3
v -2 11 -3
v -1 9 -3
v -1 10 -3
v -1 11 -3
v 0 9 -3
v 0 10 -3
v 2 8 -3
v 2 10 -3
v 3 8 -3
v 3 10 -3
v 0 9 4
v 0 10 4
v 1 9 4
v 1 10 4
v 1 8 3
v 1 9 3
v 2 8 3
v 2 9 3
v -3 9 2
v -3 10 2
v -2 8 2
v -2 9 2
v -1 8 2
v -1 9 2
v -1 10 2
v 0 7 2
v 0 8 2
v 1 7 2
v 1 8 2
v 1 9 2
v 2 8 2
v 2 10 2
v 3 8 2
v 3 9 2
v 3 10 2
v 4 8 2
v 4 9 2
v 1 2 1
v 1 3 1
v 1 7 1
v 1 8 1
v 2 2 1
v 2 3 1
v 2 7 1
v 2 8 1
v -3 0 -0
v -3 1 -0
v -2 0 -0
v -2 1 -0
v -1 2 -0
v -1 3 -0
v 0 2 -0
v 0 3 -0
v 2 6 -0
v 2 7 -0
v 3 0 -0
v 3 1 -0
v 3 6 -0
v 3 7 -0
v 4 0 -0
v 4 1 -0
v -4 9 -1
v -4 10 -1
v -3 9 -1
v -3 10 -1
v -1 1 -1
v -1 2 -1
v -1 3 -1
v -1 5 -1
v -1 6 -1
v -1 8 -1
v -1 9 -1
v 0 2 -1
v 0 3 -1
v 0 8 -1
v 0 9 -1
v 1 3 -1
v 1 5 -1
v 1 6 -1
v 2 1 -1
v 2 5 -1
v 2 6 -1
v 3 5 -1
v 3 6 -1
v 3 7 -1
v 3 9 -1
v 4 5 -1
v 4 7 -1
v 4 9 -1
v -4 7 -2
v -4 9 -2
v -3 7 -2
v -3 8 -2
v -3 9 -2
v -2 0 -2
v -2 1 -2
v -2 7 -2
v -2 8 -2
v -1 0 -2
v -1 1 -2
v -1 6 -2
v -1 7 -2
v 1 0 -2
v 1 1 -2
v 1 6 -2
v 1 7 -2
v 2 0 -2
v 2 1 -2
v 3 0 -2
v 3 1 -2
v 3 9 -2
v 3 11 -2
v 4 9 -2
v 4 11 -2
v -2 7 -3
v -2 8 -3
v -1 7 -3
v -1 8 -3
v 0 7 -3
v 0 8 -3
v 1 0 -3
v 1 1 -3
v 1 6 -3
v 1 7 -3
v 1 8 -3
v 2 0 -3
v 2 1 -3
v 2 6 -3
v 2 7 -3
v -2 9 -4
v -2 11 -4
v -1 7 -4
v -1 8 -4
v -1 9 -4
v -1 10 -4
v -1 11 -4
v 0 7 -4
v 0 8 -4
v 0 9 -4
v 0 10 -4
v 2 6 -4
v 2 7 -4
v 2 8 -4
v 2 10 -4
v 3 6 -4
v 3 7 -4
v 3 8 -4
v 3 10 -4
v -1 8 -5
v -1 9 -5
v 0 8 -5
v 0 9 -5
v 2 7 -5
v 2 8 -5
v 3 7 -5
v 3 8 -5
v -1 0 3
v 0 0 3
v 2 0 3
v -2 0 2
v -1 0 2
v 0 0 2
v 2 0 2
v 3 0 2
v -3 0 1
v -2 0 1
v 3 0 1
v 4 0 1
v -3 0 -0
v -2 0 -0
v -1 0 -0
v 3 0 -0
v 4 0 -0
v -2 0 -2
v -1 0 -2
v 1 0 -2
v 2 0 -2
v 3 0 -2
v 1 0 -3
v 2 0 -3
v 1 3 1
v 2 3 1
v -1 3 -0
v 0 3 -0
v 1 3 -0
v 2 3 -0
v -1 3 -1
v 0 3 -1
v 2 5 1
v 3 5 1
v 4 5 1
v 2 5 -1
v 3 5 -1
v 4 5 -1
v 0 6 4
v 1 6 4
v -1 6 3
v 0 6 3
v 1 6 3
v -1 6 2
v 0 6 2
v 1 6 2
v 2 6 2
v -1 6 1
v 2 6 1
v -1 6 -1
v 1 6 -1
v 2 6 -1
v 3 6 -1
v -1 6 -2
v 1 6 -2
v 2 6 -2
v 1 6 -3
v 2 6 -3
v 2 6 -4
v 3 6 -4
v 1 7 4
v 2 7 4
v 1 7 3
v 3 7 3
v 4 7 3
v 1 7 2
v 2 7 2
v 3 7 1
v 4 7 1
v -4 7 -1
v -3 7 -1
v -1 7 -1
v -4 7 -2
v -3 7 -2
v -2 7 -2
v -1 7 -2
v 1 7 -2
v -2 7 -3
v -1 7 -3
v 0 7 -3
v 1 7 -3
v -1 7 -4
v 0 7 -4
v 2 7 -4
v 3 7 -4
v 2 7 -5
v 3 7 -5
v 0 8 5
v 1 8 5
v -1 8 4
v 0 8 4
v 1 8 4
v -2 8 3
v -1 8 3
v 0 8 3
v 1 8 3
v 2 8 3
v 3 8 3
v -2 8 2
v -1 8 2
v 2 8 2
v 3 8 2
v -4 8 -0
v -3 8 -0
v -4 8 -1
v -3 8 -1
v -1 8 -4
v 0 8 -4
v -1 8 -5
v 0 8 -5
v -3 9 3
v -2 9 3
v -3 9 2
v -2 9 2
v 3 9 -1
v 4 9 -1
v 3 9 -2
v 4 9 -2
v -2 9 -3
v -1 9 -3
v -2 9 -4
v -1 9 -4
v -1 1 3
v 0 1 3
v 2 1 3
v -2 1 2
v -1 1 2
v 0 1 2
v 2 1 2
v 3 1 2
v -3 1 1
v -2 1 1
v -1 1 1
v 0 1 1
v 3 1 1
v 4 1 1
v -3 1 -0
v -2 1 -0
v -1 1 -0
v 3 1 -0
v 4 1 -0
v -1 1 -1
v 2 1 -1
v -2 1 -2
v -1 1 -2
v 1 1 -2
v 2 1 -2
v 3 1 -2
v 1 1 -3
v 2 1 -3
v 1 2 1
v 2 2 1
v -1 2 -0
v 0 2 -0
v 1 2 -0
v 2 2 -0
v -1 2 -1
v 0 2 -1
v 0 3 2
v 1 3 2
v 0 3 1
v 1 3 1
v 1 4 2
v 2 4 2
v 1 4 1
v 2 4 1
v 2 6 -0
v 3 6 -0
v 2 6 -1
v 3 6 -1
v 0 7 4
v 1 7 4
v 0 7 3
v 1 7 3
v 0 7 2
v 1 7 2
v 0 7 1
v 1 7 1
v 2 7 1
v 3 7 1
v 0 7 -0
v 1 7 -0
v 2 7 -0
v 3 7 -0
v 2 7 -1
v 3 7 -1
v 1 7 -2
v 2 7 -2
v 3 7 -2
v 1 7 -3
v 2 7 -3
v 1 8 3
v 2 8 3
v -1 8 2
v 0 8 2
v 1 8 2
v 2 8 2
v 3 8 2
v 4 8 2
v 1 8 1
v 2 8 1
v -1 8 -0
v 0 8 -0
v 1 8 -0
v 3 8 -0
v 4 8 -0
v -3 8 -1
v -1 8 -1
v 0 8 -1
v -3 8 -2
v -2 8 -2
v -1 8 -2
v 0 8 -2
v 2 8 -2
v 3 8 -2
v -2 8 -3
v -1 8 -3
v 0 8 -3
v 1 8 -3
v 2 8 -3
v 3 8 -3
v 2 8 -4
v 3 8 -4
v 2 8 -5
v 3 8 -5
v -1 9 4
v 0 9 4
v 1 9 4
v 2 9 4
v -1 9 3
v 1 9 3
v 2 9 3
v 3 9 3
v 4 9 3
v -1 9 2
v 1 9 2
v 3 9 2
v 4 9 2
v -1 9 -0
v 0 9 -0
v -4 9 -1
v -3 9 -1
v -1 9 -1
v 0 9 -1
v -4 9 -2
v -3 9 -2
v -1 9 -2
v 0 9 -2
v -1 9 -3
v 0 9 -3
v -1 9 -4
v 0 9 -4
v -1 9 -5
v 0 9 -5
v 0 10 5
v 1 10 5
v 0 10 4
v 1 10 4
v -3 10 3
v -1 10 3
v 2 10 3
v 3 10 3
v -3 10 2
v -1 10 2
v 2 10 2
v 3 10 2
v -4 10 -0
v -3 10 -0
v 3 10 -0
v 4 10 -0
v -4 10 -1
v -3 10 -1
v 3 10 -1
v 4 10 -1
v -1 10 -3
v 0 10 -3
v 2 10 -3
v 3 10 -3
v -1 10 -4
v 0 10 -4
v 2 10 -4
v 3 10 -4
v 3 11 -1
v 4 11 -1
v 3 11 -2
v 4 11 -2
v -2 11 -3
v -1 11 -3
v -2 11 -4
v -1 11 -4

# faces
f 4/2/1 2/2/1 1/2/1
f 5/2/1 2/2/1 4/2/1
f 5/2/1 4/2/1 3/2/1
f 6/2/1 2/2/1 5/2/1
f 7/2/1 5/2/1 3/2/1
f 8/2/1 5/2/1 7/2/1
f 11/2/1 10/2/1 9/2/1
f 12/2/1 10/2/1 11/2/1
f 15/3/1 14/3/1 13/3/1
f 16/3/1 14/3/1 15/3/1
f 21/2/1 18/2/1 17/2/1
f 22/2/1 18/2/1 21/2/1
f 23/3/1 20/3/1 19/3/1
f 24/3/1 20/3/1 23/3/1
f 29/3/1 26/3/1 25/3/1
f 30/3/1 26/3/1 29/3/1
f 31/3/1 28/3/1 27/3/1
f 32/3/1 28/3/1 31/3/1
f 35/3/1 34/3/1 33/3/1
f 36/3/1 34/3/1 35/3/1
f 39/2/1 38/2/1 37/2/1
f 40/2/1 38/2/1 39/2/1
f 44/3/1 43/3/1 42/3/1
f 44/3/1 42/3/1 41/3/1
f 45/3/1 43/3/1 44/3/1
f 46/3/1 44/3/1 41/3/1
f 48/3/1 46/3/1 41/3/1
f 48/2/1 47/2/1 46/2/1
f 49/2/1 47/2/1 48/2/1
f 52/3/1 48/3/1 41/3/1
f 52/3/1 49/3/1 48/3/1
f 53/3/1 49/3/1 52/3/1
f 55/3/1 53/3/1 52/3/1
f 55/3/1 54/3/1 53/3/1
f 55/3/1 52/3/1 51/3/1
f 56/3/1 54/3/1 55/3/1
f 60/2/1 51/2/1 50/2/1
f 61/3/1 55/3/1 51/3/1
f 61/2/1 51/2/1 60/2/1
f 62/3/1 55/3/1 61/3/1
f 63/3/1 55/3/1 62/3/1
f 65/3/1 58/3/1 57/3/1
f 66/3/1 58/3/1 65/3/1
f 68/3/1 60/3/1 59/3/1
f 69/3/1 60/3/1 68/3/1
f 70/3/1 63/3/1 62/3/1
f 71/3/1 63/3/1 70/3/1
f 72/3/1 67/3/1 66/3/1
f 72/3/1 66/3/1 65/3/1
f 72/3/1 65/3/1 64/3/1
f 73/3/1 67/3/1 72/3/1
f 74/3/1 67/3/1 73/3/1
f 75/3/1 67/3/1 74/3/1
f 80/3/1 77/3/1 76/3/1
f 81/3/1 77/3/1 80/3/1
f 82/3/1 79/3/1 78/3/1
f 83/3/1 79/3/1 82/3/1
f 86/2/1 85/2/1 84/2/1
f 87/2/1 85/2/1 86/2/1
f 90/3/1 89/3/1 88/3/1
f 91/3/1 90/3/1 88/3/1
f 92/3/1 90/3/1 91/3/1
f 95/3/1 94/3/1 93/3/1
f 96/3/1 94/3/1 95/3/1
f 99/3/1 98/3/1 97/3/1
f 100/3/1 98/3/1 99/3/1
f 107/3/1 102/3/1 101/3/1
f 108/3/1 102/3/1 107/3/1
f 109/3/1 104/3/1 103/3/1
f 110/3/1 104/3/1 109/3/1
f 111/3/1 106/3/1 105/3/1
f 112/3/1 106/3/1 111/3/1
f 116/3/1 114/3/1 113/3/1
f 117/3/1 114/3/1 116/3/1
f 121/3/1 116/3/1 115/3/1
f 121/3/1 117/3/1 116/3/1
f 121/3/1 118/3/1 117/3/1
f 122/3/1 118/3/1 121/3/1
f 123/3/1 118/3/1 122/3/1
f 124/3/1 118/3/1 123/3/1
f 125/3/1 120/3/1 119/3/1
f 126/3/1 120/3/1 125/3/1
f 127/3/1 120/3/1 126/3/1
f 128/3/1 123/3/1 122/3/1
f 129/3/1 123/3/1 128/3/1
f 134/2/1 131/2/1 130/2/1
f 135/2/1 131/2/1 134/2/1
f 136/3/1 133/3/1 132/3/1
f 136/3/1 134/3/1 133/3/1
f 136/3/1 135/3/1 134/3/1
f 137/3/1 135/3/1 136/3/1
f 138/3/1 135/3/1 137/3/1
f 139/3/1 135/3/1 138/3/1
f 141/3/1 139/3/1 138/3/1
f 141/3/1 140/3/1 139/3/1
f 142/3/1 140/3/1 141/3/1
f 143/3/1 140/3/1 142/3/1
f 144/3/1 140/3/1 143/3/1
f 145/2/2 146/2/2 148/2/2
f 146/2/2 147/2/2 148/2/2
f 148/2/2 147/2/2 149/2/2
f 145/2/2 148/2/2 150/2/2
f 150/2/2 148/2/2 151/2/2
f 152/3/2 153/3/2 154/3/2
f 154/3/2 153/3/2 155/3/2
f 156/3/2 157/3/2 158/3/2
f 158/3/2 157/3/2 159/3/2
f 160/3/2 161/3/2 165/3/2
f 161/3/2 162/3/2 165/3/2
f 165/3/2 162/3/2 166/3/2
f 163/3/2 164/3/2 169/3/2
f 169/3/2 164/3/2 170/3/2
f 166/3/2 167/3/2 172/3/2
f 172/3/2 167/3/2 173/3/2
f 170/3/2 171/3/2 174/3/2
f 169/3/2 170/3/2 174/3/2
f 168/3/2 169/3/2 174/3/2
f 174/3/2 171/3/2 175/3/2
f 175/3/2 171/3/2 176/3/2
f 176/3/2 171/3/2 177/3/2
f 175/3/2 176/3/2 178/3/2
f 178/3/2 176/3/2 179/3/2
f 180/2/2 181/2/2 182/2/2
f 182/2/2 181/2/2 183/2/2
f 184/2/2 185/2/2 187/2/2
f 185/3/2 186/3/2 188/3/2
f 187/2/2 185/2/2 188/2/2
f 188/3/2 186/3/2 189/3/2
f 191/3/2 192/3/2 197/3/2
f 190/3/2 191/3/2 197/3/2
f 197/3/2 192/3/2 198/3/2
f 193/3/2 194/3/2 199/3/2
f 195/3/2 196/3/2 200/3/2
f 200/3/2 196/3/2 201/3/2
f 193/3/2 199/3/2 202/3/2
f 202/3/2 199/3/2 203/3/2
f 204/3/2 205/3/2 208/3/2
f 208/3/2 205/3/2 209/3/2
f 206/3/2 207/3/2 211/3/2
f 211/3/2 207/3/2 212/3/2
f 209/3/2 210/3/2 213/3/2
f 213/3/2 210/3/2 214/3/2
f 209/3/2 213/3/2 215/3/2
f 214/3/2 210/3/2 216/3/2
f 209/3/2 215/3/2 217/3/2
f 215/3/2 216/3/2 217/3/2
f 217/3/2 216/3/2 218/3/2
f 218/3/2 216/3/2 219/3/2
f 216/3/2 210/3/2 220/3/2
f 219/3/2 216/3/2 220/3/2
f 221/3/2 222/3/2 226/3/2
f 226/3/2 222/3/2 227/3/2
f 223/2/2 224/2/2 228/2/2
f 228/2/2 224/2/2 229/2/2
f 226/3/2 227/3/2 230/3/2
f 225/3/2 226/3/2 230/3/2
f 230/3/2 227/3/2 231/3/2
f 231/3/2 227/3/2 232/3/2
f 225/3/2 230/3/2 233/3/2
f 233/3/2 230/3/2 234/3/2
f 235/2/2 236/2/2 239/2/2
f 239/2/2 236/2/2 240/2/2
f 237/2/2 238/2/2 241/2/2
f 241/2/2 238/2/2 242/2/2
f 243/3/2 244/3/2 245/3/2
f 245/3/2 244/3/2 246/3/2
f 246/3/2 244/3/2 247/3/2
f 247/3/2 248/3/2 249/3/2
f 246/3/2 247/3/2 249/3/2
f 249/3/2 248/3/2 250/3/2
f 250/3/2 248/3/2 251/3/2
f 251/3/2 248/3/2 252/3/2
f 253/3/2 254/3/2 255/3/2
f 255/3/2 254/3/2 256/3/2
f 250/3/2 251/3/2 257/3/2
f 257/3/2 251/3/2 258/3/2
f 259/3/2 260/3/2 261/3/2
f 261/3/2 260/3/2 262/3/2
f 263/2/2 264/2/2 266/2/2
f 266/2/2 264/2/2 267/2/2
f 265/3/2 266/3/2 268/3/2
f 266/3/2 267/3/2 268/3/2
f 268/3/2 267/3/2 269/3/2
f 265/3/2 268/3/2 270/3/2
f 270/3/2 268/3/2 271/3/2
f 269/3/2 267/3/2 272/3/2
f 269/3/2 272/3/2 274/3/2
f 272/3/2 273/3/2 274/3/2
f 274/3/2 273/3/2 275/3/2
f 275/3/2 273/3/2 276/3/2
f 276/3/2 273/3/2 277/3/2
f 280/3/3 279/3/3 278/3/3
f 281/3/3 279/3/3 280/3/3
f 286/3/3 283/3/3 282/3/3
f 287/3/3 283/3/3 286/3/3
f 288/2/3 285/2/3 284/2/3
f 289/2/3 285/2/3 288/2/3
f 292/3/3 291/3/3 290/3/3
f 292/3/3 290/3/3 289/3/3
f 293/3/3 291/3/3 292/3/3
f 297/3/3 295/3/3 294/3/3
f 301/3/3 297/3/3 296/3/3
f 302/3/3 295/3/3 297/3/3
f 302/3/3 297/3/3 301/3/3
f 303/3/3 295/3/3 302/3/3
f 304/2/3 299/2/3 298/2/3
f 305/2/3 299/2/3 304/2/3
f 306/2/3 301/2/3 300/2/3
f 307/2/3 301/2/3 306/2/3
f 308/2/3 301/2/3 307/2/3
f 309/3/3 308/3/3 307/3/3
f 310/3/3 308/3/3 309/3/3
f 311/3/3 305/3/3 304/3/3
f 312/3/3 305/3/3 311/3/3
f 317/3/3 315/3/3 314/3/3
f 317/3/3 314/3/3 313/3/3
f 318/3/3 315/3/3 317/3/3
f 319/3/3 315/3/3 318/3/3
f 320/3/3 317/3/3 316/3/3
f 320/3/3 318/3/3 317/3/3
f 321/3/3 318/3/3 320/3/3
f 324/2/3 323/2/3 322/2/3
f 325/2/3 323/2/3 324/2/3
f 328/3/3 327/3/3 326/3/3
f 333/3/3 328/3/3 326/3/3
f 333/3/3 329/3/3 328/3/3
f 334/3/3 329/3/3 333/3/3
f 335/3/3 331/3/3 330/3/3
f 336/3/3 331/3/3 335/3/3
f 337/2/3 333/2/3 332/2/3
f 338/2/3 333/2/3 337/2/3
f 341/2/3 340/2/3 339/2/3
f 342/2/3 340/2/3 341/2/3
f 345/3/3 344/3/3 343/3/3
f 346/3/3 344/3/3 345/3/3
f 347/3/3 344/3/3 346/3/3
f 348/3/3 344/3/3 347/3/3
f 349/3/3 344/3/3 348/3/3
f 350/3/3 344/3/3 349/3/3
f 351/3/3 344/3/3 350/3/3
f 355/3/3 352/3/3 351/3/3
f 355/3/3 351/3/3 350/3/3
f 356/3/3 352/3/3 355/3/3
f 357/3/3 354/3/3 353/3/3
f 358/3/3 354/3/3 357/3/3
f 359/2/3 356/2/3 355/2/3
f 360/2/3 356/2/3 359/2/3
f 363/2/3 362/2/3 361/2/3
f 364/2/3 362/2/3 363/2/3
f 368/3/3 366/3/3 365/3/3
f 369/3/3 366/3/3 368/3/3
f 372/3/3 368/3/3 367/3/3
f 373/3/3 368/3/3 372/3/3
f 374/3/3 371/3/3 370/3/3
f 375/3/3 371/3/3 374/3/3
f 378/3/3 377/3/3 376/3/3
f 379/3/3 377/3/3 378/3/3
f 382/2/3 381/2/3 380/2/3
f 383/2/3 381/2/3 382/2/3
f 384/3/3 383/3/3 382/3/3
f 385/3/3 383/3/3 384/3/3
f 388/3/3 387/3/3 386/3/3
f 389/3/3 387/3/3 388/3/3
f 392/3/3 391/3/3 390/3/3
f 393/3/3 391/3/3 392/3/3
f 396/3/3 395/3/3 394/3/3
f 397/3/3 395/3/3 396/3/3
f 400/3/3 399/3/3 398/3/3
f 401/3/3 399/3/3 400/3/3
f 404/3/3 403/3/3 402/3/3
f 405/3/3 403/3/3 404/3/3
f 406/3/3 403/3/3 405/3/3
f 407/3/3 405/3/3 404/3/3
f 408/3/3 405/3/3 407/3/3
f 411/3/3 410/3/3 409/3/3
f 412/3/3 410/3/3 411/3/3
f 413/3/4 414/3/4 415/3/4
f 415/3/4 414/3/4 416/3/4
f 417/3/4 418/3/4 419/3/4
f 419/3/4 418/3/4 420/3/4
f 421/3/4 422/3/4 424/3/4
f 423/3/4 424/3/4 425/3/4
f 424/3/4 422/3/4 426/3/4
f 425/3/4 424/3/4 426/3/4
f 426/3/4 422/3/4 427/3/4
f 425/3/4 426/3/4 429/3/4
f 428/3/4 429/3/4 430/3/4
f 429/3/4 426/3/4 431/3/4
f 430/3/4 429/3/4 431/3/4
f 431/3/4 426/3/4 432/3/4
f 433/3/4 434/3/4 435/3/4
f 435/3/4 434/3/4 436/3/4
f 436/3/4 434/3/4 437/3/4
f 435/3/4 436/3/4 438/3/4
f 438/3/4 436/3/4 439/3/4
f 440/3/4 441/3/4 444/3/4
f 444/3/4 441/3/4 445/3/4
f 442/3/4 443/3/4 446/3/4
f 446/3/4 443/3/4 447/3/4
f 448/2/4 449/2/4 450/2/4
f 450/2/4 449/2/4 451/2/4
f 452/3/4 453/3/4 454/3/4
f 454/3/4 453/3/4 455/3/4
f 456/3/4 457/3/4 460/3/4
f 460/3/4 457/3/4 461/3/4
f 458/3/4 459/3/4 462/3/4
f 462/3/4 459/3/4 463/3/4
f 464/2/4 465/2/4 466/2/4
f 466/2/4 465/2/4 467/2/4
f 468/3/4 469/3/4 475/3/4
f 470/2/4 471/2/4 476/2/4
f 473/3/4 474/3/4 477/3/4
f 477/3/4 474/3/4 478/3/4
f 475/3/4 476/3/4 479/3/4
f 476/2/4 471/2/4 479/2/4
f 471/3/4 472/3/4 480/3/4
f 479/2/4 471/2/4 480/2/4
f 480/3/4 472/3/4 481/3/4
f 468/3/4 475/3/4 482/3/4
f 475/3/4 479/3/4 482/3/4
f 480/3/4 481/3/4 482/3/4
f 479/3/4 480/3/4 482/3/4
f 482/3/4 481/3/4 483/3/4
f 483/3/4 481/3/4 484/3/4
f 483/3/4 484/3/4 485/3/4
f 485/3/4 484/3/4 486/3/4
f 485/2/4 486/2/4 489/2/4
f 486/2/4 487/2/4 489/2/4
f 487/3/4 488/3/4 490/3/4
f 489/2/4 487/2/4 490/2/4
f 490/3/4 488/3/4 491/3/4
f 492/2/4 493/2/4 494/2/4
f 494/2/4 493/2/4 495/2/4
f 495/2/4 493/2/4 496/2/4
f 494/3/4 495/3/4 499/3/4
f 499/3/4 495/3/4 500/3/4
f 497/3/4 498/3/4 501/3/4
f 501/3/4 498/3/4 502/3/4
f 501/2/4 502/2/4 505/2/4
f 505/2/4 502/2/4 506/2/4
f 503/3/4 504/3/4 507/3/4
f 507/3/4 504/3/4 508/3/4
f 509/2/4 510/2/4 511/2/4
f 511/2/4 510/2/4 512/2/4
f 513/3/4 514/3/4 515/3/4
f 515/3/4 514/3/4 516/3/4
f 517/3/4 518/3/4 519/3/4
f 519/3/4 518/3/4 520/3/4
f 521/3/4 522/3/4 526/3/4
f 526/3/4 522/3/4 527/3/4
f 523/3/4 524/3/4 528/3/4
f 528/3/4 524/3/4 529/3/4
f 525/3/4 526/3/4 530/3/4
f 530/3/4 526/3/4 531/3/4
f 532/3/4 533/3/4 536/3/4
f 536/3/4 533/3/4 537/3/4
f 537/3/4 533/3/4 538/3/4
f 534/3/4 535/3/4 539/3/4
f 539/3/4 535/3/4 540/3/4
f 536/3/4 537/3/4 541/3/4
f 541/3/4 537/3/4 542/3/4
f 543/3/4 544/3/4 547/3/4
f 547/3/4 544/3/4 548/3/4
f 545/3/4 546/3/4 549/3/4
f 549/3/4 546/3/4 550/3/4
f 551/3/4 552/3/4 553/3/4
f 553/3/4 552/3/4 554/3/4
f 555/3/4 556/3/4 557/3/4
f 557/3/4 556/3/4 558/3/4
f 563/2/5 560/2/5 559/2/5
f 564/3/5 561/3/5 560/3/5
f 564/2/5 560/2/5 563/2/5
f 565/3/5 561/3/5 564/3/5
f 568/2/5 563/2/5 562/2/5
f 568/2/5 566/2/5 565/2/5
f 568/2/5 565/2/5 564/2/5
f 568/2/5 564/2/5 563/2/5
f 569/2/5 566/2/5 568/2/5
f 571/2/5 568/2/5 567/2/5
f 571/2/5 569/2/5 568/2/5
f 572/2/5 569/2/5 571/2/5
f 573/2/5 569/2/5 572/2/5
f 574/3/5 570/3/5 569/3/5
f 574/2/5 569/2/5 573/2/5
f 575/3/5 570/3/5 574/3/5
f 576/3/5 573/3/5 572/3/5
f 577/2/5 574/2/5 573/2/5
f 577/3/5 573/3/5 576/3/5
f 578/2/5 574/2/5 577/2/5
f 579/2/5 574/2/5 578/2/5
f 580/2/5 574/2/5 579/2/5
f 581/3/5 579/3/5 578/3/5
f 582/3/5 579/3/5 581/3/5
f 587/3/5 584/3/5 583/3/5
f 588/3/5 584/3/5 587/3/5
f 589/2/5 586/2/5 585/2/5
f 590/2/5 586/2/5 589/2/5
f 594/3/5 592/3/5 591/3/5
f 595/2/5 593/2/5 592/2/5
f 595/3/5 592/3/5 594/3/5
f 596/2/5 593/2/5 595/2/5
f 600/2/5 598/2/5 597/2/5
f 601/2/5 598/2/5 600/2/5
f 602/2/5 600/2/5 599/2/5
f 603/3/5 601/3/5 600/3/5
f 603/2/5 600/2/5 602/2/5
f 604/3/5 601/3/5 603/3/5
f 606/3/5 604/3/5 603/3/5
f 606/3/5 605/3/5 604/3/5
f 606/3/5 603/3/5 602/3/5
f 607/3/5 605/3/5 606/3/5
f 612/3/5 609/3/5 608/3/5
f 613/2/5 610/2/5 609/2/5
f 613/3/5 609/3/5 612/3/5
f 614/3/5 611/3/5 610/3/5
f 614/2/5 610/2/5 613/2/5
f 615/3/5 614/3/5 613/3/5
f 616/3/5 611/3/5 614/3/5
f 616/3/5 614/3/5 615/3/5
f 617/3/5 611/3/5 616/3/5
f 618/3/5 611/3/5 617/3/5
f 621/3/5 620/3/5 619/3/5
f 624/3/5 620/3/5 621/3/5
f 625/3/5 620/3/5 624/3/5
f 626/3/5 623/3/5 622/3/5
f 627/3/5 623/3/5 626/3/5
f 631/2/5 629/2/5 628/2/5
f 632/3/5 630/3/5 629/3/5
f 632/2/5 629/2/5 631/2/5
f 633/3/5 630/3/5 632/3/5
f 634/3/5 630/3/5 633/3/5
f 636/3/5 635/3/5 634/3/5
f 636/3/5 634/3/5 633/3/5
f 637/3/5 635/3/5 636/3/5
f 638/3/5 635/3/5 637/3/5
f 639/3/5 635/3/5 638/3/5
f 640/3/5 638/3/5 637/3/5
f 641/3/5 638/3/5 640/3/5
f 644/3/5 643/3/5 642/3/5
f 645/3/5 643/3/5 644/3/5
f 649/3/5 647/3/5 646/3/5
f 650/3/5 647/3/5 649/3/5
f 652/3/5 649/3/5 648/3/5
f 652/3/5 650/3/5 649/3/5
f 653/3/5 650/3/5 652/3/5
f 654/3/5 650/3/5 653/3/5
f 657/3/5 652/3/5 651/3/5
f 658/3/5 652/3/5 657/3/5
f 659/3/5 656/3/5 655/3/5
f 660/3/5 656/3/5 659/3/5
f 663/2/5 662/2/5 661/2/5
f 664/2/5 662/2/5 663/2/5
f 667/3/5 666/3/5 665/3/5
f 668/3/5 666/3/5 667/3/5
f 671/3/5 670/3/5 669/3/5
f 672/3/5 670/3/5 671/3/5
f 675/3/5 674/3/5 673/3/5
f 676/3/5 674/3/5 675/3/5
f 679/3/5 678/3/5 677/3/5
f 680/3/5 678/3/5 679/3/5
f 681/2/6 682/2/6 685/2/6
f 682/3/6 683/3/6 686/3/6
f 685/2/6 682/2/6 686/2/6
f 686/3/6 683/3/6 687/3/6
f 684/2/6 685/2/6 690/2/6
f 685/2/6 686/2/6 690/2/6
f 690/2/6 686/2/6 691/2/6
f 691/2/6 686/2/6 692/2/6
f 687/2/6 688/2/6 693/2/6
f 689/2/6 690/2/6 695/2/6
f 690/2/6 691/2/6 695/2/6
f 695/2/6 691/2/6 696/2/6
f 696/2/6 691/2/6 697/2/6
f 693/3/6 694/3/6 698/3/6
f 687/2/6 693/2/6 698/2/6
f 698/3/6 694/3/6 699/3/6
f 696/3/6 697/3/6 700/3/6
f 687/2/6 698/2/6 701/2/6
f 696/3/6 700/3/6 702/3/6
f 700/2/6 701/2/6 703/2/6
f 702/3/6 700/3/6 703/3/6
f 703/2/6 701/2/6 704/2/6
f 701/2/6 698/2/6 705/2/6
f 704/2/6 701/2/6 705/2/6
f 705/2/6 698/2/6 706/2/6
f 704/3/6 705/3/6 707/3/6
f 707/3/6 705/3/6 708/3/6
f 709/3/6 710/3/6 713/3/6
f 713/3/6 710/3/6 714/3/6
f 711/3/6 712/3/6 715/3/6
f 715/3/6 712/3/6 716/3/6
f 717/3/6 718/3/6 719/3/6
f 719/3/6 718/3/6 720/3/6
f 721/3/6 722/3/6 723/3/6
f 723/3/6 722/3/6 724/3/6
f 725/3/6 726/3/6 727/3/6
f 727/3/6 726/3/6 728/3/6
f 729/2/6 730/2/6 731/2/6
f 731/2/6 730/2/6 732/2/6
f 733/3/6 734/3/6 735/3/6
f 735/3/6 734/3/6 736/3/6
f 735/2/6 736/2/6 739/2/6
f 736/2/6 737/2/6 739/2/6
f 739/2/6 737/2/6 740/2/6
f 737/3/6 738/3/6 741/3/6
f 740/2/6 737/2/6 741/2/6
f 741/3/6 738/3/6 742/3/6
f 740/2/6 741/2/6 743/2/6
f 740/2/6 743/2/6 745/2/6
f 743/3/6 744/3/6 746/3/6
f 745/2/6 743/2/6 746/2/6
f 746/3/6 744/3/6 747/3/6
f 745/3/6 746/3/6 748/3/6
f 748/3/6 746/3/6 749/3/6
f 750/3/6 751/3/6 754/3/6
f 754/3/6 751/3/6 755/3/6
f 754/3/6 755/3/6 758/3/6
f 758/3/6 755/3/6 759/3/6
f 752/3/6 753/3/6 760/3/6
f 760/3/6 753/3/6 761/3/6
f 756/3/6 757/3/6 763/3/6
f 763/3/6 757/3/6 764/3/6
f 761/3/6 762/3/6 767/3/6
f 765/3/6 766/3/6 768/3/6
f 766/3/6 767/3/6 768/3/6
f 768/3/6 767/3/6 769/3/6
f 769/3/6 767/3/6 770/3/6
f 767/3/6 762/3/6 771/3/6
f 770/3/6 767/3/6 771/3/6
f 769/3/6 770/3/6 774/3/6
f 774/3/6 770/3/6 775/3/6
f 771/3/6 762/3/6 776/3/6
f 776/3/6 762/3/6 777/3/6
f 772/3/6 773/3/6 778/3/6
f 778/3/6 773/3/6 779/3/6
f 780/3/6 781/3/6 782/3/6
f 782/3/6 781/3/6 783/3/6
f 784/3/6 785/3/6 788/3/6
f 786/3/6 787/3/6 788/3/6
f 785/3/6 786/3/6 788/3/6
f 788/3/6 787/3/6 789/3/6
f 789/3/6 787/3/6 790/3/6
f 788/3/6 789/3/6 793/3/6
f 793/3/6 789/3/6 794/3/6
f 791/3/6 792/3/6 795/3/6
f 795/3/6 792/3/6 796/3/6
f 797/3/6 798/3/6 801/3/6
f 801/3/6 798/3/6 802/3/6
f 799/2/6 800/2/6 803/2/6
f 803/2/6 800/2/6 804/2/6
f 805/3/6 806/3/6 807/3/6
f 807/3/6 806/3/6 808/3/6
f 809/3/6 810/3/6 811/3/6
f 811/3/6 810/3/6 812/3/6
f 813/3/6 814/3/6 815/3/6
f 815/3/6 814/3/6 816/3/6
f 817/3/6 818/3/6 821/3/6
f 821/3/6 818/3/6 822/3/6
f 819/3/6 820/3/6 823/3/6
f 823/3/6 820/3/6 824/3/6
f 825/2/6 826/2/6 829/2/6
f 829/2/6 826/2/6 830/2/6
f 827/3/6 828/3/6 831/3/6
f 831/3/6 828/3/6 832/3/6
f 833/3/6 834/3/6 837/3/6
f 837/3/6 834/3/6 838/3/6
f 835/3/6 836/3/6 839/3/6
f 839/3/6 836/3/6 840/3/6
f 841/3/6 842/3/6 843/3/6
f 843/3/6 842/3/6 844/3/6
f 845/3/6 846/3/6 847/3/6
f 847/3/6 846/3/6 848/3/6
