# MagicaVoxel @ Ephtracy

# material
mtllib Fox.mtl
usemtl palette

# normals
vn -1 0 0
vn 1 0 0
vn 0 0 1
vn 0 0 -1
vn 0 -1 0
vn 0 1 0

# texcoords
vt 0.0332031 0.5
vt 0.0605469 0.5
vt 0.0917969 0.5
vt 0.935547 0.5
vt 0.970703 0.5
vt 0.994141 0.5

# verts
v -16.5 8 0.5
v -16.5 8 -1.5
v -16.5 10 0.5
v -16.5 10 -1.5
v -15.5 7 1.5
v -15.5 7 -2.5
v -15.5 8 1.5
v -15.5 8 0.5
v -15.5 8 -1.5
v -15.5 8 -2.5
v -15.5 10 1.5
v -15.5 10 0.5
v -15.5 10 -1.5
v -15.5 10 -2.5
v -12.5 6 5.5
v -12.5 6 -5.5
v -12.5 7 1.5
v -12.5 7 -2.5
v -12.5 8 5.5
v -12.5 8 1.5
v -12.5 8 -2.5
v -12.5 8 -5.5
v -12.5 10 4.5
v -12.5 10 3.5
v -12.5 10 1.5
v -12.5 10 0.5
v -12.5 10 -0.5
v -12.5 10 -1.5
v -12.5 10 -2.5
v -12.5 10 -3.5
v -12.5 10 -4.5
v -12.5 12 3.5
v -12.5 12 1.5
v -12.5 12 -1.5
v -12.5 12 -3.5
v -12.5 14 4.5
v -12.5 14 0.5
v -12.5 14 -0.5
v -12.5 14 -4.5
v -12.5 15 5.5
v -12.5 15 -5.5
v -10.5 0 3.5
v -10.5 0 1.5
v -10.5 0 -1.5
v -10.5 0 -3.5
v -10.5 1 3.5
v -10.5 1 1.5
v -10.5 1 -1.5
v -10.5 1 -3.5
v -10.5 4 4.5
v -10.5 4 1.5
v -10.5 4 -1.5
v -10.5 4 -4.5
v -10.5 6 4.5
v -10.5 6 1.5
v -10.5 6 -1.5
v -10.5 6 -4.5
v -10.5 7 -3.5
v -10.5 7 -4.5
v -10.5 8 -3.5
v -10.5 8 -4.5
v -10.5 10 -3.5
v -10.5 10 -4.5
v -9.5 1 3.5
v -9.5 1 1.5
v -9.5 1 -1.5
v -9.5 1 -3.5
v -9.5 2 3.5
v -9.5 2 1.5
v -9.5 2 -1.5
v -9.5 2 -3.5
v -9.5 4 3.5
v -9.5 4 1.5
v -9.5 4 -1.5
v -9.5 4 -3.5
v -9.5 13 6.5
v -9.5 13 5.5
v -9.5 13 -5.5
v -9.5 13 -6.5
v -9.5 15 5.5
v -9.5 15 3.5
v -9.5 15 2.5
v -9.5 15 -2.5
v -9.5 15 -3.5
v -9.5 15 -5.5
v -9.5 16 6.5
v -9.5 16 5.5
v -9.5 16 3.5
v -9.5 16 2.5
v -9.5 16 -2.5
v -9.5 16 -3.5
v -9.5 16 -5.5
v -9.5 16 -6.5
v -9.5 18 6.5
v -9.5 18 5.5
v -9.5 18 3.5
v -9.5 18 2.5
v -9.5 18 -2.5
v -9.5 18 -3.5
v -9.5 18 -5.5
v -9.5 18 -6.5
v -9.5 19 5.5
v -9.5 19 3.5
v -9.5 19 -3.5
v -9.5 19 -5.5
v -8.5 13 -3.5
v -8.5 13 -4.5
v -8.5 15 -3.5
v -8.5 15 -4.5
v -8.5 17 5.5
v -8.5 17 3.5
v -8.5 17 -3.5
v -8.5 17 -5.5
v -8.5 18 5.5
v -8.5 18 3.5
v -8.5 18 -3.5
v -8.5 18 -5.5
v -7.5 15 5.5
v -7.5 15 3.5
v -7.5 15 -3.5
v -7.5 15 -5.5
v -7.5 16 5.5
v -7.5 16 3.5
v -7.5 16 -3.5
v -7.5 16 -5.5
v -7.5 17 5.5
v -7.5 17 3.5
v -7.5 17 -3.5
v -7.5 17 -5.5
v -6.5 10 -3.5
v -6.5 10 -4.5
v -6.5 13 -3.5
v -6.5 13 -4.5
v 3.5 0 3.5
v 3.5 0 1.5
v 3.5 0 -1.5
v 3.5 0 -3.5
v 3.5 1 3.5
v 3.5 1 1.5
v 3.5 1 -1.5
v 3.5 1 -3.5
v 4.5 1 3.5
v 4.5 1 1.5
v 4.5 1 -1.5
v 4.5 1 -3.5
v 4.5 2 3.5
v 4.5 2 1.5
v 4.5 2 -1.5
v 4.5 2 -3.5
v 4.5 4 3.5
v 4.5 4 1.5
v 4.5 4 -1.5
v 4.5 4 -3.5
v 9.5 5 1.5
v 9.5 5 -1.5
v 9.5 6 1.5
v 9.5 6 -1.5
v 14.5 8 1.5
v 14.5 8 -1.5
v 14.5 9 1.5
v 14.5 9 -1.5
v -11.5 7 -3.5
v -11.5 7 -4.5
v -11.5 8 -3.5
v -11.5 8 -4.5
v -11.5 10 -3.5
v -11.5 10 -4.5
v -11.5 14 -3.5
v -11.5 14 -4.5
v -11.5 15 -3.5
v -11.5 15 -4.5
v -8.5 0 3.5
v -8.5 0 1.5
v -8.5 0 -1.5
v -8.5 0 -3.5
v -8.5 2 3.5
v -8.5 2 1.5
v -8.5 2 -1.5
v -8.5 2 -3.5
v -8.5 4 3.5
v -8.5 4 1.5
v -8.5 4 -1.5
v -8.5 4 -3.5
v -7.5 17 6.5
v -7.5 17 5.5
v -7.5 17 3.5
v -7.5 17 2.5
v -7.5 17 -2.5
v -7.5 17 -3.5
v -7.5 17 -5.5
v -7.5 17 -6.5
v -7.5 18 6.5
v -7.5 18 5.5
v -7.5 18 3.5
v -7.5 18 2.5
v -7.5 18 -2.5
v -7.5 18 -3.5
v -7.5 18 -5.5
v -7.5 18 -6.5
v -6.5 13 6.5
v -6.5 13 5.5
v -6.5 13 -5.5
v -6.5 13 -6.5
v -6.5 15 5.5
v -6.5 15 2.5
v -6.5 15 -2.5
v -6.5 15 -5.5
v -6.5 16 6.5
v -6.5 16 2.5
v -6.5 16 -2.5
v -6.5 16 -6.5
v -6.5 17 6.5
v -6.5 17 5.5
v -6.5 17 3.5
v -6.5 17 2.5
v -6.5 17 -2.5
v -6.5 17 -3.5
v -6.5 17 -5.5
v -6.5 17 -6.5
v -6.5 19 5.5
v -6.5 19 3.5
v -6.5 19 -3.5
v -6.5 19 -5.5
v -5.5 6 5.5
v -5.5 6 4.5
v -5.5 6 -4.5
v -5.5 6 -5.5
v -5.5 10 4.5
v -5.5 10 -4.5
v -5.5 15 5.5
v -5.5 15 -5.5
v 5.5 0 3.5
v 5.5 0 1.5
v 5.5 0 -1.5
v 5.5 0 -3.5
v 5.5 2 3.5
v 5.5 2 1.5
v 5.5 2 -1.5
v 5.5 2 -3.5
v 5.5 4 3.5
v 5.5 4 1.5
v 5.5 4 -1.5
v 5.5 4 -3.5
v 7.5 4 4.5
v 7.5 4 -4.5
v 7.5 6 1.5
v 7.5 6 -1.5
v 7.5 8 1.5
v 7.5 8 -1.5
v 7.5 9 1.5
v 7.5 9 -1.5
v 7.5 10 4.5
v 7.5 10 -4.5
v 9.5 8 1.5
v 9.5 8 -1.5
v 9.5 9 1.5
v 9.5 9 -1.5
v 13.5 5 1.5
v 13.5 5 -1.5
v 13.5 6 1.5
v 13.5 6 -1.5
v 14.5 6 1.5
v 14.5 6 -1.5
v 14.5 7 1.5
v 14.5 7 -1.5
v 16.5 7 1.5
v 16.5 7 -1.5
v 16.5 8 1.5
v 16.5 8 -1.5
v 16.5 9 1.5
v 16.5 9 -1.5
v -9.5 13 6.5
v -9.5 16 6.5
v -9.5 18 6.5
v -7.5 17 6.5
v -7.5 18 6.5
v -6.5 13 6.5
v -6.5 16 6.5
v -6.5 17 6.5
v -12.5 6 5.5
v -12.5 8 5.5
v -12.5 15 5.5
v -9.5 13 5.5
v -9.5 15 5.5
v -9.5 18 5.5
v -9.5 19 5.5
v -8.5 6 5.5
v -8.5 8 5.5
v -7.5 17 5.5
v -7.5 18 5.5
v -6.5 13 5.5
v -6.5 15 5.5
v -6.5 17 5.5
v -6.5 19 5.5
v -5.5 6 5.5
v -5.5 15 5.5
v -10.5 4 4.5
v -10.5 6 4.5
v -8.5 6 4.5
v -5.5 6 4.5
v -5.5 10 4.5
v 7.5 4 4.5
v 7.5 10 4.5
v -10.5 0 3.5
v -10.5 1 3.5
v -9.5 1 3.5
v -9.5 2 3.5
v -9.5 4 3.5
v -9.5 15 3.5
v -9.5 16 3.5
v -9.5 18 3.5
v -8.5 0 3.5
v -8.5 2 3.5
v -8.5 4 3.5
v -8.5 17 3.5
v -8.5 18 3.5
v -7.5 15 3.5
v -7.5 16 3.5
v -7.5 17 3.5
v 3.5 0 3.5
v 3.5 1 3.5
v 4.5 1 3.5
v 4.5 2 3.5
v 4.5 4 3.5
v 5.5 0 3.5
v 5.5 2 3.5
v 5.5 4 3.5
v -15.5 7 1.5
v -15.5 8 1.5
v -15.5 10 1.5
v -12.5 7 1.5
v -12.5 8 1.5
v -12.5 10 1.5
v 7.5 6 1.5
v 7.5 8 1.5
v 7.5 9 1.5
v 9.5 5 1.5
v 9.5 6 1.5
v 9.5 7 1.5
v 9.5 8 1.5
v 9.5 9 1.5
v 13.5 5 1.5
v 13.5 6 1.5
v 14.5 6 1.5
v 14.5 7 1.5
v 14.5 8 1.5
v 14.5 9 1.5
v 16.5 7 1.5
v 16.5 8 1.5
v 16.5 9 1.5
v -16.5 8 0.5
v -16.5 10 0.5
v -15.5 8 0.5
v -15.5 10 0.5
v -10.5 0 -1.5
v -10.5 1 -1.5
v -9.5 1 -1.5
v -9.5 2 -1.5
v -9.5 4 -1.5
v -8.5 0 -1.5
v -8.5 2 -1.5
v -8.5 4 -1.5
v 3.5 0 -1.5
v 3.5 1 -1.5
v 4.5 1 -1.5
v 4.5 2 -1.5
v 4.5 4 -1.5
v 5.5 0 -1.5
v 5.5 2 -1.5
v 5.5 4 -1.5
v -9.5 15 -2.5
v -9.5 16 -2.5
v -9.5 18 -2.5
v -7.5 17 -2.5
v -7.5 18 -2.5
v -6.5 15 -2.5
v -6.5 16 -2.5
v -6.5 17 -2.5
v -9.5 18 -3.5
v -9.5 19 -3.5
v -7.5 17 -3.5
v -7.5 18 -3.5
v -6.5 17 -3.5
v -6.5 19 -3.5
v -11.5 7 -4.5
v -11.5 8 -4.5
v -11.5 10 -4.5
v -11.5 14 -4.5
v -11.5 15 -4.5
v -10.5 7 -4.5
v -10.5 8 -4.5
v -10.5 10 -4.5
v -8.5 13 -4.5
v -8.5 15 -4.5
v -6.5 10 -4.5
v -6.5 13 -4.5
v -9.5 15 -5.5
v -9.5 16 -5.5
v -9.5 18 -5.5
v -8.5 17 -5.5
v -8.5 18 -5.5
v -7.5 15 -5.5
v -7.5 16 -5.5
v -7.5 17 -5.5
v -9.5 15 5.5
v -9.5 16 5.5
v -9.5 18 5.5
v -8.5 17 5.5
v -8.5 18 5.5
v -7.5 15 5.5
v -7.5 16 5.5
v -7.5 17 5.5
v -9.5 18 3.5
v -9.5 19 3.5
v -7.5 17 3.5
v -7.5 18 3.5
v -6.5 17 3.5
v -6.5 19 3.5
v -9.5 15 2.5
v -9.5 16 2.5
v -9.5 18 2.5
v -7.5 17 2.5
v -7.5 18 2.5
v -6.5 15 2.5
v -6.5 16 2.5
v -6.5 17 2.5
v -10.5 0 1.5
v -10.5 1 1.5
v -9.5 1 1.5
v -9.5 2 1.5
v -9.5 4 1.5
v -8.5 0 1.5
v -8.5 2 1.5
v -8.5 4 1.5
v 3.5 0 1.5
v 3.5 1 1.5
v 4.5 1 1.5
v 4.5 2 1.5
v 4.5 4 1.5
v 5.5 0 1.5
v 5.5 2 1.5
v 5.5 4 1.5
v -16.5 8 -1.5
v -16.5 10 -1.5
v -15.5 8 -1.5
v -15.5 10 -1.5
v 7.5 6 -1.5
v 7.5 8 -1.5
v 7.5 9 -1.5
v 9.5 5 -1.5
v 9.5 6 -1.5
v 9.5 7 -1.5
v 9.5 8 -1.5
v 9.5 9 -1.5
v 13.5 5 -1.5
v 13.5 6 -1.5
v 14.5 6 -1.5
v 14.5 7 -1.5
v 14.5 8 -1.5
v 14.5 9 -1.5
v 16.5 7 -1.5
v 16.5 8 -1.5
v 16.5 9 -1.5
v -15.5 7 -2.5
v -15.5 8 -2.5
v -15.5 10 -2.5
v -12.5 7 -2.5
v -12.5 8 -2.5
v -12.5 10 -2.5
v -11.5 7 -3.5
v -11.5 8 -3.5
v -11.5 10 -3.5
v -11.5 14 -3.5
v -11.5 15 -3.5
v -10.5 0 -3.5
v -10.5 1 -3.5
v -10.5 7 -3.5
v -10.5 8 -3.5
v -10.5 10 -3.5
v -9.5 1 -3.5
v -9.5 2 -3.5
v -9.5 4 -3.5
v -9.5 15 -3.5
v -9.5 16 -3.5
v -9.5 18 -3.5
v -8.5 0 -3.5
v -8.5 2 -3.5
v -8.5 4 -3.5
v -8.5 13 -3.5
v -8.5 15 -3.5
v -8.5 17 -3.5
v -8.5 18 -3.5
v -7.5 15 -3.5
v -7.5 16 -3.5
v -7.5 17 -3.5
v -6.5 10 -3.5
v -6.5 13 -3.5
v 3.5 0 -3.5
v 3.5 1 -3.5
v 4.5 1 -3.5
v 4.5 2 -3.5
v 4.5 4 -3.5
v 5.5 0 -3.5
v 5.5 2 -3.5
v 5.5 4 -3.5
v -10.5 4 -4.5
v -10.5 6 -4.5
v -8.5 6 -4.5
v -5.5 6 -4.5
v -5.5 10 -4.5
v 7.5 4 -4.5
v 7.5 10 -4.5
v -12.5 6 -5.5
v -12.5 8 -5.5
v -12.5 15 -5.5
v -9.5 13 -5.5
v -9.5 15 -5.5
v -9.5 18 -5.5
v -9.5 19 -5.5
v -8.5 6 -5.5
v -8.5 8 -5.5
v -7.5 17 -5.5
v -7.5 18 -5.5
v -6.5 13 -5.5
v -6.5 15 -5.5
v -6.5 17 -5.5
v -6.5 19 -5.5
v -5.5 6 -5.5
v -5.5 15 -5.5
v -9.5 13 -6.5
v -9.5 16 -6.5
v -9.5 18 -6.5
v -7.5 17 -6.5
v -7.5 18 -6.5
v -6.5 13 -6.5
v -6.5 16 -6.5
v -6.5 17 -6.5
v -10.5 0 3.5
v -8.5 0 3.5
v 3.5 0 3.5
v 5.5 0 3.5
v -10.5 0 1.5
v -8.5 0 1.5
v 3.5 0 1.5
v 5.5 0 1.5
v -10.5 0 -1.5
v -8.5 0 -1.5
v 3.5 0 -1.5
v 5.5 0 -1.5
v -10.5 0 -3.5
v -8.5 0 -3.5
v 3.5 0 -3.5
v 5.5 0 -3.5
v -10.5 4 4.5
v 7.5 4 4.5
v -9.5 4 3.5
v -8.5 4 3.5
v 4.5 4 3.5
v 5.5 4 3.5
v -10.5 4 1.5
v -9.5 4 1.5
v -8.5 4 1.5
v 4.5 4 1.5
v 5.5 4 1.5
v -10.5 4 -1.5
v -9.5 4 -1.5
v -8.5 4 -1.5
v 4.5 4 -1.5
v 5.5 4 -1.5
v -9.5 4 -3.5
v -8.5 4 -3.5
v 4.5 4 -3.5
v 5.5 4 -3.5
v -10.5 4 -4.5
v 7.5 4 -4.5
v 9.5 5 1.5
v 13.5 5 1.5
v 9.5 5 -1.5
v 13.5 5 -1.5
v -12.5 6 5.5
v -8.5 6 5.5
v -5.5 6 5.5
v -10.5 6 4.5
v -8.5 6 4.5
v -5.5 6 4.5
v -10.5 6 1.5
v 7.5 6 1.5
v 9.5 6 1.5
v 13.5 6 1.5
v 14.5 6 1.5
v -10.5 6 -1.5
v 7.5 6 -1.5
v 9.5 6 -1.5
v 13.5 6 -1.5
v 14.5 6 -1.5
v -10.5 6 -4.5
v -8.5 6 -4.5
v -5.5 6 -4.5
v -12.5 6 -5.5
v -8.5 6 -5.5
v -5.5 6 -5.5
v -15.5 7 1.5
v -12.5 7 1.5
v 14.5 7 1.5
v 16.5 7 1.5
v 14.5 7 -1.5
v 16.5 7 -1.5
v -15.5 7 -2.5
v -12.5 7 -2.5
v -16.5 8 0.5
v -15.5 8 0.5
v -16.5 8 -1.5
v -15.5 8 -1.5
v -9.5 13 6.5
v -6.5 13 6.5
v -9.5 13 5.5
v -6.5 13 5.5
v -8.5 13 -3.5
v -6.5 13 -3.5
v -8.5 13 -4.5
v -6.5 13 -4.5
v -9.5 13 -5.5
v -6.5 13 -5.5
v -9.5 13 -6.5
v -6.5 13 -6.5
v -8.5 17 5.5
v -7.5 17 5.5
v -8.5 17 3.5
v -7.5 17 3.5
v -8.5 17 -3.5
v -7.5 17 -3.5
v -8.5 17 -5.5
v -7.5 17 -5.5
v -9.5 18 5.5
v -8.5 18 5.5
v -9.5 18 3.5
v -8.5 18 3.5
v -9.5 18 -3.5
v -8.5 18 -3.5
v -9.5 18 -5.5
v -8.5 18 -5.5
v -10.5 1 3.5
v -9.5 1 3.5
v 3.5 1 3.5
v 4.5 1 3.5
v -10.5 1 1.5
v -9.5 1 1.5
v 3.5 1 1.5
v 4.5 1 1.5
v -10.5 1 -1.5
v -9.5 1 -1.5
v 3.5 1 -1.5
v 4.5 1 -1.5
v -10.5 1 -3.5
v -9.5 1 -3.5
v 3.5 1 -3.5
v 4.5 1 -3.5
v -11.5 7 -3.5
v -10.5 7 -3.5
v -11.5 7 -4.5
v -10.5 7 -4.5
v 9.5 8 1.5
v 14.5 8 1.5
v 9.5 8 -1.5
v 14.5 8 -1.5
v 7.5 9 1.5
v 9.5 9 1.5
v 14.5 9 1.5
v 16.5 9 1.5
v 7.5 9 -1.5
v 9.5 9 -1.5
v 14.5 9 -1.5
v 16.5 9 -1.5
v -5.5 10 4.5
v 7.5 10 4.5
v -15.5 10 1.5
v -12.5 10 1.5
v -16.5 10 0.5
v -15.5 10 0.5
v -12.5 10 0.5
v -12.5 10 -0.5
v -16.5 10 -1.5
v -15.5 10 -1.5
v -12.5 10 -1.5
v -15.5 10 -2.5
v -12.5 10 -2.5
v -10.5 10 -3.5
v -6.5 10 -3.5
v -10.5 10 -4.5
v -6.5 10 -4.5
v -5.5 10 -4.5
v 7.5 10 -4.5
v -12.5 15 5.5
v -9.5 15 5.5
v -7.5 15 5.5
v -6.5 15 5.5
v -5.5 15 5.5
v -9.5 15 3.5
v -7.5 15 3.5
v -9.5 15 2.5
v -6.5 15 2.5
v -9.5 15 -2.5
v -6.5 15 -2.5
v -11.5 15 -3.5
v -9.5 15 -3.5
v -8.5 15 -3.5
v -7.5 15 -3.5
v -11.5 15 -4.5
v -8.5 15 -4.5
v -12.5 15 -5.5
v -9.5 15 -5.5
v -7.5 15 -5.5
v -6.5 15 -5.5
v -5.5 15 -5.5
v -7.5 17 6.5
v -6.5 17 6.5
v -7.5 17 5.5
v -6.5 17 5.5
v -7.5 17 3.5
v -6.5 17 3.5
v -7.5 17 2.5
v -6.5 17 2.5
v -7.5 17 -2.5
v -6.5 17 -2.5
v -7.5 17 -3.5
v -6.5 17 -3.5
v -7.5 17 -5.5
v -6.5 17 -5.5
v -7.5 17 -6.5
v -6.5 17 -6.5
v -9.5 18 6.5
v -7.5 18 6.5
v -9.5 18 5.5
v -7.5 18 5.5
v -9.5 18 3.5
v -7.5 18 3.5
v -9.5 18 2.5
v -7.5 18 2.5
v -9.5 18 -2.5
v -7.5 18 -2.5
v -9.5 18 -3.5
v -7.5 18 -3.5
v -9.5 18 -5.5
v -7.5 18 -5.5
v -9.5 18 -6.5
v -7.5 18 -6.5
v -9.5 19 5.5
v -6.5 19 5.5
v -9.5 19 3.5
v -6.5 19 3.5
v -9.5 19 -3.5
v -6.5 19 -3.5
v -9.5 19 -5.5
v -6.5 19 -5.5

# faces
f 3/6/1 2/6/1 1/6/1
f 4/6/1 2/6/1 3/6/1
f 7/1/1 6/1/1 5/1/1
f 8/1/1 6/1/1 7/1/1
f 9/1/1 6/1/1 8/1/1
f 10/1/1 6/1/1 9/1/1
f 11/3/1 8/3/1 7/3/1
f 12/3/1 8/3/1 11/3/1
f 13/3/1 10/3/1 9/3/1
f 14/3/1 10/3/1 13/3/1
f 17/1/1 16/1/1 15/1/1
f 18/1/1 16/1/1 17/1/1
f 19/1/1 17/1/1 15/1/1
f 20/1/1 17/1/1 19/1/1
f 21/1/1 16/1/1 18/1/1
f 22/1/1 16/1/1 21/1/1
f 23/3/1 20/3/1 19/3/1
f 24/3/1 20/3/1 23/3/1
f 25/3/1 20/3/1 24/3/1
f 29/3/1 22/3/1 21/3/1
f 30/3/1 22/3/1 29/3/1
f 31/3/1 22/3/1 30/3/1
f 32/5/1 24/5/1 23/5/1
f 32/4/1 25/4/1 24/4/1
f 33/5/1 26/5/1 25/5/1
f 33/4/1 25/4/1 32/4/1
f 34/5/1 28/5/1 27/5/1
f 34/4/1 29/4/1 28/4/1
f 34/4/1 30/4/1 29/4/1
f 35/5/1 31/5/1 30/5/1
f 35/4/1 30/4/1 34/4/1
f 36/3/1 23/3/1 19/3/1
f 36/5/1 32/5/1 23/5/1
f 36/5/1 33/5/1 32/5/1
f 37/5/1 26/5/1 33/5/1
f 37/5/1 33/5/1 36/5/1
f 37/3/1 27/3/1 26/3/1
f 38/5/1 34/5/1 27/5/1
f 38/3/1 27/3/1 37/3/1
f 38/5/1 35/5/1 34/5/1
f 39/5/1 31/5/1 35/5/1
f 39/5/1 35/5/1 38/5/1
f 39/3/1 22/3/1 31/3/1
f 40/3/1 36/3/1 19/3/1
f 40/3/1 38/3/1 37/3/1
f 40/3/1 39/3/1 38/3/1
f 40/3/1 37/3/1 36/3/1
f 41/3/1 22/3/1 39/3/1
f 41/3/1 39/3/1 40/3/1
f 46/6/1 43/6/1 42/6/1
f 47/6/1 43/6/1 46/6/1
f 48/6/1 45/6/1 44/6/1
f 49/6/1 45/6/1 48/6/1
f 54/3/1 51/3/1 50/3/1
f 55/1/1 52/1/1 51/1/1
f 55/3/1 51/3/1 54/3/1
f 56/3/1 53/3/1 52/3/1
f 56/1/1 52/1/1 55/1/1
f 57/3/1 53/3/1 56/3/1
f 60/3/1 59/3/1 58/3/1
f 61/3/1 59/3/1 60/3/1
f 62/3/1 61/3/1 60/3/1
f 63/3/1 61/3/1 62/3/1
f 68/6/1 65/6/1 64/6/1
f 69/6/1 65/6/1 68/6/1
f 70/6/1 67/6/1 66/6/1
f 71/6/1 67/6/1 70/6/1
f 72/3/1 69/3/1 68/3/1
f 73/3/1 69/3/1 72/3/1
f 74/3/1 71/3/1 70/3/1
f 75/3/1 71/3/1 74/3/1
f 80/3/1 77/3/1 76/3/1
f 85/3/1 79/3/1 78/3/1
f 86/3/1 80/3/1 76/3/1
f 87/3/1 80/3/1 86/3/1
f 88/3/1 82/3/1 81/3/1
f 89/3/1 82/3/1 88/3/1
f 90/3/1 84/3/1 83/3/1
f 91/3/1 84/3/1 90/3/1
f 92/3/1 79/3/1 85/3/1
f 93/3/1 79/3/1 92/3/1
f 94/6/1 87/6/1 86/6/1
f 95/6/1 87/6/1 94/6/1
f 96/6/1 89/6/1 88/6/1
f 97/6/1 89/6/1 96/6/1
f 98/6/1 91/6/1 90/6/1
f 99/6/1 91/6/1 98/6/1
f 100/6/1 93/6/1 92/6/1
f 101/6/1 93/6/1 100/6/1
f 102/6/1 96/6/1 95/6/1
f 103/6/1 96/6/1 102/6/1
f 104/6/1 100/6/1 99/6/1
f 105/6/1 100/6/1 104/6/1
f 108/3/1 107/3/1 106/3/1
f 109/3/1 107/3/1 108/3/1
f 114/6/1 111/6/1 110/6/1
f 115/6/1 111/6/1 114/6/1
f 116/6/1 113/6/1 112/6/1
f 117/6/1 113/6/1 116/6/1
f 122/3/1 119/3/1 118/3/1
f 123/3/1 119/3/1 122/3/1
f 124/3/1 121/3/1 120/3/1
f 125/3/1 121/3/1 124/3/1
f 126/6/1 123/6/1 122/6/1
f 127/6/1 123/6/1 126/6/1
f 128/6/1 125/6/1 124/6/1
f 129/6/1 125/6/1 128/6/1
f 132/3/1 131/3/1 130/3/1
f 133/3/1 131/3/1 132/3/1
f 138/6/1 135/6/1 134/6/1
f 139/6/1 135/6/1 138/6/1
f 140/6/1 137/6/1 136/6/1
f 141/6/1 137/6/1 140/6/1
f 146/6/1 143/6/1 142/6/1
f 147/6/1 143/6/1 146/6/1
f 148/6/1 145/6/1 144/6/1
f 149/6/1 145/6/1 148/6/1
f 150/3/1 147/3/1 146/3/1
f 151/3/1 147/3/1 150/3/1
f 152/3/1 149/3/1 148/3/1
f 153/3/1 149/3/1 152/3/1
f 156/1/1 155/1/1 154/1/1
f 157/1/1 155/1/1 156/1/1
f 160/3/1 159/3/1 158/3/1
f 161/3/1 159/3/1 160/3/1
f 162/1/2 163/1/2 164/1/2
f 164/1/2 163/1/2 165/1/2
f 164/3/2 165/3/2 166/3/2
f 166/3/2 165/3/2 167/3/2
f 166/5/2 167/5/2 168/5/2
f 168/5/2 167/5/2 169/5/2
f 168/3/2 169/3/2 170/3/2
f 170/3/2 169/3/2 171/3/2
f 172/6/2 173/6/2 176/6/2
f 176/6/2 173/6/2 177/6/2
f 174/6/2 175/6/2 178/6/2
f 178/6/2 175/6/2 179/6/2
f 176/3/2 177/3/2 180/3/2
f 180/3/2 177/3/2 181/3/2
f 178/3/2 179/3/2 182/3/2
f 182/3/2 179/3/2 183/3/2
f 184/6/2 185/6/2 192/6/2
f 192/6/2 185/6/2 193/6/2
f 186/6/2 187/6/2 194/6/2
f 194/6/2 187/6/2 195/6/2
f 188/6/2 189/6/2 196/6/2
f 196/6/2 189/6/2 197/6/2
f 190/6/2 191/6/2 198/6/2
f 198/6/2 191/6/2 199/6/2
f 200/3/2 201/3/2 204/3/2
f 202/3/2 203/3/2 207/3/2
f 204/3/2 205/3/2 208/3/2
f 200/3/2 204/3/2 208/3/2
f 208/3/2 205/3/2 209/3/2
f 206/3/2 207/3/2 210/3/2
f 207/3/2 203/3/2 211/3/2
f 210/3/2 207/3/2 211/3/2
f 208/6/2 209/6/2 212/6/2
f 212/6/2 209/6/2 213/6/2
f 213/6/2 209/6/2 214/6/2
f 214/6/2 209/6/2 215/6/2
f 210/6/2 211/6/2 216/6/2
f 216/6/2 211/6/2 217/6/2
f 217/6/2 211/6/2 218/6/2
f 218/6/2 211/6/2 219/6/2
f 213/6/2 214/6/2 220/6/2
f 220/6/2 214/6/2 221/6/2
f 217/6/2 218/6/2 222/6/2
f 222/6/2 218/6/2 223/6/2
f 224/3/2 225/3/2 228/3/2
f 226/3/2 227/3/2 229/3/2
f 224/3/2 228/3/2 230/3/2
f 228/3/2 229/3/2 230/3/2
f 229/3/2 227/3/2 231/3/2
f 230/3/2 229/3/2 231/3/2
f 232/6/2 233/6/2 236/6/2
f 236/6/2 233/6/2 237/6/2
f 234/6/2 235/6/2 238/6/2
f 238/6/2 235/6/2 239/6/2
f 236/3/2 237/3/2 240/3/2
f 240/3/2 237/3/2 241/3/2
f 238/3/2 239/3/2 242/3/2
f 242/3/2 239/3/2 243/3/2
f 244/3/2 245/3/2 246/3/2
f 246/3/2 245/3/2 247/3/2
f 244/3/2 246/3/2 248/3/2
f 247/3/2 245/3/2 249/3/2
f 244/3/2 248/3/2 250/3/2
f 249/3/2 245/3/2 251/3/2
f 244/3/2 250/3/2 252/3/2
f 250/3/2 251/3/2 252/3/2
f 251/3/2 245/3/2 253/3/2
f 252/3/2 251/3/2 253/3/2
f 254/3/2 255/3/2 256/3/2
f 256/3/2 255/3/2 257/3/2
f 258/1/2 259/1/2 260/1/2
f 260/1/2 259/1/2 261/1/2
f 262/1/2 263/1/2 264/1/2
f 264/1/2 263/1/2 265/1/2
f 266/1/2 267/1/2 268/1/2
f 268/1/2 267/1/2 269/1/2
f 268/3/2 269/3/2 270/3/2
f 270/3/2 269/3/2 271/3/2
f 275/6/3 274/6/3 273/6/3
f 276/6/3 274/6/3 275/6/3
f 277/3/3 273/3/3 272/3/3
f 278/6/3 275/6/3 273/6/3
f 278/3/3 273/3/3 277/3/3
f 279/6/3 275/6/3 278/6/3
f 283/3/3 282/3/3 281/3/3
f 284/3/3 282/3/3 283/3/3
f 287/1/3 281/1/3 280/1/3
f 288/3/3 283/3/3 281/3/3
f 288/1/3 281/1/3 287/1/3
f 290/6/3 286/6/3 285/6/3
f 291/3/3 283/3/3 288/3/3
f 291/3/3 288/3/3 287/3/3
f 293/6/3 290/6/3 289/6/3
f 294/6/3 286/6/3 290/6/3
f 294/6/3 290/6/3 293/6/3
f 295/3/3 292/3/3 291/3/3
f 295/3/3 291/3/3 287/3/3
f 296/3/3 292/3/3 295/3/3
f 299/3/3 298/3/3 297/3/3
f 300/3/3 299/3/3 297/3/3
f 302/3/3 300/3/3 297/3/3
f 302/3/3 301/3/3 300/3/3
f 303/3/3 301/3/3 302/3/3
f 306/6/3 305/6/3 304/6/3
f 312/6/3 306/6/3 304/6/3
f 312/6/3 307/6/3 306/6/3
f 313/3/3 308/3/3 307/3/3
f 313/6/3 307/6/3 312/6/3
f 314/3/3 308/3/3 313/3/3
f 315/6/3 311/6/3 310/6/3
f 316/6/3 311/6/3 315/6/3
f 317/3/3 310/3/3 309/3/3
f 318/6/3 315/6/3 310/6/3
f 318/3/3 310/3/3 317/3/3
f 319/6/3 315/6/3 318/6/3
f 322/6/3 321/6/3 320/6/3
f 325/6/3 322/6/3 320/6/3
f 325/6/3 323/6/3 322/6/3
f 326/3/3 324/3/3 323/3/3
f 326/6/3 323/6/3 325/6/3
f 327/3/3 324/3/3 326/3/3
f 331/1/3 329/1/3 328/1/3
f 332/3/3 330/3/3 329/3/3
f 332/1/3 329/1/3 331/1/3
f 333/3/3 330/3/3 332/3/3
f 338/1/3 335/1/3 334/1/3
f 339/1/3 335/1/3 338/1/3
f 340/3/3 336/3/3 335/3/3
f 340/1/3 335/1/3 339/1/3
f 341/3/3 336/3/3 340/3/3
f 342/1/3 339/1/3 338/1/3
f 342/1/3 338/1/3 337/1/3
f 343/1/3 339/1/3 342/1/3
f 344/1/3 339/1/3 343/1/3
f 345/3/3 340/3/3 339/3/3
f 345/1/3 339/1/3 344/1/3
f 346/3/3 340/3/3 345/3/3
f 348/1/3 346/1/3 345/1/3
f 349/3/3 347/3/3 346/3/3
f 349/1/3 346/1/3 348/1/3
f 350/3/3 347/3/3 349/3/3
f 353/6/3 352/6/3 351/6/3
f 354/6/3 352/6/3 353/6/3
f 357/6/3 356/6/3 355/6/3
f 360/6/3 357/6/3 355/6/3
f 360/6/3 358/6/3 357/6/3
f 361/3/3 359/3/3 358/3/3
f 361/6/3 358/6/3 360/6/3
f 362/3/3 359/3/3 361/3/3
f 365/6/3 364/6/3 363/6/3
f 368/6/3 365/6/3 363/6/3
f 368/6/3 366/6/3 365/6/3
f 369/3/3 367/3/3 366/3/3
f 369/6/3 366/6/3 368/6/3
f 370/3/3 367/3/3 369/3/3
f 374/6/3 373/6/3 372/6/3
f 375/6/3 373/6/3 374/6/3
f 376/3/3 372/3/3 371/3/3
f 377/6/3 374/6/3 372/6/3
f 377/3/3 372/3/3 376/3/3
f 378/6/3 374/6/3 377/6/3
f 382/6/3 380/6/3 379/6/3
f 383/6/3 382/6/3 381/6/3
f 384/6/3 380/6/3 382/6/3
f 384/6/3 382/6/3 383/6/3
f 390/1/3 386/1/3 385/1/3
f 391/3/3 389/3/3 388/3/3
f 391/1/3 386/1/3 390/1/3
f 391/3/3 387/3/3 386/3/3
f 391/3/3 388/3/3 387/3/3
f 392/3/3 389/3/3 391/3/3
f 393/3/3 389/3/3 392/3/3
f 394/3/3 389/3/3 393/3/3
f 395/3/3 393/3/3 392/3/3
f 396/3/3 393/3/3 395/3/3
f 400/6/3 399/6/3 398/6/3
f 401/6/3 399/6/3 400/6/3
f 402/3/3 398/3/3 397/3/3
f 403/6/3 400/6/3 398/6/3
f 403/3/3 398/3/3 402/3/3
f 404/6/3 400/6/3 403/6/3
f 406/6/4 407/6/4 408/6/4
f 408/6/4 407/6/4 409/6/4
f 405/3/4 406/3/4 410/3/4
f 406/6/4 408/6/4 411/6/4
f 410/3/4 406/3/4 411/3/4
f 411/6/4 408/6/4 412/6/4
f 413/6/4 414/6/4 416/6/4
f 415/6/4 416/6/4 417/6/4
f 416/6/4 414/6/4 418/6/4
f 417/6/4 416/6/4 418/6/4
f 420/6/4 421/6/4 422/6/4
f 422/6/4 421/6/4 423/6/4
f 419/3/4 420/3/4 424/3/4
f 420/6/4 422/6/4 425/6/4
f 424/3/4 420/3/4 425/3/4
f 425/6/4 422/6/4 426/6/4
f 427/6/4 428/6/4 429/6/4
f 427/6/4 429/6/4 432/6/4
f 429/6/4 430/6/4 432/6/4
f 430/3/4 431/3/4 433/3/4
f 432/6/4 430/6/4 433/6/4
f 433/3/4 431/3/4 434/3/4
f 435/6/4 436/6/4 437/6/4
f 435/6/4 437/6/4 440/6/4
f 437/6/4 438/6/4 440/6/4
f 438/3/4 439/3/4 441/3/4
f 440/6/4 438/6/4 441/6/4
f 441/3/4 439/3/4 442/3/4
f 443/6/4 444/6/4 445/6/4
f 445/6/4 444/6/4 446/6/4
f 447/1/4 448/1/4 451/1/4
f 451/1/4 448/1/4 452/1/4
f 448/3/4 449/3/4 453/3/4
f 452/1/4 448/1/4 453/1/4
f 453/3/4 449/3/4 454/3/4
f 451/1/4 452/1/4 455/1/4
f 450/1/4 451/1/4 455/1/4
f 455/1/4 452/1/4 456/1/4
f 456/1/4 452/1/4 457/1/4
f 452/3/4 453/3/4 458/3/4
f 457/1/4 452/1/4 458/1/4
f 458/3/4 453/3/4 459/3/4
f 458/1/4 459/1/4 461/1/4
f 459/3/4 460/3/4 462/3/4
f 461/1/4 459/1/4 462/1/4
f 462/3/4 460/3/4 463/3/4
f 464/1/4 465/1/4 467/1/4
f 465/3/4 466/3/4 468/3/4
f 467/1/4 465/1/4 468/1/4
f 468/3/4 466/3/4 469/3/4
f 470/1/4 471/1/4 477/1/4
f 471/3/4 472/3/4 478/3/4
f 477/1/4 471/1/4 478/1/4
f 472/3/4 473/3/4 478/3/4
f 473/3/4 474/3/4 478/3/4
f 478/3/4 474/3/4 479/3/4
f 475/6/4 476/6/4 480/6/4
f 479/3/4 474/3/4 483/3/4
f 475/6/4 480/6/4 486/6/4
f 480/6/4 481/6/4 486/6/4
f 481/3/4 482/3/4 487/3/4
f 486/6/4 481/6/4 487/6/4
f 487/3/4 482/3/4 488/3/4
f 483/3/4 484/3/4 489/3/4
f 479/3/4 483/3/4 489/3/4
f 489/3/4 484/3/4 490/3/4
f 484/6/4 485/6/4 491/6/4
f 491/6/4 485/6/4 492/6/4
f 490/3/4 484/3/4 493/3/4
f 484/6/4 491/6/4 494/6/4
f 493/3/4 484/3/4 494/3/4
f 494/6/4 491/6/4 495/6/4
f 479/3/4 489/3/4 496/3/4
f 496/3/4 489/3/4 497/3/4
f 498/6/4 499/6/4 500/6/4
f 498/6/4 500/6/4 503/6/4
f 500/6/4 501/6/4 503/6/4
f 501/3/4 502/3/4 504/3/4
f 503/6/4 501/6/4 504/6/4
f 504/3/4 502/3/4 505/3/4
f 506/3/4 507/3/4 508/3/4
f 506/3/4 508/3/4 509/3/4
f 506/3/4 509/3/4 511/3/4
f 509/3/4 510/3/4 511/3/4
f 511/3/4 510/3/4 512/3/4
f 514/3/4 515/3/4 516/3/4
f 516/3/4 515/3/4 517/3/4
f 513/1/4 514/1/4 520/1/4
f 514/3/4 516/3/4 521/3/4
f 520/1/4 514/1/4 521/1/4
f 518/6/4 519/6/4 523/6/4
f 521/3/4 516/3/4 524/3/4
f 520/3/4 521/3/4 524/3/4
f 522/6/4 523/6/4 526/6/4
f 523/6/4 519/6/4 527/6/4
f 526/6/4 523/6/4 527/6/4
f 524/3/4 525/3/4 528/3/4
f 520/3/4 524/3/4 528/3/4
f 528/3/4 525/3/4 529/3/4
f 531/6/4 532/6/4 533/6/4
f 533/6/4 532/6/4 534/6/4
f 530/3/4 531/3/4 535/3/4
f 531/6/4 533/6/4 536/6/4
f 535/3/4 531/3/4 536/3/4
f 536/6/4 533/6/4 537/6/4
f 542/6/5 539/6/5 538/6/5
f 543/6/5 539/6/5 542/6/5
f 544/6/5 541/6/5 540/6/5
f 545/6/5 541/6/5 544/6/5
f 550/6/5 547/6/5 546/6/5
f 551/6/5 547/6/5 550/6/5
f 552/6/5 549/6/5 548/6/5
f 553/6/5 549/6/5 552/6/5
f 556/3/5 555/3/5 554/3/5
f 557/3/5 555/3/5 556/3/5
f 558/3/5 555/3/5 557/3/5
f 559/3/5 555/3/5 558/3/5
f 560/3/5 556/3/5 554/3/5
f 561/3/5 556/3/5 560/3/5
f 562/3/5 558/3/5 557/3/5
f 563/3/5 558/3/5 562/3/5
f 564/3/5 555/3/5 559/3/5
f 565/1/5 561/1/5 560/1/5
f 566/3/5 563/3/5 562/3/5
f 566/1/5 561/1/5 565/1/5
f 566/3/5 564/3/5 563/3/5
f 566/3/5 562/3/5 561/3/5
f 567/3/5 564/3/5 566/3/5
f 568/3/5 564/3/5 567/3/5
f 569/3/5 555/3/5 564/3/5
f 569/3/5 564/3/5 568/3/5
f 570/3/5 566/3/5 565/3/5
f 571/3/5 568/3/5 567/3/5
f 572/3/5 568/3/5 571/3/5
f 573/3/5 555/3/5 569/3/5
f 574/3/5 570/3/5 565/3/5
f 574/3/5 573/3/5 572/3/5
f 574/3/5 572/3/5 571/3/5
f 574/3/5 571/3/5 570/3/5
f 575/3/5 555/3/5 573/3/5
f 575/3/5 573/3/5 574/3/5
f 578/1/5 577/1/5 576/1/5
f 579/1/5 577/1/5 578/1/5
f 583/1/5 581/1/5 580/1/5
f 584/3/5 582/3/5 581/3/5
f 584/1/5 581/1/5 583/1/5
f 585/3/5 582/3/5 584/3/5
f 586/1/5 583/1/5 580/1/5
f 591/1/5 586/1/5 580/1/5
f 592/1/5 588/1/5 587/1/5
f 593/1/5 588/1/5 592/1/5
f 594/1/5 590/1/5 589/1/5
f 595/1/5 590/1/5 594/1/5
f 596/1/5 591/1/5 580/1/5
f 599/1/5 596/1/5 580/1/5
f 599/1/5 597/1/5 596/1/5
f 600/3/5 598/3/5 597/3/5
f 600/1/5 597/1/5 599/1/5
f 601/3/5 598/3/5 600/3/5
f 606/1/5 605/1/5 604/1/5
f 607/1/5 605/1/5 606/1/5
f 608/1/5 603/1/5 602/1/5
f 609/1/5 603/1/5 608/1/5
f 612/6/5 611/6/5 610/6/5
f 613/6/5 611/6/5 612/6/5
f 616/3/5 615/3/5 614/3/5
f 617/3/5 615/3/5 616/3/5
f 620/3/5 619/3/5 618/3/5
f 621/3/5 619/3/5 620/3/5
f 624/3/5 623/3/5 622/3/5
f 625/3/5 623/3/5 624/3/5
f 628/6/5 627/6/5 626/6/5
f 629/6/5 627/6/5 628/6/5
f 632/6/5 631/6/5 630/6/5
f 633/6/5 631/6/5 632/6/5
f 636/6/5 635/6/5 634/6/5
f 637/6/5 635/6/5 636/6/5
f 640/6/5 639/6/5 638/6/5
f 641/6/5 639/6/5 640/6/5
f 642/6/6 643/6/6 646/6/6
f 646/6/6 643/6/6 647/6/6
f 644/6/6 645/6/6 648/6/6
f 648/6/6 645/6/6 649/6/6
f 650/6/6 651/6/6 654/6/6
f 654/6/6 651/6/6 655/6/6
f 652/6/6 653/6/6 656/6/6
f 656/6/6 653/6/6 657/6/6
f 658/1/6 659/1/6 660/1/6
f 660/1/6 659/1/6 661/1/6
f 662/3/6 663/3/6 664/3/6
f 664/3/6 663/3/6 665/3/6
f 666/3/6 667/3/6 670/3/6
f 670/3/6 667/3/6 671/3/6
f 668/3/6 669/3/6 672/3/6
f 672/3/6 669/3/6 673/3/6
f 676/3/6 677/3/6 679/3/6
f 679/3/6 677/3/6 680/3/6
f 679/3/6 680/3/6 681/3/6
f 678/6/6 679/6/6 682/6/6
f 679/3/6 681/3/6 683/3/6
f 682/6/6 679/6/6 683/6/6
f 683/3/6 681/3/6 684/3/6
f 683/3/6 684/3/6 685/3/6
f 685/3/6 684/3/6 686/3/6
f 687/3/6 688/3/6 689/3/6
f 689/3/6 688/3/6 690/3/6
f 674/3/6 675/3/6 691/3/6
f 691/3/6 675/3/6 692/3/6
f 693/3/6 694/3/6 698/3/6
f 694/3/6 695/3/6 698/3/6
f 698/3/6 695/3/6 699/3/6
f 693/3/6 698/3/6 700/3/6
f 696/3/6 697/3/6 701/3/6
f 693/3/6 700/3/6 702/3/6
f 700/3/6 701/3/6 702/3/6
f 701/3/6 697/3/6 703/3/6
f 702/3/6 701/3/6 703/3/6
f 693/3/6 702/3/6 704/3/6
f 704/3/6 702/3/6 705/3/6
f 693/3/6 704/3/6 708/3/6
f 706/3/6 707/3/6 709/3/6
f 693/3/6 708/3/6 710/3/6
f 708/3/6 709/3/6 710/3/6
f 710/3/6 709/3/6 711/3/6
f 709/3/6 707/3/6 712/3/6
f 711/3/6 709/3/6 712/3/6
f 703/3/6 697/3/6 713/3/6
f 713/3/6 697/3/6 714/3/6
f 715/6/6 716/6/6 717/6/6
f 717/6/6 716/6/6 718/6/6
f 719/6/6 720/6/6 721/6/6
f 721/6/6 720/6/6 722/6/6
f 723/6/6 724/6/6 725/6/6
f 725/6/6 724/6/6 726/6/6
f 727/6/6 728/6/6 729/6/6
f 729/6/6 728/6/6 730/6/6
f 731/6/6 732/6/6 733/6/6
f 733/6/6 732/6/6 734/6/6
f 735/6/6 736/6/6 737/6/6
f 737/6/6 736/6/6 738/6/6
f 739/6/6 740/6/6 741/6/6
f 741/6/6 740/6/6 742/6/6
f 743/6/6 744/6/6 745/6/6
f 745/6/6 744/6/6 746/6/6
f 747/6/6 748/6/6 749/6/6
f 749/6/6 748/6/6 750/6/6
f 751/6/6 752/6/6 753/6/6
f 753/6/6 752/6/6 754/6/6
