# MagicaVoxel @ Ephtracy

# material
mtllib Mushroom.mtl
usemtl palette

# normals
vn -1 0 0
vn 1 0 0
vn 0 0 1
vn 0 0 -1
vn 0 -1 0
vn 0 1 0

# texcoords
vt 0.0605469 0.5
vt 0.248047 0.5
vt 0.275391 0.5
vt 0.416016 0.5
vt 0.841797 0.5
vt 0.958984 0.5

# verts
v -6 6 2
v -6 6 -2
v -6 7 2
v -6 7 -2
v -5 6 3
v -5 6 2
v -5 6 -2
v -5 6 -3
v -5 7 3
v -5 7 2
v -5 7 -2
v -5 7 -3
v -5 8 2
v -5 8 -2
v -4 6 4
v -4 6 3
v -4 6 -3
v -4 6 -4
v -4 7 4
v -4 7 3
v -4 7 2
v -4 7 -2
v -4 7 -3
v -4 7 -4
v -4 8 3
v -4 8 2
v -4 8 -2
v -4 8 -3
v -4 9 2
v -4 9 -2
v -3 0 1
v -3 0 -1
v -3 1 1
v -3 1 -1
v -3 3 1
v -3 3 -1
v -3 6 5
v -3 6 4
v -3 6 -4
v -3 6 -5
v -3 7 5
v -3 7 4
v -3 7 3
v -3 7 -3
v -3 7 -4
v -3 7 -5
v -3 8 4
v -3 8 3
v -3 8 2
v -3 8 -2
v -3 8 -3
v -3 8 -4
v -3 9 3
v -3 9 2
v -3 9 -2
v -3 9 -3
v -3 10 2
v -3 10 -2
v -2 0 2
v -2 0 1
v -2 0 -1
v -2 0 -2
v -2 1 2
v -2 1 1
v -2 1 -1
v -2 1 -2
v -2 3 1
v -2 3 -1
v -2 5 2
v -2 5 -2
v -2 6 6
v -2 6 5
v -2 6 2
v -2 6 -2
v -2 6 -5
v -2 6 -6
v -2 7 6
v -2 7 5
v -2 7 4
v -2 7 -4
v -2 7 -5
v -2 7 -6
v -2 8 5
v -2 8 4
v -2 8 3
v -2 8 -3
v -2 8 -4
v -2 8 -5
v -2 9 4
v -2 9 3
v -2 9 2
v -2 9 -2
v -2 9 -3
v -2 9 -4
v -2 10 3
v -2 10 2
v -2 10 -2
v -2 10 -3
v -1 0 3
v -1 0 2
v -1 0 -2
v -1 0 -3
v -1 1 3
v -1 1 2
v -1 1 -2
v -1 1 -3
v -1 3 3
v -1 3 2
v -1 3 -2
v -1 3 -3
v 1 0 3
v 1 0 2
v 1 0 -2
v 1 0 -3
v 1 1 3
v 1 1 2
v 1 1 -2
v 1 1 -3
v 1 3 3
v 1 3 2
v 1 3 -2
v 1 3 -3
v 2 0 2
v 2 0 1
v 2 0 -1
v 2 0 -2
v 2 1 2
v 2 1 1
v 2 1 -1
v 2 1 -2
v 2 3 1
v 2 3 -1
v 2 5 2
v 2 5 -2
v 2 6 6
v 2 6 5
v 2 6 2
v 2 6 -2
v 2 6 -5
v 2 6 -6
v 2 7 6
v 2 7 5
v 2 7 4
v 2 7 -4
v 2 7 -5
v 2 7 -6
v 2 8 5
v 2 8 4
v 2 8 3
v 2 8 -3
v 2 8 -4
v 2 8 -5
v 2 9 4
v 2 9 3
v 2 9 2
v 2 9 -2
v 2 9 -3
v 2 9 -4
v 2 10 3
v 2 10 2
v 2 10 -2
v 2 10 -3
v 3 0 1
v 3 0 -1
v 3 1 1
v 3 1 -1
v 3 3 1
v 3 3 -1
v 3 6 5
v 3 6 4
v 3 6 -4
v 3 6 -5
v 3 7 5
v 3 7 4
v 3 7 3
v 3 7 -3
v 3 7 -4
v 3 7 -5
v 3 8 4
v 3 8 3
v 3 8 2
v 3 8 -2
v 3 8 -3
v 3 8 -4
v 3 9 3
v 3 9 2
v 3 9 -2
v 3 9 -3
v 3 10 2
v 3 10 -2
v 4 6 4
v 4 6 3
v 4 6 -3
v 4 6 -4
v 4 7 4
v 4 7 3
v 4 7 2
v 4 7 -2
v 4 7 -3
v 4 7 -4
v 4 8 3
v 4 8 2
v 4 8 -2
v 4 8 -3
v 4 9 2
v 4 9 -2
v 5 6 3
v 5 6 2
v 5 6 -2
v 5 6 -3
v 5 7 3
v 5 7 2
v 5 7 -2
v 5 7 -3
v 5 8 2
v 5 8 -2
v 6 6 2
v 6 6 -2
v 6 7 2
v 6 7 -2
v -2 6 6
v -2 7 6
v 2 6 6
v 2 7 6
v -3 6 5
v -3 7 5
v -2 6 5
v -2 7 5
v -2 8 5
v 2 6 5
v 2 7 5
v 2 8 5
v 3 6 5
v 3 7 5
v -4 6 4
v -4 7 4
v -3 6 4
v -3 7 4
v -3 8 4
v -2 7 4
v -2 8 4
v -2 9 4
v 2 7 4
v 2 8 4
v 2 9 4
v 3 6 4
v 3 7 4
v 3 8 4
v 4 6 4
v 4 7 4
v -5 6 3
v -5 7 3
v -4 6 3
v -4 7 3
v -4 8 3
v -3 7 3
v -3 8 3
v -3 9 3
v -2 8 3
v -2 9 3
v -2 10 3
v -1 0 3
v -1 1 3
v -1 3 3
v 1 0 3
v 1 1 3
v 1 3 3
v 2 8 3
v 2 9 3
v 2 10 3
v 3 7 3
v 3 8 3
v 3 9 3
v 4 6 3
v 4 7 3
v 4 8 3
v 5 6 3
v 5 7 3
v -6 6 2
v -6 7 2
v -5 6 2
v -5 7 2
v -5 8 2
v -4 7 2
v -4 8 2
v -4 9 2
v -3 8 2
v -3 9 2
v -3 10 2
v -2 0 2
v -2 1 2
v -2 5 2
v -2 6 2
v -2 9 2
v -2 10 2
v -1 0 2
v -1 1 2
v -1 3 2
v 1 0 2
v 1 1 2
v 1 3 2
v 2 0 2
v 2 1 2
v 2 5 2
v 2 6 2
v 2 9 2
v 2 10 2
v 3 8 2
v 3 9 2
v 3 10 2
v 4 7 2
v 4 8 2
v 4 9 2
v 5 6 2
v 5 7 2
v 5 8 2
v 6 6 2
v 6 7 2
v -3 0 1
v -3 1 1
v -3 3 1
v -2 0 1
v -2 1 1
v -2 3 1
v 2 0 1
v 2 1 1
v 2 3 1
v 3 0 1
v 3 1 1
v 3 3 1
v -3 0 -1
v -3 1 -1
v -3 3 -1
v -2 0 -1
v -2 1 -1
v -2 3 -1
v 2 0 -1
v 2 1 -1
v 2 3 -1
v 3 0 -1
v 3 1 -1
v 3 3 -1
v -6 6 -2
v -6 7 -2
v -5 6 -2
v -5 7 -2
v -5 8 -2
v -4 7 -2
v -4 8 -2
v -4 9 -2
v -3 8 -2
v -3 9 -2
v -3 10 -2
v -2 0 -2
v -2 1 -2
v -2 5 -2
v -2 6 -2
v -2 9 -2
v -2 10 -2
v -1 0 -2
v -1 1 -2
v -1 3 -2
v 1 0 -2
v 1 1 -2
v 1 3 -2
v 2 0 -2
v 2 1 -2
v 2 5 -2
v 2 6 -2
v 2 9 -2
v 2 10 -2
v 3 8 -2
v 3 9 -2
v 3 10 -2
v 4 7 -2
v 4 8 -2
v 4 9 -2
v 5 6 -2
v 5 7 -2
v 5 8 -2
v 6 6 -2
v 6 7 -2
v -5 6 -3
v -5 7 -3
v -4 6 -3
v -4 7 -3
v -4 8 -3
v -3 7 -3
v -3 8 -3
v -3 9 -3
v -2 8 -3
v -2 9 -3
v -2 10 -3
v -1 0 -3
v -1 1 -3
v -1 3 -3
v 1 0 -3
v 1 1 -3
v 1 3 -3
v 2 8 -3
v 2 9 -3
v 2 10 -3
v 3 7 -3
v 3 8 -3
v 3 9 -3
v 4 6 -3
v 4 7 -3
v 4 8 -3
v 5 6 -3
v 5 7 -3
v -4 6 -4
v -4 7 -4
v -3 6 -4
v -3 7 -4
v -3 8 -4
v -2 7 -4
v -2 8 -4
v -2 9 -4
v 2 7 -4
v 2 8 -4
v 2 9 -4
v 3 6 -4
v 3 7 -4
v 3 8 -4
v 4 6 -4
v 4 7 -4
v -3 6 -5
v -3 7 -5
v -2 6 -5
v -2 7 -5
v -2 8 -5
v 2 6 -5
v 2 7 -5
v 2 8 -5
v 3 6 -5
v 3 7 -5
v -2 6 -6
v -2 7 -6
v 2 6 -6
v 2 7 -6
v -1 0 3
v 1 0 3
v -2 0 2
v -1 0 2
v 1 0 2
v 2 0 2
v -3 0 1
v -2 0 1
v 2 0 1
v 3 0 1
v -3 0 -1
v -2 0 -1
v 2 0 -1
v 3 0 -1
v -2 0 -2
v -1 0 -2
v 1 0 -2
v 2 0 -2
v -1 0 -3
v 1 0 -3
v -2 6 6
v 2 6 6
v -3 6 5
v -2 6 5
v 2 6 5
v 3 6 5
v -4 6 4
v -3 6 4
v 3 6 4
v 4 6 4
v -5 6 3
v -4 6 3
v 4 6 3
v 5 6 3
v -6 6 2
v -5 6 2
v -2 6 2
v 2 6 2
v 5 6 2
v 6 6 2
v -6 6 -2
v -5 6 -2
v -2 6 -2
v 2 6 -2
v 5 6 -2
v 6 6 -2
v -5 6 -3
v -4 6 -3
v 4 6 -3
v 5 6 -3
v -4 6 -4
v -3 6 -4
v 3 6 -4
v 4 6 -4
v -3 6 -5
v -2 6 -5
v 2 6 -5
v 3 6 -5
v -2 6 -6
v 2 6 -6
v -1 3 3
v 1 3 3
v -1 3 2
v 1 3 2
v -3 3 1
v -2 3 1
v 2 3 1
v 3 3 1
v -3 3 -1
v -2 3 -1
v 2 3 -1
v 3 3 -1
v -1 3 -2
v 1 3 -2
v -1 3 -3
v 1 3 -3
v -2 7 6
v 2 7 6
v -3 7 5
v -2 7 5
v 2 7 5
v 3 7 5
v -4 7 4
v -3 7 4
v -2 7 4
v 2 7 4
v 3 7 4
v 4 7 4
v -5 7 3
v -4 7 3
v -3 7 3
v 3 7 3
v 4 7 3
v 5 7 3
v -6 7 2
v -5 7 2
v -4 7 2
v 4 7 2
v 5 7 2
v 6 7 2
v -6 7 -2
v -5 7 -2
v -4 7 -2
v 4 7 -2
v 5 7 -2
v 6 7 -2
v -5 7 -3
v -4 7 -3
v -3 7 -3
v 3 7 -3
v 4 7 -3
v 5 7 -3
v -4 7 -4
v -3 7 -4
v -2 7 -4
v 2 7 -4
v 3 7 -4
v 4 7 -4
v -3 7 -5
v -2 7 -5
v 2 7 -5
v 3 7 -5
v -2 7 -6
v 2 7 -6
v -2 8 5
v 2 8 5
v -3 8 4
v -2 8 4
v 2 8 4
v 3 8 4
v -4 8 3
v -3 8 3
v -2 8 3
v 2 8 3
v 3 8 3
v 4 8 3
v -5 8 2
v -4 8 2
v -3 8 2
v 3 8 2
v 4 8 2
v 5 8 2
v -5 8 -2
v -4 8 -2
v -3 8 -2
v 3 8 -2
v 4 8 -2
v 5 8 -2
v -4 8 -3
v -3 8 -3
v -2 8 -3
v 2 8 -3
v 3 8 -3
v 4 8 -3
v -3 8 -4
v -2 8 -4
v 2 8 -4
v 3 8 -4
v -2 8 -5
v 2 8 -5
v -2 9 4
v 2 9 4
v -3 9 3
v -2 9 3
v 2 9 3
v 3 9 3
v -4 9 2
v -3 9 2
v -2 9 2
v 2 9 2
v 3 9 2
v 4 9 2
v -4 9 -2
v -3 9 -2
v -2 9 -2
v 2 9 -2
v 3 9 -2
v 4 9 -2
v -3 9 -3
v -2 9 -3
v 2 9 -3
v 3 9 -3
v -2 9 -4
v 2 9 -4
v -2 10 3
v 2 10 3
v -3 10 2
v -2 10 2
v 2 10 2
v 3 10 2
v -3 10 -2
v -2 10 -2
v 2 10 -2
v 3 10 -2
v -2 10 -3
v 2 10 -3

# faces
f 3/2/1 2/2/1 1/2/1
f 4/2/1 2/2/1 3/2/1
f 9/2/1 6/2/1 5/2/1
f 10/2/1 6/2/1 9/2/1
f 11/2/1 8/2/1 7/2/1
f 12/2/1 8/2/1 11/2/1
f 13/4/1 11/4/1 10/4/1
f 14/4/1 11/4/1 13/4/1
f 19/2/1 16/2/1 15/2/1
f 20/2/1 16/2/1 19/2/1
f 23/2/1 18/2/1 17/2/1
f 24/2/1 18/2/1 23/2/1
f 25/4/1 21/4/1 20/4/1
f 26/4/1 21/4/1 25/4/1
f 27/4/1 23/4/1 22/4/1
f 28/4/1 23/4/1 27/4/1
f 29/3/1 27/3/1 26/3/1
f 30/3/1 27/3/1 29/3/1
f 33/1/1 32/1/1 31/1/1
f 34/1/1 32/1/1 33/1/1
f 35/6/1 34/6/1 33/6/1
f 36/6/1 34/6/1 35/6/1
f 41/2/1 38/2/1 37/2/1
f 42/2/1 38/2/1 41/2/1
f 45/2/1 40/2/1 39/2/1
f 46/2/1 40/2/1 45/2/1
f 47/4/1 43/4/1 42/4/1
f 48/4/1 43/4/1 47/4/1
f 51/4/1 45/4/1 44/4/1
f 52/4/1 45/4/1 51/4/1
f 53/3/1 49/3/1 48/3/1
f 54/3/1 49/3/1 53/3/1
f 55/3/1 51/3/1 50/3/1
f 56/3/1 51/3/1 55/3/1
f 57/2/1 55/2/1 54/2/1
f 58/2/1 55/2/1 57/2/1
f 63/1/1 60/1/1 59/1/1
f 64/1/1 60/1/1 63/1/1
f 65/1/1 62/1/1 61/1/1
f 66/1/1 62/1/1 65/1/1
f 67/6/1 64/6/1 63/6/1
f 68/6/1 66/6/1 65/6/1
f 69/6/1 67/6/1 63/6/1
f 69/6/1 68/6/1 67/6/1
f 70/6/1 66/6/1 68/6/1
f 70/6/1 68/6/1 69/6/1
f 73/1/1 70/1/1 69/1/1
f 74/1/1 70/1/1 73/1/1
f 77/2/1 72/2/1 71/2/1
f 78/2/1 72/2/1 77/2/1
f 81/2/1 76/2/1 75/2/1
f 82/2/1 76/2/1 81/2/1
f 83/4/1 79/4/1 78/4/1
f 84/4/1 79/4/1 83/4/1
f 87/4/1 81/4/1 80/4/1
f 88/4/1 81/4/1 87/4/1
f 89/3/1 85/3/1 84/3/1
f 90/3/1 85/3/1 89/3/1
f 93/3/1 87/3/1 86/3/1
f 94/3/1 87/3/1 93/3/1
f 95/2/1 91/2/1 90/2/1
f 96/2/1 91/2/1 95/2/1
f 97/2/1 93/2/1 92/2/1
f 98/2/1 93/2/1 97/2/1
f 103/1/1 100/1/1 99/1/1
f 104/1/1 100/1/1 103/1/1
f 105/1/1 102/1/1 101/1/1
f 106/1/1 102/1/1 105/1/1
f 107/6/1 104/6/1 103/6/1
f 108/6/1 104/6/1 107/6/1
f 109/6/1 106/6/1 105/6/1
f 110/6/1 106/6/1 109/6/1
f 111/1/2 112/1/2 115/1/2
f 115/1/2 112/1/2 116/1/2
f 113/1/2 114/1/2 117/1/2
f 117/1/2 114/1/2 118/1/2
f 115/6/2 116/6/2 119/6/2
f 119/6/2 116/6/2 120/6/2
f 117/6/2 118/6/2 121/6/2
f 121/6/2 118/6/2 122/6/2
f 123/1/2 124/1/2 127/1/2
f 127/1/2 124/1/2 128/1/2
f 125/1/2 126/1/2 129/1/2
f 129/1/2 126/1/2 130/1/2
f 127/6/2 128/6/2 131/6/2
f 129/6/2 130/6/2 132/6/2
f 127/6/2 131/6/2 133/6/2
f 131/6/2 132/6/2 133/6/2
f 132/6/2 130/6/2 134/6/2
f 133/6/2 132/6/2 134/6/2
f 133/1/2 134/1/2 137/1/2
f 137/1/2 134/1/2 138/1/2
f 135/2/2 136/2/2 141/2/2
f 141/2/2 136/2/2 142/2/2
f 139/2/2 140/2/2 145/2/2
f 145/2/2 140/2/2 146/2/2
f 142/4/2 143/4/2 147/4/2
f 147/4/2 143/4/2 148/4/2
f 144/4/2 145/4/2 151/4/2
f 151/4/2 145/4/2 152/4/2
f 148/3/2 149/3/2 153/3/2
f 153/3/2 149/3/2 154/3/2
f 150/3/2 151/3/2 157/3/2
f 157/3/2 151/3/2 158/3/2
f 154/2/2 155/2/2 159/2/2
f 159/2/2 155/2/2 160/2/2
f 156/2/2 157/2/2 161/2/2
f 161/2/2 157/2/2 162/2/2
f 163/1/2 164/1/2 165/1/2
f 165/1/2 164/1/2 166/1/2
f 165/6/2 166/6/2 167/6/2
f 167/6/2 166/6/2 168/6/2
f 169/2/2 170/2/2 173/2/2
f 173/2/2 170/2/2 174/2/2
f 171/2/2 172/2/2 177/2/2
f 177/2/2 172/2/2 178/2/2
f 174/4/2 175/4/2 179/4/2
f 179/4/2 175/4/2 180/4/2
f 176/4/2 177/4/2 183/4/2
f 183/4/2 177/4/2 184/4/2
f 180/3/2 181/3/2 185/3/2
f 185/3/2 181/3/2 186/3/2
f 182/3/2 183/3/2 187/3/2
f 187/3/2 183/3/2 188/3/2
f 186/2/2 187/2/2 189/2/2
f 189/2/2 187/2/2 190/2/2
f 191/2/2 192/2/2 195/2/2
f 195/2/2 192/2/2 196/2/2
f 193/2/2 194/2/2 199/2/2
f 199/2/2 194/2/2 200/2/2
f 196/4/2 197/4/2 201/4/2
f 201/4/2 197/4/2 202/4/2
f 198/4/2 199/4/2 203/4/2
f 203/4/2 199/4/2 204/4/2
f 202/3/2 203/3/2 205/3/2
f 205/3/2 203/3/2 206/3/2
f 207/2/2 208/2/2 211/2/2
f 211/2/2 208/2/2 212/2/2
f 209/2/2 210/2/2 213/2/2
f 213/2/2 210/2/2 214/2/2
f 212/4/2 213/4/2 215/4/2
f 215/4/2 213/4/2 216/4/2
f 217/2/2 218/2/2 219/2/2
f 219/2/2 218/2/2 220/2/2
f 223/2/3 222/2/3 221/2/3
f 224/2/3 222/2/3 223/2/3
f 227/2/3 226/2/3 225/2/3
f 228/2/3 226/2/3 227/2/3
f 231/4/3 229/4/3 228/4/3
f 232/4/3 229/4/3 231/4/3
f 233/2/3 231/2/3 230/2/3
f 234/2/3 231/2/3 233/2/3
f 237/2/3 236/2/3 235/2/3
f 238/2/3 236/2/3 237/2/3
f 240/4/3 239/4/3 238/4/3
f 241/4/3 239/4/3 240/4/3
f 244/3/3 242/3/3 241/3/3
f 245/3/3 242/3/3 244/3/3
f 247/4/3 244/4/3 243/4/3
f 248/4/3 244/4/3 247/4/3
f 249/2/3 247/2/3 246/2/3
f 250/2/3 247/2/3 249/2/3
f 253/2/3 252/2/3 251/2/3
f 254/2/3 252/2/3 253/2/3
f 256/4/3 255/4/3 254/4/3
f 257/4/3 255/4/3 256/4/3
f 259/3/3 258/3/3 257/3/3
f 260/3/3 258/3/3 259/3/3
f 265/1/3 263/1/3 262/1/3
f 266/6/3 264/6/3 263/6/3
f 266/1/3 263/1/3 265/1/3
f 267/6/3 264/6/3 266/6/3
f 269/2/3 261/2/3 260/2/3
f 270/2/3 261/2/3 269/2/3
f 272/3/3 269/3/3 268/3/3
f 273/3/3 269/3/3 272/3/3
f 275/4/3 272/4/3 271/4/3
f 276/4/3 272/4/3 275/4/3
f 277/2/3 275/2/3 274/2/3
f 278/2/3 275/2/3 277/2/3
f 281/2/3 280/2/3 279/2/3
f 282/2/3 280/2/3 281/2/3
f 284/4/3 283/4/3 282/4/3
f 285/4/3 283/4/3 284/4/3
f 287/3/3 286/3/3 285/3/3
f 288/3/3 286/3/3 287/3/3
f 294/2/3 289/2/3 288/2/3
f 295/2/3 289/2/3 294/2/3
f 296/1/3 291/1/3 290/1/3
f 297/6/3 292/6/3 291/6/3
f 297/1/3 291/1/3 296/1/3
f 298/6/3 292/6/3 297/6/3
f 301/6/3 292/6/3 298/6/3
f 302/1/3 300/1/3 299/1/3
f 303/6/3 301/6/3 300/6/3
f 303/1/3 300/1/3 302/1/3
f 304/1/3 293/1/3 292/1/3
f 304/6/3 301/6/3 303/6/3
f 304/6/3 292/6/3 301/6/3
f 305/1/3 293/1/3 304/1/3
f 309/2/3 307/2/3 306/2/3
f 310/2/3 307/2/3 309/2/3
f 312/3/3 309/3/3 308/3/3
f 313/3/3 309/3/3 312/3/3
f 315/4/3 312/4/3 311/4/3
f 316/4/3 312/4/3 315/4/3
f 317/2/3 315/2/3 314/2/3
f 318/2/3 315/2/3 317/2/3
f 322/1/3 320/1/3 319/1/3
f 323/6/3 321/6/3 320/6/3
f 323/1/3 320/1/3 322/1/3
f 324/6/3 321/6/3 323/6/3
f 328/1/3 326/1/3 325/1/3
f 329/6/3 327/6/3 326/6/3
f 329/1/3 326/1/3 328/1/3
f 330/6/3 327/6/3 329/6/3
f 331/1/4 332/1/4 334/1/4
f 332/6/4 333/6/4 335/6/4
f 334/1/4 332/1/4 335/1/4
f 335/6/4 333/6/4 336/6/4
f 337/1/4 338/1/4 340/1/4
f 338/6/4 339/6/4 341/6/4
f 340/1/4 338/1/4 341/1/4
f 341/6/4 339/6/4 342/6/4
f 343/2/4 344/2/4 345/2/4
f 345/2/4 344/2/4 346/2/4
f 346/4/4 347/4/4 348/4/4
f 348/4/4 347/4/4 349/4/4
f 349/3/4 350/3/4 351/3/4
f 351/3/4 350/3/4 352/3/4
f 352/2/4 353/2/4 358/2/4
f 358/2/4 353/2/4 359/2/4
f 354/1/4 355/1/4 360/1/4
f 355/6/4 356/6/4 361/6/4
f 360/1/4 355/1/4 361/1/4
f 361/6/4 356/6/4 362/6/4
f 362/6/4 356/6/4 365/6/4
f 363/1/4 364/1/4 366/1/4
f 364/6/4 365/6/4 367/6/4
f 366/1/4 364/1/4 367/1/4
f 356/1/4 357/1/4 368/1/4
f 367/6/4 365/6/4 368/6/4
f 365/6/4 356/6/4 368/6/4
f 368/1/4 357/1/4 369/1/4
f 370/2/4 371/2/4 373/2/4
f 373/2/4 371/2/4 374/2/4
f 372/3/4 373/3/4 376/3/4
f 376/3/4 373/3/4 377/3/4
f 375/4/4 376/4/4 379/4/4
f 379/4/4 376/4/4 380/4/4
f 378/2/4 379/2/4 381/2/4
f 381/2/4 379/2/4 382/2/4
f 383/2/4 384/2/4 385/2/4
f 385/2/4 384/2/4 386/2/4
f 386/4/4 387/4/4 388/4/4
f 388/4/4 387/4/4 389/4/4
f 389/3/4 390/3/4 391/3/4
f 391/3/4 390/3/4 392/3/4
f 394/1/4 395/1/4 397/1/4
f 395/6/4 396/6/4 398/6/4
f 397/1/4 395/1/4 398/1/4
f 398/6/4 396/6/4 399/6/4
f 392/2/4 393/2/4 401/2/4
f 401/2/4 393/2/4 402/2/4
f 400/3/4 401/3/4 404/3/4
f 404/3/4 401/3/4 405/3/4
f 403/4/4 404/4/4 407/4/4
f 407/4/4 404/4/4 408/4/4
f 406/2/4 407/2/4 409/2/4
f 409/2/4 407/2/4 410/2/4
f 411/2/4 412/2/4 413/2/4
f 413/2/4 412/2/4 414/2/4
f 414/4/4 415/4/4 416/4/4
f 416/4/4 415/4/4 417/4/4
f 417/3/4 418/3/4 420/3/4
f 420/3/4 418/3/4 421/3/4
f 419/4/4 420/4/4 423/4/4
f 423/4/4 420/4/4 424/4/4
f 422/2/4 423/2/4 425/2/4
f 425/2/4 423/2/4 426/2/4
f 427/2/4 428/2/4 429/2/4
f 429/2/4 428/2/4 430/2/4
f 430/4/4 431/4/4 433/4/4
f 433/4/4 431/4/4 434/4/4
f 432/2/4 433/2/4 435/2/4
f 435/2/4 433/2/4 436/2/4
f 437/2/4 438/2/4 439/2/4
f 439/2/4 438/2/4 440/2/4
f 444/1/5 442/1/5 441/1/5
f 445/1/5 442/1/5 444/1/5
f 448/1/5 444/1/5 443/1/5
f 448/1/5 446/1/5 445/1/5
f 448/1/5 445/1/5 444/1/5
f 449/1/5 446/1/5 448/1/5
f 451/1/5 448/1/5 447/1/5
f 451/1/5 450/1/5 449/1/5
f 451/1/5 449/1/5 448/1/5
f 452/1/5 450/1/5 451/1/5
f 453/1/5 450/1/5 452/1/5
f 454/1/5 450/1/5 453/1/5
f 455/1/5 453/1/5 452/1/5
f 456/1/5 453/1/5 455/1/5
f 457/1/5 453/1/5 456/1/5
f 458/1/5 453/1/5 457/1/5
f 459/1/5 457/1/5 456/1/5
f 460/1/5 457/1/5 459/1/5
f 464/2/5 462/2/5 461/2/5
f 465/2/5 462/2/5 464/2/5
f 468/2/5 464/2/5 463/2/5
f 468/2/5 466/2/5 465/2/5
f 468/2/5 465/2/5 464/2/5
f 469/2/5 466/2/5 468/2/5
f 472/2/5 468/2/5 467/2/5
f 472/2/5 470/2/5 469/2/5
f 472/2/5 469/2/5 468/2/5
f 473/2/5 470/2/5 472/2/5
f 476/2/5 472/2/5 471/2/5
f 476/2/5 474/2/5 473/2/5
f 476/2/5 473/2/5 472/2/5
f 477/2/5 474/2/5 476/2/5
f 478/2/5 474/2/5 477/2/5
f 479/2/5 474/2/5 478/2/5
f 481/2/5 476/2/5 475/2/5
f 481/2/5 477/2/5 476/2/5
f 482/2/5 477/2/5 481/2/5
f 483/2/5 477/2/5 482/2/5
f 484/2/5 480/2/5 479/2/5
f 484/2/5 479/2/5 478/2/5
f 485/2/5 480/2/5 484/2/5
f 486/2/5 480/2/5 485/2/5
f 487/2/5 483/2/5 482/2/5
f 487/2/5 485/2/5 484/2/5
f 487/2/5 484/2/5 483/2/5
f 488/2/5 485/2/5 487/2/5
f 489/2/5 485/2/5 488/2/5
f 490/2/5 485/2/5 489/2/5
f 491/2/5 489/2/5 488/2/5
f 492/2/5 489/2/5 491/2/5
f 493/2/5 489/2/5 492/2/5
f 494/2/5 489/2/5 493/2/5
f 495/2/5 493/2/5 492/2/5
f 496/2/5 493/2/5 495/2/5
f 497/2/5 493/2/5 496/2/5
f 498/2/5 493/2/5 497/2/5
f 499/2/5 497/2/5 496/2/5
f 500/2/5 497/2/5 499/2/5
f 501/6/6 502/6/6 503/6/6
f 503/6/6 502/6/6 504/6/6
f 505/6/6 506/6/6 509/6/6
f 509/6/6 506/6/6 510/6/6
f 507/6/6 508/6/6 511/6/6
f 511/6/6 508/6/6 512/6/6
f 513/6/6 514/6/6 515/6/6
f 515/6/6 514/6/6 516/6/6
f 517/2/6 518/2/6 520/2/6
f 520/2/6 518/2/6 521/2/6
f 519/2/6 520/2/6 524/2/6
f 524/2/6 520/2/6 525/2/6
f 521/2/6 522/2/6 526/2/6
f 526/2/6 522/2/6 527/2/6
f 523/2/6 524/2/6 530/2/6
f 530/2/6 524/2/6 531/2/6
f 527/2/6 528/2/6 532/2/6
f 532/2/6 528/2/6 533/2/6
f 529/2/6 530/2/6 536/2/6
f 536/2/6 530/2/6 537/2/6
f 533/2/6 534/2/6 538/2/6
f 538/2/6 534/2/6 539/2/6
f 535/2/6 536/2/6 541/2/6
f 541/2/6 536/2/6 542/2/6
f 539/2/6 540/2/6 545/2/6
f 545/2/6 540/2/6 546/2/6
f 542/2/6 543/2/6 547/2/6
f 547/2/6 543/2/6 548/2/6
f 544/2/6 545/2/6 551/2/6
f 551/2/6 545/2/6 552/2/6
f 548/2/6 549/2/6 553/2/6
f 553/2/6 549/2/6 554/2/6
f 550/2/6 551/2/6 557/2/6
f 557/2/6 551/2/6 558/2/6
f 554/2/6 555/2/6 559/2/6
f 559/2/6 555/2/6 560/2/6
f 556/2/6 557/2/6 561/2/6
f 561/2/6 557/2/6 562/2/6
f 560/2/6 561/2/6 563/2/6
f 563/2/6 561/2/6 564/2/6
f 565/4/6 566/4/6 568/4/6
f 568/4/6 566/4/6 569/4/6
f 567/4/6 568/4/6 572/4/6
f 572/4/6 568/4/6 573/4/6
f 569/4/6 570/4/6 574/4/6
f 574/4/6 570/4/6 575/4/6
f 571/4/6 572/4/6 578/4/6
f 578/4/6 572/4/6 579/4/6
f 575/4/6 576/4/6 580/4/6
f 580/4/6 576/4/6 581/4/6
f 577/4/6 578/4/6 583/4/6
f 583/4/6 578/4/6 584/4/6
f 581/4/6 582/4/6 587/4/6
f 587/4/6 582/4/6 588/4/6
f 584/4/6 585/4/6 589/4/6
f 589/4/6 585/4/6 590/4/6
f 586/4/6 587/4/6 593/4/6
f 593/4/6 587/4/6 594/4/6
f 590/4/6 591/4/6 595/4/6
f 595/4/6 591/4/6 596/4/6
f 592/4/6 593/4/6 597/4/6
f 597/4/6 593/4/6 598/4/6
f 596/4/6 597/4/6 599/4/6
f 599/4/6 597/4/6 600/4/6
f 601/3/6 602/3/6 604/3/6
f 604/3/6 602/3/6 605/3/6
f 603/3/6 604/3/6 608/3/6
f 608/3/6 604/3/6 609/3/6
f 605/3/6 606/3/6 610/3/6
f 610/3/6 606/3/6 611/3/6
f 607/3/6 608/3/6 613/3/6
f 613/3/6 608/3/6 614/3/6
f 611/3/6 612/3/6 617/3/6
f 617/3/6 612/3/6 618/3/6
f 614/3/6 615/3/6 619/3/6
f 619/3/6 615/3/6 620/3/6
f 616/3/6 617/3/6 621/3/6
f 621/3/6 617/3/6 622/3/6
f 620/3/6 621/3/6 623/3/6
f 623/3/6 621/3/6 624/3/6
f 625/2/6 626/2/6 628/2/6
f 628/2/6 626/2/6 629/2/6
f 627/2/6 628/2/6 631/2/6
f 629/2/6 630/2/6 631/2/6
f 628/2/6 629/2/6 631/2/6
f 631/2/6 630/2/6 632/2/6
f 632/2/6 630/2/6 633/2/6
f 633/2/6 630/2/6 634/2/6
f 632/2/6 633/2/6 635/2/6
f 635/2/6 633/2/6 636/2/6
