# MagicaVoxel @ Ephtracy

# material
mtllib OldManCharacter.mtl
usemtl palette

# normals
vn -1 0 0
vn 1 0 0
vn 0 0 1
vn 0 0 -1
vn 0 -1 0
vn 0 1 0

# texcoords
vt 0.00195313 0.5
vt 0.0332031 0.5
vt 0.0605469 0.5
vt 0.142578 0.5
vt 0.310547 0.5
vt 0.373047 0.5
vt 0.521484 0.5
vt 0.611328 0.5
vt 0.634766 0.5
vt 0.646484 0.5
vt 0.841797 0.5
vt 0.869141 0.5
vt 0.958984 0.5
vt 0.978516 0.5
vt 0.982422 0.5
vt 0.986328 0.5
vt 0.994141 0.5

# verts
v -12 6 0.5
v -12 6 -1.5
v -12 8 0.5
v -12 8 -1.5
v -10 8 0.5
v -10 8 -1.5
v -10 10 0.5
v -10 10 -1.5
v -8 10 0.5
v -8 10 -1.5
v -8 12 0.5
v -8 12 -1.5
v -7 20 4.5
v -7 20 -5.5
v -7 21 5.5
v -7 21 4.5
v -7 21 -5.5
v -7 21 -6.5
v -7 23 5.5
v -7 23 -6.5
v -6 2 4.5
v -6 2 -5.5
v -6 10 0.5
v -6 10 -1.5
v -6 12 0.5
v -6 12 -1.5
v -6 14 4.5
v -6 14 -5.5
v -6 18 6.5
v -6 18 4.5
v -6 20 6.5
v -6 20 4.5
v -6 20 -5.5
v -6 20 -6.5
v -6 21 -5.5
v -6 21 -6.5
v -6 23 5.5
v -6 23 -5.5
v -6 24 5.5
v -6 24 -5.5
v -5 24 3.5
v -5 24 -4.5
v -5 25 3.5
v -5 25 -4.5
v -4 0 0.5
v -4 0 -1.5
v -4 2 0.5
v -4 2 -1.5
v -4 10 6.5
v -4 10 4.5
v -4 14 6.5
v -4 14 4.5
v -4 25 2.5
v -4 25 -3.5
v -4 26 2.5
v -4 26 -3.5
v -2 8 6.5
v -2 8 4.5
v -2 10 6.5
v -2 10 4.5
v -2 14 6.5
v -2 14 4.5
v -2 16 6.5
v -2 16 4.5
v 2 0 0.5
v 2 0 -1.5
v 2 2 0.5
v 2 2 -1.5
v 2 18 6.5
v 2 18 4.5
v 2 20 6.5
v 2 20 4.5
v 8 8 0.5
v 8 8 -1.5
v 8 10 0.5
v 8 10 -1.5
v 10 6 0.5
v 10 6 -1.5
v 10 8 0.5
v 10 8 -1.5
v -10 6 0.5
v -10 6 -1.5
v -10 8 0.5
v -10 8 -1.5
v -8 8 0.5
v -8 8 -1.5
v -8 10 0.5
v -8 10 -1.5
v -2 0 0.5
v -2 0 -1.5
v -2 2 0.5
v -2 2 -1.5
v -2 18 6.5
v -2 18 4.5
v -2 20 6.5
v -2 20 4.5
v 2 8 6.5
v 2 8 4.5
v 2 10 6.5
v 2 10 4.5
v 2 14 6.5
v 2 14 4.5
v 2 16 6.5
v 2 16 4.5
v 4 0 0.5
v 4 0 -1.5
v 4 2 0.5
v 4 2 -1.5
v 4 10 6.5
v 4 10 4.5
v 4 14 6.5
v 4 14 4.5
v 4 25 2.5
v 4 25 -3.5
v 4 26 2.5
v 4 26 -3.5
v 5 24 3.5
v 5 24 -4.5
v 5 25 3.5
v 5 25 -4.5
v 6 2 4.5
v 6 2 -5.5
v 6 10 0.5
v 6 10 -1.5
v 6 12 0.5
v 6 12 -1.5
v 6 14 4.5
v 6 14 -5.5
v 6 18 6.5
v 6 18 4.5
v 6 20 6.5
v 6 20 4.5
v 6 20 -5.5
v 6 20 -6.5
v 6 21 -5.5
v 6 21 -6.5
v 6 23 5.5
v 6 23 -5.5
v 6 24 5.5
v 6 24 -5.5
v 7 20 4.5
v 7 20 -5.5
v 7 21 5.5
v 7 21 4.5
v 7 21 -5.5
v 7 21 -6.5
v 7 23 5.5
v 7 23 -6.5
v 8 10 0.5
v 8 10 -1.5
v 8 12 0.5
v 8 12 -1.5
v 10 8 0.5
v 10 8 -1.5
v 10 10 0.5
v 10 10 -1.5
v 12 6 0.5
v 12 6 -1.5
v 12 8 0.5
v 12 8 -1.5
v -6 18 6.5
v -6 20 6.5
v -4 10 6.5
v -4 14 6.5
v -2 8 6.5
v -2 10 6.5
v -2 14 6.5
v -2 16 6.5
v -2 18 6.5
v -2 20 6.5
v 2 8 6.5
v 2 10 6.5
v 2 14 6.5
v 2 16 6.5
v 2 18 6.5
v 2 20 6.5
v 4 10 6.5
v 4 14 6.5
v 6 18 6.5
v 6 20 6.5
v -7 21 5.5
v -7 23 5.5
v -6 23 5.5
v -6 24 5.5
v 6 23 5.5
v 6 24 5.5
v 7 21 5.5
v 7 23 5.5
v -7 20 4.5
v -7 21 4.5
v -6 2 4.5
v -6 14 4.5
v -6 18 4.5
v -6 20 4.5
v -6 21 4.5
v -5 18 4.5
v -4 7 4.5
v -4 10 4.5
v -4 14 4.5
v -4 16 4.5
v -4 18 4.5
v -3 6 4.5
v -3 7 4.5
v -3 10 4.5
v -3 18 4.5
v -2 5 4.5
v -2 6 4.5
v -2 7 4.5
v -2 8 4.5
v -2 10 4.5
v -2 14 4.5
v -2 16 4.5
v -2 18 4.5
v -2 20 4.5
v 2 5 4.5
v 2 6 4.5
v 2 7 4.5
v 2 8 4.5
v 2 10 4.5
v 2 14 4.5
v 2 16 4.5
v 2 18 4.5
v 2 20 4.5
v 3 6 4.5
v 3 7 4.5
v 3 10 4.5
v 3 18 4.5
v 4 7 4.5
v 4 10 4.5
v 4 14 4.5
v 4 16 4.5
v 4 18 4.5
v 5 18 4.5
v 6 2 4.5
v 6 14 4.5
v 6 18 4.5
v 6 20 4.5
v 6 21 4.5
v 7 20 4.5
v 7 21 4.5
v -5 24 3.5
v -5 25 3.5
v 5 24 3.5
v 5 25 3.5
v -4 25 2.5
v -4 26 2.5
v 4 25 2.5
v 4 26 2.5
v -12 6 0.5
v -12 8 0.5
v -10 6 0.5
v -10 8 0.5
v -10 10 0.5
v -8 8 0.5
v -8 10 0.5
v -8 12 0.5
v -6 10 0.5
v -6 12 0.5
v -4 0 0.5
v -4 2 0.5
v -2 0 0.5
v -2 2 0.5
v 2 0 0.5
v 2 2 0.5
v 4 0 0.5
v 4 2 0.5
v 6 10 0.5
v 6 12 0.5
v 8 8 0.5
v 8 10 0.5
v 8 12 0.5
v 10 6 0.5
v 10 8 0.5
v 10 10 0.5
v 12 6 0.5
v 12 8 0.5
v -12 6 -1.5
v -12 8 -1.5
v -10 6 -1.5
v -10 8 -1.5
v -10 10 -1.5
v -8 8 -1.5
v -8 10 -1.5
v -8 12 -1.5
v -6 10 -1.5
v -6 12 -1.5
v -4 0 -1.5
v -4 2 -1.5
v -2 0 -1.5
v -2 2 -1.5
v 2 0 -1.5
v 2 2 -1.5
v 4 0 -1.5
v 4 2 -1.5
v 6 10 -1.5
v 6 12 -1.5
v 8 8 -1.5
v 8 10 -1.5
v 8 12 -1.5
v 10 6 -1.5
v 10 8 -1.5
v 10 10 -1.5
v 12 6 -1.5
v 12 8 -1.5
v -4 25 -3.5
v -4 26 -3.5
v 4 25 -3.5
v 4 26 -3.5
v -5 24 -4.5
v -5 25 -4.5
v 5 24 -4.5
v 5 25 -4.5
v -7 20 -5.5
v -7 21 -5.5
v -6 2 -5.5
v -6 14 -5.5
v -6 20 -5.5
v -6 21 -5.5
v -6 23 -5.5
v -6 24 -5.5
v 6 2 -5.5
v 6 14 -5.5
v 6 20 -5.5
v 6 21 -5.5
v 6 23 -5.5
v 6 24 -5.5
v 7 20 -5.5
v 7 21 -5.5
v -7 21 -6.5
v -7 23 -6.5
v -6 20 -6.5
v -6 21 -6.5
v 6 20 -6.5
v 6 21 -6.5
v 7 21 -6.5
v 7 23 -6.5
v -4 0 0.5
v -2 0 0.5
v 2 0 0.5
v 4 0 0.5
v -4 0 -1.5
v -2 0 -1.5
v 2 0 -1.5
v 4 0 -1.5
v -6 2 4.5
v 6 2 4.5
v -4 2 0.5
v -2 2 0.5
v 2 2 0.5
v 4 2 0.5
v -4 2 -1.5
v -2 2 -1.5
v 2 2 -1.5
v 4 2 -1.5
v -6 2 -5.5
v 6 2 -5.5
v -12 6 0.5
v -10 6 0.5
v 10 6 0.5
v 12 6 0.5
v -12 6 -1.5
v -10 6 -1.5
v 10 6 -1.5
v 12 6 -1.5
v -2 8 6.5
v 2 8 6.5
v -2 8 4.5
v 2 8 4.5
v -10 8 0.5
v -8 8 0.5
v 8 8 0.5
v 10 8 0.5
v -10 8 -1.5
v -8 8 -1.5
v 8 8 -1.5
v 10 8 -1.5
v -4 10 6.5
v -2 10 6.5
v 2 10 6.5
v 4 10 6.5
v -4 10 4.5
v -3 10 4.5
v -2 10 4.5
v 2 10 4.5
v 3 10 4.5
v 4 10 4.5
v -8 10 0.5
v -6 10 0.5
v 6 10 0.5
v 8 10 0.5
v -8 10 -1.5
v -6 10 -1.5
v 6 10 -1.5
v 8 10 -1.5
v -6 18 6.5
v -2 18 6.5
v 2 18 6.5
v 6 18 6.5
v -5 18 5.5
v -4 18 5.5
v -3 18 5.5
v 3 18 5.5
v 4 18 5.5
v 5 18 5.5
v -6 18 4.5
v -5 18 4.5
v -4 18 4.5
v -3 18 4.5
v -2 18 4.5
v 2 18 4.5
v 3 18 4.5
v 4 18 4.5
v 5 18 4.5
v 6 18 4.5
v -7 20 4.5
v -6 20 4.5
v 6 20 4.5
v 7 20 4.5
v -7 20 -5.5
v -6 20 -5.5
v 6 20 -5.5
v 7 20 -5.5
v -6 20 -6.5
v 6 20 -6.5
v -7 21 5.5
v 7 21 5.5
v -7 21 4.5
v -6 21 4.5
v 6 21 4.5
v 7 21 4.5
v -7 21 -5.5
v -6 21 -5.5
v 6 21 -5.5
v 7 21 -5.5
v -7 21 -6.5
v -6 21 -6.5
v 6 21 -6.5
v 7 21 -6.5
v -12 8 0.5
v -10 8 0.5
v 10 8 0.5
v 12 8 0.5
v -12 8 -1.5
v -10 8 -1.5
v 10 8 -1.5
v 12 8 -1.5
v -10 10 0.5
v -8 10 0.5
v 8 10 0.5
v 10 10 0.5
v -10 10 -1.5
v -8 10 -1.5
v 8 10 -1.5
v 10 10 -1.5
v -8 12 0.5
v -6 12 0.5
v 6 12 0.5
v 8 12 0.5
v -8 12 -1.5
v -6 12 -1.5
v 6 12 -1.5
v 8 12 -1.5
v -4 14 6.5
v -2 14 6.5
v 2 14 6.5
v 4 14 6.5
v -4 14 4.5
v -2 14 4.5
v 2 14 4.5
v 4 14 4.5
v -2 16 6.5
v 2 16 6.5
v -2 16 4.5
v 2 16 4.5
v -6 20 6.5
v -2 20 6.5
v 2 20 6.5
v 6 20 6.5
v -6 20 4.5
v -2 20 4.5
v 2 20 4.5
v 6 20 4.5
v -7 23 5.5
v -6 23 5.5
v 6 23 5.5
v 7 23 5.5
v -6 23 -5.5
v 6 23 -5.5
v -7 23 -6.5
v 7 23 -6.5
v -6 24 5.5
v 6 24 5.5
v -5 24 3.5
v 5 24 3.5
v -5 24 -4.5
v 5 24 -4.5
v -6 24 -5.5
v 6 24 -5.5
v -5 25 3.5
v 5 25 3.5
v -4 25 2.5
v 4 25 2.5
v -4 25 -3.5
v 4 25 -3.5
v -5 25 -4.5
v 5 25 -4.5
v -4 26 2.5
v 4 26 2.5
v -4 26 -3.5
v 4 26 -3.5

# faces
f 3/2/1 2/2/1 1/2/1
f 4/2/1 2/2/1 3/2/1
f 7/11/1 6/11/1 5/11/1
f 8/11/1 6/11/1 7/11/1
f 11/11/1 10/11/1 9/11/1
f 12/11/1 10/11/1 11/11/1
f 16/6/1 14/6/1 13/6/1
f 17/6/1 14/6/1 16/6/1
f 19/6/1 16/6/1 15/6/1
f 19/6/1 18/6/1 17/6/1
f 19/6/1 17/6/1 16/6/1
f 20/6/1 18/6/1 19/6/1
f 23/11/1 22/11/1 21/11/1
f 24/11/1 22/11/1 23/11/1
f 25/11/1 23/11/1 21/11/1
f 26/11/1 22/11/1 24/11/1
f 27/11/1 25/11/1 21/11/1
f 27/11/1 26/11/1 25/11/1
f 28/11/1 22/11/1 26/11/1
f 28/11/1 26/11/1 27/11/1
f 30/2/1 28/2/1 27/2/1
f 31/6/1 30/6/1 29/6/1
f 32/2/1 28/2/1 30/2/1
f 32/6/1 30/6/1 31/6/1
f 33/2/1 28/2/1 32/2/1
f 35/6/1 34/6/1 33/6/1
f 36/6/1 34/6/1 35/6/1
f 39/6/1 38/6/1 37/6/1
f 40/6/1 38/6/1 39/6/1
f 43/6/1 42/6/1 41/6/1
f 44/6/1 42/6/1 43/6/1
f 47/10/1 46/10/1 45/10/1
f 48/10/1 46/10/1 47/10/1
f 51/6/1 50/6/1 49/6/1
f 52/6/1 50/6/1 51/6/1
f 55/6/1 54/6/1 53/6/1
f 56/6/1 54/6/1 55/6/1
f 59/6/1 58/6/1 57/6/1
f 60/6/1 58/6/1 59/6/1
f 63/6/1 62/6/1 61/6/1
f 64/6/1 62/6/1 63/6/1
f 67/10/1 66/10/1 65/10/1
f 68/10/1 66/10/1 67/10/1
f 71/6/1 70/6/1 69/6/1
f 72/6/1 70/6/1 71/6/1
f 75/11/1 74/11/1 73/11/1
f 76/11/1 74/11/1 75/11/1
f 79/2/1 78/2/1 77/2/1
f 80/2/1 78/2/1 79/2/1
f 81/2/2 82/2/2 83/2/2
f 83/2/2 82/2/2 84/2/2
f 85/11/2 86/11/2 87/11/2
f 87/11/2 86/11/2 88/11/2
f 89/10/2 90/10/2 91/10/2
f 91/10/2 90/10/2 92/10/2
f 93/6/2 94/6/2 95/6/2
f 95/6/2 94/6/2 96/6/2
f 97/6/2 98/6/2 99/6/2
f 99/6/2 98/6/2 100/6/2
f 101/6/2 102/6/2 103/6/2
f 103/6/2 102/6/2 104/6/2
f 105/10/2 106/10/2 107/10/2
f 107/10/2 106/10/2 108/10/2
f 109/6/2 110/6/2 111/6/2
f 111/6/2 110/6/2 112/6/2
f 113/6/2 114/6/2 115/6/2
f 115/6/2 114/6/2 116/6/2
f 117/6/2 118/6/2 119/6/2
f 119/6/2 118/6/2 120/6/2
f 121/11/2 122/11/2 123/11/2
f 123/11/2 122/11/2 124/11/2
f 121/11/2 123/11/2 125/11/2
f 124/11/2 122/11/2 126/11/2
f 121/11/2 125/11/2 127/11/2
f 125/11/2 126/11/2 127/11/2
f 126/11/2 122/11/2 128/11/2
f 127/11/2 126/11/2 128/11/2
f 127/2/2 128/2/2 130/2/2
f 129/6/2 130/6/2 131/6/2
f 130/2/2 128/2/2 132/2/2
f 131/6/2 130/6/2 132/6/2
f 132/2/2 128/2/2 133/2/2
f 133/6/2 134/6/2 135/6/2
f 135/6/2 134/6/2 136/6/2
f 137/6/2 138/6/2 139/6/2
f 139/6/2 138/6/2 140/6/2
f 141/6/2 142/6/2 144/6/2
f 144/6/2 142/6/2 145/6/2
f 143/6/2 144/6/2 147/6/2
f 145/6/2 146/6/2 147/6/2
f 144/6/2 145/6/2 147/6/2
f 147/6/2 146/6/2 148/6/2
f 149/11/2 150/11/2 151/11/2
f 151/11/2 150/11/2 152/11/2
f 153/11/2 154/11/2 155/11/2
f 155/11/2 154/11/2 156/11/2
f 157/2/2 158/2/2 159/2/2
f 159/2/2 158/2/2 160/2/2
f 166/6/3 164/6/3 163/6/3
f 167/6/3 164/6/3 166/6/3
f 169/6/3 162/6/3 161/6/3
f 170/6/3 162/6/3 169/6/3
f 171/6/3 168/6/3 167/6/3
f 171/6/3 166/6/3 165/6/3
f 171/6/3 167/6/3 166/6/3
f 172/6/3 168/6/3 171/6/3
f 173/6/3 168/6/3 172/6/3
f 174/6/3 168/6/3 173/6/3
f 177/6/3 173/6/3 172/6/3
f 178/6/3 173/6/3 177/6/3
f 179/6/3 176/6/3 175/6/3
f 180/6/3 176/6/3 179/6/3
f 183/6/3 182/6/3 181/6/3
f 185/6/3 183/6/3 181/6/3
f 185/6/3 184/6/3 183/6/3
f 186/6/3 184/6/3 185/6/3
f 187/6/3 185/6/3 181/6/3
f 188/6/3 185/6/3 187/6/3
f 194/6/3 190/6/3 189/6/3
f 195/6/3 190/6/3 194/6/3
f 196/2/3 193/2/3 192/2/3
f 197/11/3 192/11/3 191/11/3
f 198/11/3 192/11/3 197/11/3
f 199/2/3 196/2/3 192/2/3
f 199/11/3 192/11/3 198/11/3
f 200/2/3 196/2/3 199/2/3
f 201/2/3 196/2/3 200/2/3
f 202/11/3 197/11/3 191/11/3
f 203/13/3 198/13/3 197/13/3
f 203/11/3 197/11/3 202/11/3
f 204/13/3 198/13/3 203/13/3
f 205/17/3 201/17/3 200/17/3
f 206/11/3 202/11/3 191/11/3
f 207/13/3 203/13/3 202/13/3
f 207/11/3 202/11/3 206/11/3
f 208/12/3 204/12/3 203/12/3
f 208/13/3 203/13/3 207/13/3
f 209/12/3 204/12/3 208/12/3
f 210/12/3 204/12/3 209/12/3
f 211/2/3 200/2/3 199/2/3
f 212/17/3 205/17/3 200/17/3
f 212/2/3 200/2/3 211/2/3
f 213/17/3 205/17/3 212/17/3
f 214/2/3 195/2/3 194/2/3
f 215/13/3 207/13/3 206/13/3
f 215/11/3 206/11/3 191/11/3
f 216/12/3 209/12/3 208/12/3
f 216/13/3 207/13/3 215/13/3
f 216/12/3 208/12/3 207/12/3
f 217/12/3 209/12/3 216/12/3
f 218/12/3 209/12/3 217/12/3
f 221/2/3 213/2/3 212/2/3
f 221/2/3 214/2/3 213/2/3
f 222/2/3 214/2/3 221/2/3
f 223/2/3 195/2/3 214/2/3
f 223/2/3 214/2/3 222/2/3
f 224/11/3 216/11/3 215/11/3
f 224/13/3 217/13/3 216/13/3
f 225/12/3 219/12/3 218/12/3
f 225/13/3 217/13/3 224/13/3
f 225/12/3 218/12/3 217/12/3
f 226/12/3 219/12/3 225/12/3
f 227/17/3 222/17/3 221/17/3
f 228/13/3 226/13/3 225/13/3
f 228/11/3 225/11/3 224/11/3
f 229/13/3 226/13/3 228/13/3
f 230/2/3 221/2/3 220/2/3
f 231/17/3 227/17/3 221/17/3
f 231/2/3 221/2/3 230/2/3
f 232/17/3 227/17/3 231/17/3
f 233/2/3 231/2/3 230/2/3
f 233/2/3 232/2/3 231/2/3
f 234/11/3 224/11/3 215/11/3
f 234/11/3 215/11/3 191/11/3
f 234/11/3 229/11/3 228/11/3
f 234/11/3 230/11/3 229/11/3
f 234/11/3 228/11/3 224/11/3
f 235/2/3 233/2/3 230/2/3
f 235/11/3 230/11/3 234/11/3
f 236/2/3 233/2/3 235/2/3
f 237/2/3 195/2/3 223/2/3
f 238/2/3 195/2/3 237/2/3
f 239/6/3 238/6/3 237/6/3
f 240/6/3 238/6/3 239/6/3
f 243/6/3 242/6/3 241/6/3
f 244/6/3 242/6/3 243/6/3
f 247/6/3 246/6/3 245/6/3
f 248/6/3 246/6/3 247/6/3
f 251/2/3 250/2/3 249/2/3
f 252/2/3 250/2/3 251/2/3
f 254/11/3 253/11/3 252/11/3
f 255/11/3 253/11/3 254/11/3
f 257/11/3 256/11/3 255/11/3
f 258/11/3 256/11/3 257/11/3
f 261/10/3 260/10/3 259/10/3
f 262/10/3 260/10/3 261/10/3
f 265/10/3 264/10/3 263/10/3
f 266/10/3 264/10/3 265/10/3
f 270/11/3 268/11/3 267/11/3
f 271/11/3 268/11/3 270/11/3
f 273/11/3 270/11/3 269/11/3
f 274/11/3 270/11/3 273/11/3
f 275/2/3 273/2/3 272/2/3
f 276/2/3 273/2/3 275/2/3
f 277/2/4 278/2/4 279/2/4
f 279/2/4 278/2/4 280/2/4
f 280/11/4 281/11/4 282/11/4
f 282/11/4 281/11/4 283/11/4
f 283/11/4 284/11/4 285/11/4
f 285/11/4 284/11/4 286/11/4
f 287/10/4 288/10/4 289/10/4
f 289/10/4 288/10/4 290/10/4
f 291/10/4 292/10/4 293/10/4
f 293/10/4 292/10/4 294/10/4
f 295/11/4 296/11/4 298/11/4
f 298/11/4 296/11/4 299/11/4
f 297/11/4 298/11/4 301/11/4
f 301/11/4 298/11/4 302/11/4
f 300/2/4 301/2/4 303/2/4
f 303/2/4 301/2/4 304/2/4
f 305/6/4 306/6/4 307/6/4
f 307/6/4 306/6/4 308/6/4
f 309/6/4 310/6/4 311/6/4
f 311/6/4 310/6/4 312/6/4
f 313/6/4 314/6/4 317/6/4
f 317/6/4 314/6/4 318/6/4
f 315/11/4 316/11/4 321/11/4
f 316/2/4 317/2/4 322/2/4
f 321/11/4 316/11/4 322/11/4
f 322/2/4 317/2/4 323/2/4
f 319/6/4 320/6/4 325/6/4
f 325/6/4 320/6/4 326/6/4
f 323/6/4 324/6/4 327/6/4
f 327/6/4 324/6/4 328/6/4
f 329/6/4 330/6/4 332/6/4
f 331/6/4 332/6/4 333/6/4
f 332/6/4 330/6/4 334/6/4
f 333/6/4 332/6/4 334/6/4
f 334/6/4 330/6/4 335/6/4
f 335/6/4 330/6/4 336/6/4
f 341/10/5 338/10/5 337/10/5
f 342/10/5 338/10/5 341/10/5
f 343/10/5 340/10/5 339/10/5
f 344/10/5 340/10/5 343/10/5
f 347/11/5 346/11/5 345/11/5
f 348/11/5 346/11/5 347/11/5
f 349/11/5 346/11/5 348/11/5
f 350/11/5 346/11/5 349/11/5
f 351/11/5 347/11/5 345/11/5
f 352/11/5 349/11/5 348/11/5
f 353/11/5 349/11/5 352/11/5
f 354/11/5 346/11/5 350/11/5
f 355/11/5 353/11/5 352/11/5
f 355/11/5 354/11/5 353/11/5
f 355/11/5 351/11/5 345/11/5
f 355/11/5 352/11/5 351/11/5
f 356/11/5 346/11/5 354/11/5
f 356/11/5 354/11/5 355/11/5
f 361/2/5 358/2/5 357/2/5
f 362/2/5 358/2/5 361/2/5
f 363/2/5 360/2/5 359/2/5
f 364/2/5 360/2/5 363/2/5
f 367/6/5 366/6/5 365/6/5
f 368/6/5 366/6/5 367/6/5
f 373/11/5 370/11/5 369/11/5
f 374/11/5 370/11/5 373/11/5
f 375/11/5 372/11/5 371/11/5
f 376/11/5 372/11/5 375/11/5
f 381/6/5 378/6/5 377/6/5
f 382/6/5 378/6/5 381/6/5
f 383/6/5 378/6/5 382/6/5
f 384/6/5 380/6/5 379/6/5
f 385/6/5 380/6/5 384/6/5
f 386/6/5 380/6/5 385/6/5
f 391/11/5 388/11/5 387/11/5
f 392/11/5 388/11/5 391/11/5
f 393/11/5 390/11/5 389/11/5
f 394/11/5 390/11/5 393/11/5
f 399/6/5 396/6/5 395/6/5
f 400/6/5 396/6/5 399/6/5
f 401/6/5 396/6/5 400/6/5
f 402/6/5 398/6/5 397/6/5
f 403/6/5 398/6/5 402/6/5
f 404/6/5 398/6/5 403/6/5
f 405/6/5 399/6/5 395/6/5
f 406/15/5 400/15/5 399/15/5
f 406/6/5 399/6/5 405/6/5
f 407/14/5 401/14/5 400/14/5
f 407/15/5 400/15/5 406/15/5
f 408/6/5 396/6/5 401/6/5
f 408/14/5 401/14/5 407/14/5
f 409/6/5 396/6/5 408/6/5
f 410/6/5 402/6/5 397/6/5
f 411/15/5 403/15/5 402/15/5
f 411/6/5 402/6/5 410/6/5
f 412/14/5 404/14/5 403/14/5
f 412/15/5 403/15/5 411/15/5
f 413/6/5 398/6/5 404/6/5
f 413/14/5 404/14/5 412/14/5
f 414/6/5 398/6/5 413/6/5
f 419/6/5 416/6/5 415/6/5
f 420/6/5 416/6/5 419/6/5
f 421/6/5 418/6/5 417/6/5
f 422/6/5 418/6/5 421/6/5
f 423/6/5 421/6/5 420/6/5
f 424/6/5 421/6/5 423/6/5
f 427/6/5 426/6/5 425/6/5
f 428/6/5 426/6/5 427/6/5
f 429/6/5 426/6/5 428/6/5
f 430/6/5 426/6/5 429/6/5
f 435/6/5 432/6/5 431/6/5
f 436/6/5 432/6/5 435/6/5
f 437/6/5 434/6/5 433/6/5
f 438/6/5 434/6/5 437/6/5
f 439/2/6 440/2/6 443/2/6
f 443/2/6 440/2/6 444/2/6
f 441/2/6 442/2/6 445/2/6
f 445/2/6 442/2/6 446/2/6
f 447/11/6 448/11/6 451/11/6
f 451/11/6 448/11/6 452/11/6
f 449/11/6 450/11/6 453/11/6
f 453/11/6 450/11/6 454/11/6
f 455/11/6 456/11/6 459/11/6
f 459/11/6 456/11/6 460/11/6
f 457/11/6 458/11/6 461/11/6
f 461/11/6 458/11/6 462/11/6
f 463/6/6 464/6/6 467/6/6
f 467/6/6 464/6/6 468/6/6
f 465/6/6 466/6/6 469/6/6
f 469/6/6 466/6/6 470/6/6
f 471/6/6 472/6/6 473/6/6
f 473/6/6 472/6/6 474/6/6
f 475/6/6 476/6/6 479/6/6
f 479/6/6 476/6/6 480/6/6
f 477/6/6 478/6/6 481/6/6
f 481/6/6 478/6/6 482/6/6
f 483/6/6 484/6/6 487/6/6
f 485/6/6 486/6/6 488/6/6
f 483/6/6 487/6/6 489/6/6
f 487/6/6 488/6/6 489/6/6
f 488/6/6 486/6/6 490/6/6
f 489/6/6 488/6/6 490/6/6
f 491/6/6 492/6/6 493/6/6
f 493/6/6 492/6/6 494/6/6
f 491/6/6 493/6/6 495/6/6
f 494/6/6 492/6/6 496/6/6
f 491/6/6 495/6/6 497/6/6
f 495/6/6 496/6/6 497/6/6
f 496/6/6 492/6/6 498/6/6
f 497/6/6 496/6/6 498/6/6
f 499/6/6 500/6/6 501/6/6
f 501/6/6 500/6/6 502/6/6
f 499/6/6 501/6/6 503/6/6
f 502/6/6 500/6/6 504/6/6
f 499/6/6 503/6/6 505/6/6
f 503/6/6 504/6/6 505/6/6
f 504/6/6 500/6/6 506/6/6
f 505/6/6 504/6/6 506/6/6
f 507/6/6 508/6/6 509/6/6
f 509/6/6 508/6/6 510/6/6
