# MagicaVoxel @ Ephtracy

# material
mtllib WizardCharacter.mtl
usemtl palette

# normals
vn -1 0 0
vn 1 0 0
vn 0 0 1
vn 0 0 -1
vn 0 -1 0
vn 0 1 0

# texcoords
vt 0.00195313 0.5
vt 0.0332031 0.5
vt 0.0605469 0.5
vt 0.142578 0.5
vt 0.521484 0.5
vt 0.529297 0.5
vt 0.537109 0.5
vt 0.611328 0.5
vt 0.634766 0.5
vt 0.646484 0.5
vt 0.974609 0.5
vt 0.994141 0.5

# verts
v -6.5 3 0.5
v -6.5 3 -0.5
v -6.5 4 0.5
v -6.5 4 -0.5
v -5.5 4 0.5
v -5.5 4 -0.5
v -5.5 5 0.5
v -5.5 5 -0.5
v -5.5 12 4.5
v -5.5 12 -4.5
v -5.5 13 4.5
v -5.5 13 -4.5
v -4.5 0 3.5
v -4.5 0 -3.5
v -4.5 1 3.5
v -4.5 1 -3.5
v -4.5 5 0.5
v -4.5 5 -0.5
v -4.5 6 0.5
v -4.5 6 -0.5
v -4.5 13 3.5
v -4.5 13 -3.5
v -4.5 14 3.5
v -4.5 14 -3.5
v -3.5 1 2.5
v -3.5 1 -2.5
v -3.5 5 0.5
v -3.5 5 -0.5
v -3.5 6 0.5
v -3.5 6 -0.5
v -3.5 7 2.5
v -3.5 7 -2.5
v -3.5 9 3.5
v -3.5 9 2.5
v -3.5 10 3.5
v -3.5 10 2.5
v -3.5 12 2.5
v -3.5 12 -2.5
v -3.5 14 2.5
v -3.5 14 -2.5
v -3.5 15 2.5
v -3.5 15 -2.5
v -2.5 15 1.5
v -2.5 15 -1.5
v -2.5 16 1.5
v -2.5 16 0.5
v -2.5 17 0.5
v -2.5 17 -0.5
v -2.5 17 -1.5
v -2.5 17 -2.5
v -2.5 18 -0.5
v -2.5 18 -2.5
v -1.5 16 -2.5
v -1.5 16 -3.5
v -1.5 17 -2.5
v -1.5 18 -2.5
v -1.5 18 -3.5
v 0.5 0 0.5
v 0.5 0 -0.5
v 0.5 1 0.5
v 0.5 1 -0.5
v 0.5 9 3.5
v 0.5 9 2.5
v 0.5 10 3.5
v 0.5 10 2.5
v 1.5 0 1.5
v 1.5 0 0.5
v 1.5 0 -0.5
v 1.5 0 -1.5
v 1.5 1 1.5
v 1.5 1 0.5
v 1.5 1 -0.5
v 1.5 1 -1.5
v 3.5 4 0.5
v 3.5 4 -0.5
v 3.5 5 0.5
v 3.5 5 -0.5
v 4.5 0 0.5
v 4.5 0 -0.5
v 4.5 3 0.5
v 4.5 3 -0.5
v 4.5 4 0.5
v 4.5 4 -0.5
v 4.5 5 0.5
v 4.5 5 -0.5
v 4.5 7 0.5
v 4.5 7 -0.5
v 5.5 7 0.5
v 5.5 7 -0.5
v 5.5 10 0.5
v 5.5 10 -0.5
v -5.5 3 0.5
v -5.5 3 -0.5
v -5.5 4 0.5
v -5.5 4 -0.5
v -4.5 4 0.5
v -4.5 4 -0.5
v -4.5 5 0.5
v -4.5 5 -0.5
v -2.5 0 1.5
v -2.5 0 0.5
v -2.5 0 -0.5
v -2.5 0 -1.5
v -2.5 1 1.5
v -2.5 1 0.5
v -2.5 1 -0.5
v -2.5 1 -1.5
v -1.5 0 0.5
v -1.5 0 -0.5
v -1.5 1 0.5
v -1.5 1 -0.5
v -1.5 9 3.5
v -1.5 9 2.5
v -1.5 10 3.5
v -1.5 10 2.5
v 0.5 16 -2.5
v 0.5 16 -3.5
v 0.5 17 -2.5
v 0.5 18 -2.5
v 0.5 18 -3.5
v 1.5 15 1.5
v 1.5 15 -1.5
v 1.5 16 1.5
v 1.5 16 0.5
v 1.5 17 0.5
v 1.5 17 -0.5
v 1.5 17 -1.5
v 1.5 17 -2.5
v 1.5 18 -0.5
v 1.5 18 -2.5
v 2.5 1 2.5
v 2.5 1 -2.5
v 2.5 5 0.5
v 2.5 5 -0.5
v 2.5 6 0.5
v 2.5 6 -0.5
v 2.5 7 2.5
v 2.5 7 -2.5
v 2.5 9 3.5
v 2.5 9 2.5
v 2.5 10 3.5
v 2.5 10 2.5
v 2.5 12 2.5
v 2.5 12 -2.5
v 2.5 14 2.5
v 2.5 14 -2.5
v 2.5 15 2.5
v 2.5 15 -2.5
v 3.5 0 3.5
v 3.5 0 -3.5
v 3.5 1 3.5
v 3.5 1 -3.5
v 3.5 5 0.5
v 3.5 5 -0.5
v 3.5 6 0.5
v 3.5 6 -0.5
v 3.5 13 3.5
v 3.5 13 -3.5
v 3.5 14 3.5
v 3.5 14 -3.5
v 4.5 12 4.5
v 4.5 12 -4.5
v 4.5 13 4.5
v 4.5 13 -4.5
v 5.5 0 0.5
v 5.5 0 -0.5
v 5.5 3 0.5
v 5.5 3 -0.5
v 5.5 4 0.5
v 5.5 4 -0.5
v 5.5 6 0.5
v 5.5 6 -0.5
v 6.5 6 0.5
v 6.5 6 -0.5
v 6.5 10 0.5
v 6.5 10 -0.5
v -5.5 12 4.5
v -5.5 13 4.5
v 4.5 12 4.5
v 4.5 13 4.5
v -4.5 0 3.5
v -4.5 1 3.5
v -4.5 13 3.5
v -4.5 14 3.5
v -3.5 9 3.5
v -3.5 10 3.5
v -1.5 9 3.5
v -1.5 10 3.5
v 0.5 9 3.5
v 0.5 10 3.5
v 2.5 9 3.5
v 2.5 10 3.5
v 3.5 0 3.5
v 3.5 1 3.5
v 3.5 13 3.5
v 3.5 14 3.5
v -3.5 1 2.5
v -3.5 7 2.5
v -3.5 9 2.5
v -3.5 10 2.5
v -3.5 12 2.5
v -3.5 14 2.5
v -3.5 15 2.5
v -2.5 8 2.5
v -2.5 9 2.5
v -1.5 8 2.5
v -1.5 9 2.5
v -1.5 10 2.5
v 0.5 8 2.5
v 0.5 9 2.5
v 0.5 10 2.5
v 1.5 8 2.5
v 1.5 9 2.5
v 2.5 1 2.5
v 2.5 7 2.5
v 2.5 9 2.5
v 2.5 10 2.5
v 2.5 12 2.5
v 2.5 14 2.5
v 2.5 15 2.5
v -2.5 15 1.5
v -2.5 16 1.5
v 1.5 15 1.5
v 1.5 16 1.5
v -6.5 3 0.5
v -6.5 4 0.5
v -5.5 3 0.5
v -5.5 4 0.5
v -5.5 5 0.5
v -4.5 4 0.5
v -4.5 5 0.5
v -4.5 6 0.5
v -3.5 5 0.5
v -3.5 6 0.5
v -2.5 0 0.5
v -2.5 1 0.5
v -2.5 16 0.5
v -2.5 17 0.5
v -1.5 0 0.5
v -1.5 1 0.5
v 0.5 0 0.5
v 0.5 1 0.5
v 1.5 0 0.5
v 1.5 1 0.5
v 1.5 16 0.5
v 1.5 17 0.5
v 2.5 5 0.5
v 2.5 6 0.5
v 3.5 4 0.5
v 3.5 5 0.5
v 3.5 6 0.5
v 4.5 0 0.5
v 4.5 3 0.5
v 4.5 4 0.5
v 4.5 5 0.5
v 4.5 7 0.5
v 5.5 0 0.5
v 5.5 3 0.5
v 5.5 4 0.5
v 5.5 6 0.5
v 5.5 7 0.5
v 5.5 10 0.5
v 6.5 6 0.5
v 6.5 10 0.5
v -2.5 17 -0.5
v -2.5 18 -0.5
v 1.5 17 -0.5
v 1.5 18 -0.5
v -2.5 0 -1.5
v -2.5 1 -1.5
v 1.5 0 -1.5
v 1.5 1 -1.5
v -1.5 16 -2.5
v -1.5 17 -2.5
v 0.5 16 -2.5
v 0.5 17 -2.5
v -2.5 0 1.5
v -2.5 1 1.5
v 1.5 0 1.5
v 1.5 1 1.5
v -6.5 3 -0.5
v -6.5 4 -0.5
v -5.5 3 -0.5
v -5.5 4 -0.5
v -5.5 5 -0.5
v -4.5 4 -0.5
v -4.5 5 -0.5
v -4.5 6 -0.5
v -3.5 5 -0.5
v -3.5 6 -0.5
v -2.5 0 -0.5
v -2.5 1 -0.5
v -1.5 0 -0.5
v -1.5 1 -0.5
v 0.5 0 -0.5
v 0.5 1 -0.5
v 1.5 0 -0.5
v 1.5 1 -0.5
v 2.5 5 -0.5
v 2.5 6 -0.5
v 3.5 4 -0.5
v 3.5 5 -0.5
v 3.5 6 -0.5
v 4.5 0 -0.5
v 4.5 3 -0.5
v 4.5 4 -0.5
v 4.5 5 -0.5
v 4.5 7 -0.5
v 5.5 0 -0.5
v 5.5 3 -0.5
v 5.5 4 -0.5
v 5.5 6 -0.5
v 5.5 7 -0.5
v 5.5 10 -0.5
v 6.5 6 -0.5
v 6.5 10 -0.5
v -2.5 15 -1.5
v -2.5 17 -1.5
v 1.5 15 -1.5
v 1.5 17 -1.5
v -3.5 1 -2.5
v -3.5 7 -2.5
v -3.5 12 -2.5
v -3.5 14 -2.5
v -3.5 15 -2.5
v -2.5 17 -2.5
v -2.5 18 -2.5
v -1.5 17 -2.5
v -1.5 18 -2.5
v 0.5 17 -2.5
v 0.5 18 -2.5
v 1.5 17 -2.5
v 1.5 18 -2.5
v 2.5 1 -2.5
v 2.5 7 -2.5
v 2.5 12 -2.5
v 2.5 14 -2.5
v 2.5 15 -2.5
v -4.5 0 -3.5
v -4.5 1 -3.5
v -4.5 13 -3.5
v -4.5 14 -3.5
v -1.5 16 -3.5
v -1.5 18 -3.5
v 0.5 16 -3.5
v 0.5 18 -3.5
v 3.5 0 -3.5
v 3.5 1 -3.5
v 3.5 13 -3.5
v 3.5 14 -3.5
v -5.5 12 -4.5
v -5.5 13 -4.5
v 4.5 12 -4.5
v 4.5 13 -4.5
v -4.5 0 3.5
v 3.5 0 3.5
v -2.5 0 1.5
v 1.5 0 1.5
v -2.5 0 0.5
v -1.5 0 0.5
v 0.5 0 0.5
v 1.5 0 0.5
v 4.5 0 0.5
v 5.5 0 0.5
v -2.5 0 -0.5
v -1.5 0 -0.5
v 0.5 0 -0.5
v 1.5 0 -0.5
v 4.5 0 -0.5
v 5.5 0 -0.5
v -2.5 0 -1.5
v 1.5 0 -1.5
v -4.5 0 -3.5
v 3.5 0 -3.5
v -2.5 1 1.5
v 1.5 1 1.5
v -2.5 1 0.5
v -1.5 1 0.5
v 0.5 1 0.5
v 1.5 1 0.5
v -2.5 1 -0.5
v -1.5 1 -0.5
v 0.5 1 -0.5
v 1.5 1 -0.5
v -2.5 1 -1.5
v 1.5 1 -1.5
v -6.5 3 0.5
v -5.5 3 0.5
v -6.5 3 -0.5
v -5.5 3 -0.5
v -5.5 4 0.5
v -4.5 4 0.5
v 3.5 4 0.5
v 4.5 4 0.5
v -5.5 4 -0.5
v -4.5 4 -0.5
v 3.5 4 -0.5
v 4.5 4 -0.5
v -4.5 5 0.5
v -3.5 5 0.5
v 2.5 5 0.5
v 3.5 5 0.5
v -4.5 5 -0.5
v -3.5 5 -0.5
v 2.5 5 -0.5
v 3.5 5 -0.5
v 5.5 6 0.5
v 6.5 6 0.5
v 5.5 6 -0.5
v 6.5 6 -0.5
v -3.5 9 3.5
v -1.5 9 3.5
v 0.5 9 3.5
v 2.5 9 3.5
v -3.5 9 2.5
v -2.5 9 2.5
v -1.5 9 2.5
v 0.5 9 2.5
v 1.5 9 2.5
v 2.5 9 2.5
v -5.5 12 4.5
v 4.5 12 4.5
v -3.5 12 2.5
v 2.5 12 2.5
v -3.5 12 -2.5
v 2.5 12 -2.5
v -5.5 12 -4.5
v 4.5 12 -4.5
v -1.5 16 -2.5
v 0.5 16 -2.5
v -1.5 16 -3.5
v 0.5 16 -3.5
v -2.5 17 -1.5
v 1.5 17 -1.5
v -2.5 17 -2.5
v -1.5 17 -2.5
v 0.5 17 -2.5
v 1.5 17 -2.5
v -4.5 1 3.5
v 3.5 1 3.5
v -3.5 1 2.5
v 2.5 1 2.5
v -3.5 1 -2.5
v 2.5 1 -2.5
v -4.5 1 -3.5
v 3.5 1 -3.5
v -6.5 4 0.5
v -5.5 4 0.5
v -6.5 4 -0.5
v -5.5 4 -0.5
v -5.5 5 0.5
v -4.5 5 0.5
v 3.5 5 0.5
v 4.5 5 0.5
v -5.5 5 -0.5
v -4.5 5 -0.5
v 3.5 5 -0.5
v 4.5 5 -0.5
v -4.5 6 0.5
v -3.5 6 0.5
v 2.5 6 0.5
v 3.5 6 0.5
v -4.5 6 -0.5
v -3.5 6 -0.5
v 2.5 6 -0.5
v 3.5 6 -0.5
v 4.5 7 0.5
v 5.5 7 0.5
v 4.5 7 -0.5
v 5.5 7 -0.5
v -3.5 10 3.5
v -1.5 10 3.5
v 0.5 10 3.5
v 2.5 10 3.5
v -3.5 10 2.5
v -1.5 10 2.5
v 0.5 10 2.5
v 2.5 10 2.5
v 5.5 10 0.5
v 6.5 10 0.5
v 5.5 10 -0.5
v 6.5 10 -0.5
v -5.5 13 4.5
v 4.5 13 4.5
v -4.5 13 3.5
v 3.5 13 3.5
v -4.5 13 -3.5
v 3.5 13 -3.5
v -5.5 13 -4.5
v 4.5 13 -4.5
v -4.5 14 3.5
v 3.5 14 3.5
v -3.5 14 2.5
v 2.5 14 2.5
v -3.5 14 -2.5
v 2.5 14 -2.5
v -4.5 14 -3.5
v 3.5 14 -3.5
v -3.5 15 2.5
v 2.5 15 2.5
v -2.5 15 1.5
v 1.5 15 1.5
v -2.5 15 -1.5
v 1.5 15 -1.5
v -3.5 15 -2.5
v 2.5 15 -2.5
v -2.5 16 1.5
v 1.5 16 1.5
v -2.5 16 0.5
v 1.5 16 0.5
v -2.5 17 0.5
v 1.5 17 0.5
v -2.5 17 -0.5
v 1.5 17 -0.5
v -2.5 18 -0.5
v 1.5 18 -0.5
v -2.5 18 -2.5
v -1.5 18 -2.5
v 0.5 18 -2.5
v 1.5 18 -2.5
v -1.5 18 -3.5
v 0.5 18 -3.5

# faces
f 3/2/1 2/2/1 1/2/1
f 4/2/1 2/2/1 3/2/1
f 7/6/1 6/6/1 5/6/1
f 8/6/1 6/6/1 7/6/1
f 11/7/1 10/7/1 9/7/1
f 12/7/1 10/7/1 11/7/1
f 15/6/1 14/6/1 13/6/1
f 16/6/1 14/6/1 15/6/1
f 19/6/1 18/6/1 17/6/1
f 20/6/1 18/6/1 19/6/1
f 23/7/1 22/7/1 21/7/1
f 24/7/1 22/7/1 23/7/1
f 27/6/1 26/6/1 25/6/1
f 28/6/1 26/6/1 27/6/1
f 29/6/1 27/6/1 25/6/1
f 30/6/1 26/6/1 28/6/1
f 31/6/1 29/6/1 25/6/1
f 31/6/1 30/6/1 29/6/1
f 32/6/1 26/6/1 30/6/1
f 32/6/1 30/6/1 31/6/1
f 34/2/1 32/2/1 31/2/1
f 35/11/1 34/11/1 33/11/1
f 36/2/1 32/2/1 34/2/1
f 36/11/1 34/11/1 35/11/1
f 37/2/1 32/2/1 36/2/1
f 38/2/1 32/2/1 37/2/1
f 41/7/1 40/7/1 39/7/1
f 42/7/1 40/7/1 41/7/1
f 45/7/1 44/7/1 43/7/1
f 46/7/1 44/7/1 45/7/1
f 47/7/1 44/7/1 46/7/1
f 48/7/1 44/7/1 47/7/1
f 49/7/1 44/7/1 48/7/1
f 51/7/1 50/7/1 49/7/1
f 51/7/1 49/7/1 48/7/1
f 52/7/1 50/7/1 51/7/1
f 55/7/1 54/7/1 53/7/1
f 56/7/1 54/7/1 55/7/1
f 57/7/1 54/7/1 56/7/1
f 60/6/1 59/6/1 58/6/1
f 61/6/1 59/6/1 60/6/1
f 64/11/1 63/11/1 62/11/1
f 65/11/1 63/11/1 64/11/1
f 70/6/1 67/6/1 66/6/1
f 71/6/1 67/6/1 70/6/1
f 72/6/1 69/6/1 68/6/1
f 73/6/1 69/6/1 72/6/1
f 76/6/1 75/6/1 74/6/1
f 77/6/1 75/6/1 76/6/1
f 80/7/1 79/7/1 78/7/1
f 81/7/1 79/7/1 80/7/1
f 82/2/1 81/2/1 80/2/1
f 83/2/1 81/2/1 82/2/1
f 86/7/1 85/7/1 84/7/1
f 87/7/1 85/7/1 86/7/1
f 90/7/1 89/7/1 88/7/1
f 91/7/1 89/7/1 90/7/1
f 92/2/2 93/2/2 94/2/2
f 94/2/2 93/2/2 95/2/2
f 96/6/2 97/6/2 98/6/2
f 98/6/2 97/6/2 99/6/2
f 100/6/2 101/6/2 104/6/2
f 104/6/2 101/6/2 105/6/2
f 102/6/2 103/6/2 106/6/2
f 106/6/2 103/6/2 107/6/2
f 108/6/2 109/6/2 110/6/2
f 110/6/2 109/6/2 111/6/2
f 112/11/2 113/11/2 114/11/2
f 114/11/2 113/11/2 115/11/2
f 116/7/2 117/7/2 118/7/2
f 118/7/2 117/7/2 119/7/2
f 119/7/2 117/7/2 120/7/2
f 121/7/2 122/7/2 123/7/2
f 123/7/2 122/7/2 124/7/2
f 124/7/2 122/7/2 125/7/2
f 125/7/2 122/7/2 126/7/2
f 126/7/2 122/7/2 127/7/2
f 127/7/2 128/7/2 129/7/2
f 126/7/2 127/7/2 129/7/2
f 129/7/2 128/7/2 130/7/2
f 131/6/2 132/6/2 133/6/2
f 133/6/2 132/6/2 134/6/2
f 131/6/2 133/6/2 135/6/2
f 134/6/2 132/6/2 136/6/2
f 131/6/2 135/6/2 137/6/2
f 135/6/2 136/6/2 137/6/2
f 136/6/2 132/6/2 138/6/2
f 137/6/2 136/6/2 138/6/2
f 137/2/2 138/2/2 140/2/2
f 139/11/2 140/11/2 141/11/2
f 140/2/2 138/2/2 142/2/2
f 141/11/2 140/11/2 142/11/2
f 142/2/2 138/2/2 143/2/2
f 143/2/2 138/2/2 144/2/2
f 145/7/2 146/7/2 147/7/2
f 147/7/2 146/7/2 148/7/2
f 149/6/2 150/6/2 151/6/2
f 151/6/2 150/6/2 152/6/2
f 153/6/2 154/6/2 155/6/2
f 155/6/2 154/6/2 156/6/2
f 157/7/2 158/7/2 159/7/2
f 159/7/2 158/7/2 160/7/2
f 161/7/2 162/7/2 163/7/2
f 163/7/2 162/7/2 164/7/2
f 165/7/2 166/7/2 167/7/2
f 167/7/2 166/7/2 168/7/2
f 167/2/2 168/2/2 169/2/2
f 169/2/2 168/2/2 170/2/2
f 169/7/2 170/7/2 171/7/2
f 171/7/2 170/7/2 172/7/2
f 173/7/2 174/7/2 175/7/2
f 175/7/2 174/7/2 176/7/2
f 179/7/3 178/7/3 177/7/3
f 180/7/3 178/7/3 179/7/3
f 187/11/3 186/11/3 185/11/3
f 188/11/3 186/11/3 187/11/3
f 191/11/3 190/11/3 189/11/3
f 192/11/3 190/11/3 191/11/3
f 193/6/3 182/6/3 181/6/3
f 194/6/3 182/6/3 193/6/3
f 195/7/3 184/7/3 183/7/3
f 196/7/3 184/7/3 195/7/3
f 204/2/3 199/2/3 198/2/3
f 205/2/3 199/2/3 204/2/3
f 206/2/3 204/2/3 198/2/3
f 206/12/3 205/12/3 204/12/3
f 207/12/3 205/12/3 206/12/3
f 208/2/3 201/2/3 200/2/3
f 209/2/3 207/2/3 206/2/3
f 209/2/3 208/2/3 207/2/3
f 209/2/3 206/2/3 198/2/3
f 210/2/3 208/2/3 209/2/3
f 211/2/3 201/2/3 208/2/3
f 211/2/3 208/2/3 210/2/3
f 212/12/3 210/12/3 209/12/3
f 212/2/3 209/2/3 198/2/3
f 213/12/3 210/12/3 212/12/3
f 214/6/3 198/6/3 197/6/3
f 215/2/3 212/2/3 198/2/3
f 215/6/3 198/6/3 214/6/3
f 215/2/3 213/2/3 212/2/3
f 216/2/3 213/2/3 215/2/3
f 217/2/3 201/2/3 211/2/3
f 218/2/3 201/2/3 217/2/3
f 219/7/3 203/7/3 202/7/3
f 220/7/3 203/7/3 219/7/3
f 223/7/3 222/7/3 221/7/3
f 224/7/3 222/7/3 223/7/3
f 227/2/3 226/2/3 225/2/3
f 228/2/3 226/2/3 227/2/3
f 230/6/3 229/6/3 228/6/3
f 231/6/3 229/6/3 230/6/3
f 233/6/3 232/6/3 231/6/3
f 234/6/3 232/6/3 233/6/3
f 239/6/3 236/6/3 235/6/3
f 240/6/3 236/6/3 239/6/3
f 243/6/3 242/6/3 241/6/3
f 244/6/3 242/6/3 243/6/3
f 245/7/3 238/7/3 237/7/3
f 246/7/3 238/7/3 245/7/3
f 250/6/3 248/6/3 247/6/3
f 251/6/3 248/6/3 250/6/3
f 254/6/3 250/6/3 249/6/3
f 255/6/3 250/6/3 254/6/3
f 257/7/3 253/7/3 252/7/3
f 258/2/3 254/2/3 253/2/3
f 258/7/3 253/7/3 257/7/3
f 259/7/3 256/7/3 255/7/3
f 259/2/3 254/2/3 258/2/3
f 259/7/3 255/7/3 254/7/3
f 260/7/3 256/7/3 259/7/3
f 261/7/3 256/7/3 260/7/3
f 263/7/3 262/7/3 261/7/3
f 263/7/3 261/7/3 260/7/3
f 264/7/3 262/7/3 263/7/3
f 267/7/3 266/7/3 265/7/3
f 268/7/3 266/7/3 267/7/3
f 271/6/3 270/6/3 269/6/3
f 272/6/3 270/6/3 271/6/3
f 275/7/3 274/7/3 273/7/3
f 276/7/3 274/7/3 275/7/3
f 277/6/4 278/6/4 279/6/4
f 279/6/4 278/6/4 280/6/4
f 281/2/4 282/2/4 283/2/4
f 283/2/4 282/2/4 284/2/4
f 284/6/4 285/6/4 286/6/4
f 286/6/4 285/6/4 287/6/4
f 287/6/4 288/6/4 289/6/4
f 289/6/4 288/6/4 290/6/4
f 291/6/4 292/6/4 293/6/4
f 293/6/4 292/6/4 294/6/4
f 295/6/4 296/6/4 297/6/4
f 297/6/4 296/6/4 298/6/4
f 299/6/4 300/6/4 302/6/4
f 302/6/4 300/6/4 303/6/4
f 301/6/4 302/6/4 306/6/4
f 306/6/4 302/6/4 307/6/4
f 304/7/4 305/7/4 309/7/4
f 305/2/4 306/2/4 310/2/4
f 309/7/4 305/7/4 310/7/4
f 306/7/4 307/7/4 311/7/4
f 310/2/4 306/2/4 311/2/4
f 307/7/4 308/7/4 311/7/4
f 311/7/4 308/7/4 312/7/4
f 312/7/4 308/7/4 313/7/4
f 313/7/4 314/7/4 315/7/4
f 312/7/4 313/7/4 315/7/4
f 315/7/4 314/7/4 316/7/4
f 317/7/4 318/7/4 319/7/4
f 319/7/4 318/7/4 320/7/4
f 326/7/4 327/7/4 328/7/4
f 328/7/4 327/7/4 329/7/4
f 330/7/4 331/7/4 332/7/4
f 332/7/4 331/7/4 333/7/4
f 321/6/4 322/6/4 334/6/4
f 322/2/4 323/2/4 335/2/4
f 334/6/4 322/6/4 335/6/4
f 335/2/4 323/2/4 336/2/4
f 324/7/4 325/7/4 337/7/4
f 337/7/4 325/7/4 338/7/4
f 343/7/4 344/7/4 345/7/4
f 345/7/4 344/7/4 346/7/4
f 339/6/4 340/6/4 347/6/4
f 347/6/4 340/6/4 348/6/4
f 341/7/4 342/7/4 349/7/4
f 349/7/4 342/7/4 350/7/4
f 351/7/4 352/7/4 353/7/4
f 353/7/4 352/7/4 354/7/4
f 357/6/5 356/6/5 355/6/5
f 358/6/5 356/6/5 357/6/5
f 359/6/5 357/6/5 355/6/5
f 362/6/5 356/6/5 358/6/5
f 365/6/5 360/6/5 359/6/5
f 365/6/5 359/6/5 355/6/5
f 366/6/5 360/6/5 365/6/5
f 367/6/5 362/6/5 361/6/5
f 368/6/5 356/6/5 362/6/5
f 368/6/5 362/6/5 367/6/5
f 369/7/5 364/7/5 363/7/5
f 370/7/5 364/7/5 369/7/5
f 371/6/5 365/6/5 355/6/5
f 372/6/5 356/6/5 368/6/5
f 373/6/5 371/6/5 355/6/5
f 373/6/5 372/6/5 371/6/5
f 374/6/5 356/6/5 372/6/5
f 374/6/5 372/6/5 373/6/5
f 377/6/5 376/6/5 375/6/5
f 378/6/5 376/6/5 377/6/5
f 379/6/5 376/6/5 378/6/5
f 380/6/5 376/6/5 379/6/5
f 382/6/5 379/6/5 378/6/5
f 383/6/5 379/6/5 382/6/5
f 385/6/5 382/6/5 381/6/5
f 385/6/5 384/6/5 383/6/5
f 385/6/5 383/6/5 382/6/5
f 386/6/5 384/6/5 385/6/5
f 389/2/5 388/2/5 387/2/5
f 390/2/5 388/2/5 389/2/5
f 395/6/5 392/6/5 391/6/5
f 396/6/5 392/6/5 395/6/5
f 397/6/5 394/6/5 393/6/5
f 398/6/5 394/6/5 397/6/5
f 403/6/5 400/6/5 399/6/5
f 404/6/5 400/6/5 403/6/5
f 405/6/5 402/6/5 401/6/5
f 406/6/5 402/6/5 405/6/5
f 409/7/5 408/7/5 407/7/5
f 410/7/5 408/7/5 409/7/5
f 415/11/5 412/11/5 411/11/5
f 416/11/5 412/11/5 415/11/5
f 417/11/5 412/11/5 416/11/5
f 418/11/5 414/11/5 413/11/5
f 419/11/5 414/11/5 418/11/5
f 420/11/5 414/11/5 419/11/5
f 423/7/5 422/7/5 421/7/5
f 424/7/5 422/7/5 423/7/5
f 425/7/5 423/7/5 421/7/5
f 426/7/5 422/7/5 424/7/5
f 427/7/5 425/7/5 421/7/5
f 427/7/5 426/7/5 425/7/5
f 428/7/5 422/7/5 426/7/5
f 428/7/5 426/7/5 427/7/5
f 431/7/5 430/7/5 429/7/5
f 432/7/5 430/7/5 431/7/5
f 435/7/5 434/7/5 433/7/5
f 436/7/5 434/7/5 435/7/5
f 437/7/5 434/7/5 436/7/5
f 438/7/5 434/7/5 437/7/5
f 439/6/6 440/6/6 441/6/6
f 441/6/6 440/6/6 442/6/6
f 439/6/6 441/6/6 443/6/6
f 442/6/6 440/6/6 444/6/6
f 439/6/6 443/6/6 445/6/6
f 443/6/6 444/6/6 445/6/6
f 444/6/6 440/6/6 446/6/6
f 445/6/6 444/6/6 446/6/6
f 447/2/6 448/2/6 449/2/6
f 449/2/6 448/2/6 450/2/6
f 451/6/6 452/6/6 455/6/6
f 455/6/6 452/6/6 456/6/6
f 453/6/6 454/6/6 457/6/6
f 457/6/6 454/6/6 458/6/6
f 459/6/6 460/6/6 463/6/6
f 463/6/6 460/6/6 464/6/6
f 461/6/6 462/6/6 465/6/6
f 465/6/6 462/6/6 466/6/6
f 467/7/6 468/7/6 469/7/6
f 469/7/6 468/7/6 470/7/6
f 471/11/6 472/11/6 475/11/6
f 475/11/6 472/11/6 476/11/6
f 473/11/6 474/11/6 477/11/6
f 477/11/6 474/11/6 478/11/6
f 479/7/6 480/7/6 481/7/6
f 481/7/6 480/7/6 482/7/6
f 483/7/6 484/7/6 485/7/6
f 485/7/6 484/7/6 486/7/6
f 483/7/6 485/7/6 487/7/6
f 486/7/6 484/7/6 488/7/6
f 483/7/6 487/7/6 489/7/6
f 487/7/6 488/7/6 489/7/6
f 488/7/6 484/7/6 490/7/6
f 489/7/6 488/7/6 490/7/6
f 491/7/6 492/7/6 493/7/6
f 493/7/6 492/7/6 494/7/6
f 491/7/6 493/7/6 495/7/6
f 494/7/6 492/7/6 496/7/6
f 491/7/6 495/7/6 497/7/6
f 495/7/6 496/7/6 497/7/6
f 496/7/6 492/7/6 498/7/6
f 497/7/6 496/7/6 498/7/6
f 499/7/6 500/7/6 501/7/6
f 501/7/6 500/7/6 502/7/6
f 499/7/6 501/7/6 503/7/6
f 502/7/6 500/7/6 504/7/6
f 499/7/6 503/7/6 505/7/6
f 503/7/6 504/7/6 505/7/6
f 504/7/6 500/7/6 506/7/6
f 505/7/6 504/7/6 506/7/6
f 507/7/6 508/7/6 509/7/6
f 509/7/6 508/7/6 510/7/6
f 511/7/6 512/7/6 513/7/6
f 513/7/6 512/7/6 514/7/6
f 515/7/6 516/7/6 517/7/6
f 517/7/6 516/7/6 518/7/6
f 518/7/6 516/7/6 519/7/6
f 519/7/6 516/7/6 520/7/6
f 518/7/6 519/7/6 521/7/6
f 521/7/6 519/7/6 522/7/6
