# MagicaVoxel @ Ephtracy

# material
mtllib BattleAxe.mtl
usemtl palette

# normals
vn -1 0 0
vn 1 0 0
vn 0 0 1
vn 0 0 -1
vn 0 -1 0
vn 0 1 0

# texcoords
vt 0.373047 0.5
vt 0.958984 0.5
vt 0.978516 0.5

# verts
v -2 0 0.5
v -2 0 -4.5
v -2 1 0.5
v -2 1 -4.5
v -1 0 1.5
v -1 0 0.5
v -1 0 -4.5
v -1 0 -5.5
v -1 1 1.5
v -1 1 0.5
v -1 1 -4.5
v -1 1 -5.5
v 0 0 2.5
v 0 0 1.5
v 0 0 -5.5
v 0 0 -6.5
v 0 1 2.5
v 0 1 1.5
v 0 1 -5.5
v 0 1 -6.5
v 1 0 6.5
v 1 0 2.5
v 1 0 1.5
v 1 0 0.5
v 1 1 6.5
v 1 1 2.5
v 1 1 1.5
v 1 1 0.5
v 0 0 1.5
v 0 0 0.5
v 0 0 -4.5
v 0 0 -5.5
v 0 1 1.5
v 0 1 0.5
v 0 1 -4.5
v 0 1 -5.5
v 1 0 -5.5
v 1 0 -6.5
v 1 1 -5.5
v 1 1 -6.5
v 2 0 6.5
v 2 0 -1.5
v 2 0 -4.5
v 2 1 6.5
v 2 1 -1.5
v 2 1 -4.5
v 1 0 6.5
v 1 1 6.5
v 2 0 6.5
v 2 1 6.5
v 0 0 2.5
v 0 1 2.5
v 1 0 2.5
v 1 1 2.5
v -1 0 1.5
v -1 1 1.5
v 0 0 1.5
v 0 1 1.5
v -2 0 0.5
v -2 1 0.5
v -1 0 0.5
v -1 1 0.5
v 0 0 0.5
v 0 1 0.5
v 1 0 0.5
v 1 1 0.5
v 0 0 -5.5
v 0 1 -5.5
v 1 0 -5.5
v 1 1 -5.5
v 0 0 1.5
v 0 1 1.5
v 1 0 1.5
v 1 1 1.5
v -2 0 -4.5
v -2 1 -4.5
v -1 0 -4.5
v -1 1 -4.5
v 0 0 -4.5
v 0 1 -4.5
v 2 0 -4.5
v 2 1 -4.5
v -1 0 -5.5
v -1 1 -5.5
v 0 0 -5.5
v 0 1 -5.5
v 0 0 -6.5
v 0 1 -6.5
v 1 0 -6.5
v 1 1 -6.5
v 1 0 6.5
v 2 0 6.5
v 0 0 2.5
v 1 0 2.5
v -1 0 1.5
v 0 0 1.5
v 1 0 1.5
v -2 0 0.5
v -1 0 0.5
v 0 0 0.5
v 1 0 0.5
v 1 0 -1.5
v 2 0 -1.5
v -2 0 -4.5
v -1 0 -4.5
v 0 0 -4.5
v 2 0 -4.5
v -1 0 -5.5
v 0 0 -5.5
v 1 0 -5.5
v 0 0 -6.5
v 1 0 -6.5
v 1 1 6.5
v 2 1 6.5
v 0 1 2.5
v 1 1 2.5
v -1 1 1.5
v 0 1 1.5
v 1 1 1.5
v -2 1 0.5
v -1 1 0.5
v 0 1 0.5
v 1 1 0.5
v 1 1 -1.5
v 2 1 -1.5
v -2 1 -4.5
v -1 1 -4.5
v 0 1 -4.5
v 2 1 -4.5
v -1 1 -5.5
v 0 1 -5.5
v 1 1 -5.5
v 0 1 -6.5
v 1 1 -6.5

# faces
f 3/2/1 2/2/1 1/2/1
f 4/2/1 2/2/1 3/2/1
f 9/2/1 6/2/1 5/2/1
f 10/2/1 6/2/1 9/2/1
f 11/2/1 8/2/1 7/2/1
f 12/2/1 8/2/1 11/2/1
f 17/2/1 14/2/1 13/2/1
f 18/2/1 14/2/1 17/2/1
f 19/2/1 16/2/1 15/2/1
f 20/2/1 16/2/1 19/2/1
f 25/1/1 22/1/1 21/1/1
f 26/1/1 22/1/1 25/1/1
f 27/1/1 24/1/1 23/1/1
f 28/1/1 24/1/1 27/1/1
f 29/2/2 30/2/2 33/2/2
f 33/2/2 30/2/2 34/2/2
f 31/2/2 32/2/2 35/2/2
f 35/2/2 32/2/2 36/2/2
f 37/2/2 38/2/2 39/2/2
f 39/2/2 38/2/2 40/2/2
f 41/1/2 42/1/2 44/1/2
f 42/3/2 43/3/2 45/3/2
f 44/1/2 42/1/2 45/1/2
f 45/3/2 43/3/2 46/3/2
f 49/1/3 48/1/3 47/1/3
f 50/1/3 48/1/3 49/1/3
f 53/2/3 52/2/3 51/2/3
f 54/2/3 52/2/3 53/2/3
f 57/2/3 56/2/3 55/2/3
f 58/2/3 56/2/3 57/2/3
f 61/2/3 60/2/3 59/2/3
f 62/2/3 60/2/3 61/2/3
f 65/3/3 64/3/3 63/3/3
f 66/3/3 64/3/3 65/3/3
f 69/2/3 68/2/3 67/2/3
f 70/2/3 68/2/3 69/2/3
f 71/2/4 72/2/4 73/2/4
f 73/2/4 72/2/4 74/2/4
f 75/2/4 76/2/4 77/2/4
f 77/2/4 76/2/4 78/2/4
f 79/3/4 80/3/4 81/3/4
f 81/3/4 80/3/4 82/3/4
f 83/2/4 84/2/4 85/2/4
f 85/2/4 84/2/4 86/2/4
f 87/2/4 88/2/4 89/2/4
f 89/2/4 88/2/4 90/2/4
f 94/1/5 92/1/5 91/1/5
f 96/2/5 94/2/5 93/2/5
f 97/1/5 92/1/5 94/1/5
f 97/2/5 94/2/5 96/2/5
f 99/2/5 96/2/5 95/2/5
f 100/2/5 96/2/5 99/2/5
f 101/1/5 92/1/5 97/1/5
f 102/3/5 100/3/5 99/3/5
f 102/3/5 101/3/5 100/3/5
f 102/1/5 92/1/5 101/1/5
f 103/1/5 92/1/5 102/1/5
f 104/2/5 99/2/5 98/2/5
f 105/3/5 102/3/5 99/3/5
f 105/2/5 99/2/5 104/2/5
f 105/3/5 103/3/5 102/3/5
f 106/3/5 103/3/5 105/3/5
f 107/3/5 103/3/5 106/3/5
f 108/2/5 106/2/5 105/2/5
f 109/2/5 106/2/5 108/2/5
f 111/2/5 110/2/5 109/2/5
f 112/2/5 110/2/5 111/2/5
f 113/1/6 114/1/6 116/1/6
f 115/2/6 116/2/6 118/2/6
f 116/1/6 114/1/6 119/1/6
f 118/2/6 116/2/6 119/2/6
f 117/2/6 118/2/6 121/2/6
f 121/2/6 118/2/6 122/2/6
f 119/1/6 114/1/6 123/1/6
f 121/3/6 122/3/6 124/3/6
f 122/3/6 123/3/6 124/3/6
f 123/1/6 114/1/6 124/1/6
f 124/1/6 114/1/6 125/1/6
f 120/2/6 121/2/6 126/2/6
f 121/3/6 124/3/6 127/3/6
f 126/2/6 121/2/6 127/2/6
f 124/3/6 125/3/6 127/3/6
f 127/3/6 125/3/6 128/3/6
f 128/3/6 125/3/6 129/3/6
f 127/2/6 128/2/6 130/2/6
f 130/2/6 128/2/6 131/2/6
f 131/2/6 132/2/6 133/2/6
f 133/2/6 132/2/6 134/2/6
