# MagicaVoxel @ Ephtracy

# material
mtllib Shield.mtl
usemtl palette

# normals
vn -1 0 0
vn 1 0 0
vn 0 0 1
vn 0 0 -1
vn 0 -1 0
vn 0 1 0

# texcoords
vt 0.275391 0.5
vt 0.685547 0.5
vt 0.974609 0.5
vt 0.994141 0.5

# verts
v -6 6 0.5
v -6 6 -0.5
v -6 12 0.5
v -6 12 -0.5
v -5 4 0.5
v -5 4 -0.5
v -5 6 0.5
v -5 6 -0.5
v -5 12 0.5
v -5 12 -0.5
v -5 13 0.5
v -5 13 -0.5
v -4 2 0.5
v -4 2 -0.5
v -4 4 0.5
v -4 4 -0.5
v -3 1 0.5
v -3 1 -0.5
v -3 2 0.5
v -3 2 -0.5
v -3 13 0.5
v -3 13 -0.5
v -3 14 0.5
v -3 14 -0.5
v -2 0 0.5
v -2 0 -0.5
v -2 1 0.5
v -2 1 -0.5
v -1 14 0.5
v -1 14 -0.5
v -1 15 0.5
v -1 15 -0.5
v 1 14 0.5
v 1 14 -0.5
v 1 15 0.5
v 1 15 -0.5
v 2 0 0.5
v 2 0 -0.5
v 2 1 0.5
v 2 1 -0.5
v 3 1 0.5
v 3 1 -0.5
v 3 2 0.5
v 3 2 -0.5
v 3 13 0.5
v 3 13 -0.5
v 3 14 0.5
v 3 14 -0.5
v 4 2 0.5
v 4 2 -0.5
v 4 4 0.5
v 4 4 -0.5
v 5 4 0.5
v 5 4 -0.5
v 5 6 0.5
v 5 6 -0.5
v 5 12 0.5
v 5 12 -0.5
v 5 13 0.5
v 5 13 -0.5
v 6 6 0.5
v 6 6 -0.5
v 6 12 0.5
v 6 12 -0.5
v -6 6 0.5
v -6 12 0.5
v -5 4 0.5
v -5 6 0.5
v -5 12 0.5
v -5 13 0.5
v -4 2 0.5
v -4 4 0.5
v -4 6 0.5
v -4 11 0.5
v -3 1 0.5
v -3 2 0.5
v -3 4 0.5
v -3 6 0.5
v -3 8 0.5
v -3 10 0.5
v -3 11 0.5
v -3 12 0.5
v -3 13 0.5
v -3 14 0.5
v -2 0 0.5
v -2 1 0.5
v -2 2 0.5
v -2 4 0.5
v -2 6 0.5
v -2 8 0.5
v -1 4 0.5
v -1 6 0.5
v -1 10 0.5
v -1 11 0.5
v -1 12 0.5
v -1 13 0.5
v -1 14 0.5
v -1 15 0.5
v 1 4 0.5
v 1 6 0.5
v 1 10 0.5
v 1 11 0.5
v 1 12 0.5
v 1 13 0.5
v 1 14 0.5
v 1 15 0.5
v 2 0 0.5
v 2 1 0.5
v 2 2 0.5
v 2 4 0.5
v 2 6 0.5
v 2 8 0.5
v 3 1 0.5
v 3 2 0.5
v 3 4 0.5
v 3 6 0.5
v 3 8 0.5
v 3 10 0.5
v 3 11 0.5
v 3 12 0.5
v 3 13 0.5
v 3 14 0.5
v 4 2 0.5
v 4 4 0.5
v 4 6 0.5
v 4 11 0.5
v 5 4 0.5
v 5 6 0.5
v 5 12 0.5
v 5 13 0.5
v 6 6 0.5
v 6 12 0.5
v -6 6 -0.5
v -6 12 -0.5
v -5 4 -0.5
v -5 6 -0.5
v -5 12 -0.5
v -5 13 -0.5
v -4 2 -0.5
v -4 4 -0.5
v -4 6 -0.5
v -4 11 -0.5
v -3 1 -0.5
v -3 2 -0.5
v -3 4 -0.5
v -3 6 -0.5
v -3 8 -0.5
v -3 10 -0.5
v -3 11 -0.5
v -3 12 -0.5
v -3 13 -0.5
v -3 14 -0.5
v -2 0 -0.5
v -2 1 -0.5
v -2 2 -0.5
v -2 4 -0.5
v -2 6 -0.5
v -2 8 -0.5
v -1 4 -0.5
v -1 6 -0.5
v -1 10 -0.5
v -1 11 -0.5
v -1 12 -0.5
v -1 13 -0.5
v -1 14 -0.5
v -1 15 -0.5
v 1 4 -0.5
v 1 6 -0.5
v 1 10 -0.5
v 1 11 -0.5
v 1 12 -0.5
v 1 13 -0.5
v 1 14 -0.5
v 1 15 -0.5
v 2 0 -0.5
v 2 1 -0.5
v 2 2 -0.5
v 2 4 -0.5
v 2 6 -0.5
v 2 8 -0.5
v 3 1 -0.5
v 3 2 -0.5
v 3 4 -0.5
v 3 6 -0.5
v 3 8 -0.5
v 3 10 -0.5
v 3 11 -0.5
v 3 12 -0.5
v 3 13 -0.5
v 3 14 -0.5
v 4 2 -0.5
v 4 4 -0.5
v 4 6 -0.5
v 4 11 -0.5
v 5 4 -0.5
v 5 6 -0.5
v 5 12 -0.5
v 5 13 -0.5
v 6 6 -0.5
v 6 12 -0.5
v -2 0 0.5
v 2 0 0.5
v -2 0 -0.5
v 2 0 -0.5
v -3 1 0.5
v -2 1 0.5
v 2 1 0.5
v 3 1 0.5
v -3 1 -0.5
v -2 1 -0.5
v 2 1 -0.5
v 3 1 -0.5
v -4 2 0.5
v -3 2 0.5
v 3 2 0.5
v 4 2 0.5
v -4 2 -0.5
v -3 2 -0.5
v 3 2 -0.5
v 4 2 -0.5
v -5 4 0.5
v -4 4 0.5
v 4 4 0.5
v 5 4 0.5
v -5 4 -0.5
v -4 4 -0.5
v 4 4 -0.5
v 5 4 -0.5
v -6 6 0.5
v -5 6 0.5
v 5 6 0.5
v 6 6 0.5
v -6 6 -0.5
v -5 6 -0.5
v 5 6 -0.5
v 6 6 -0.5
v -6 12 0.5
v -5 12 0.5
v 5 12 0.5
v 6 12 0.5
v -6 12 -0.5
v -5 12 -0.5
v 5 12 -0.5
v 6 12 -0.5
v -5 13 0.5
v -3 13 0.5
v 3 13 0.5
v 5 13 0.5
v -5 13 -0.5
v -3 13 -0.5
v 3 13 -0.5
v 5 13 -0.5
v -3 14 0.5
v -1 14 0.5
v 1 14 0.5
v 3 14 0.5
v -3 14 -0.5
v -1 14 -0.5
v 1 14 -0.5
v 3 14 -0.5
v -1 15 0.5
v 1 15 0.5
v -1 15 -0.5
v 1 15 -0.5

# faces
f 3/4/1 2/4/1 1/4/1
f 4/4/1 2/4/1 3/4/1
f 7/4/1 6/4/1 5/4/1
f 8/4/1 6/4/1 7/4/1
f 11/4/1 10/4/1 9/4/1
f 12/4/1 10/4/1 11/4/1
f 15/4/1 14/4/1 13/4/1
f 16/4/1 14/4/1 15/4/1
f 19/4/1 18/4/1 17/4/1
f 20/4/1 18/4/1 19/4/1
f 23/4/1 22/4/1 21/4/1
f 24/4/1 22/4/1 23/4/1
f 27/4/1 26/4/1 25/4/1
f 28/4/1 26/4/1 27/4/1
f 31/4/1 30/4/1 29/4/1
f 32/4/1 30/4/1 31/4/1
f 33/4/2 34/4/2 35/4/2
f 35/4/2 34/4/2 36/4/2
f 37/4/2 38/4/2 39/4/2
f 39/4/2 38/4/2 40/4/2
f 41/4/2 42/4/2 43/4/2
f 43/4/2 42/4/2 44/4/2
f 45/4/2 46/4/2 47/4/2
f 47/4/2 46/4/2 48/4/2
f 49/4/2 50/4/2 51/4/2
f 51/4/2 50/4/2 52/4/2
f 53/4/2 54/4/2 55/4/2
f 55/4/2 54/4/2 56/4/2
f 57/4/2 58/4/2 59/4/2
f 59/4/2 58/4/2 60/4/2
f 61/4/2 62/4/2 63/4/2
f 63/4/2 62/4/2 64/4/2
f 68/4/3 66/4/3 65/4/3
f 69/4/3 66/4/3 68/4/3
f 72/4/3 68/4/3 67/4/3
f 73/3/3 69/3/3 68/3/3
f 73/4/3 68/4/3 72/4/3
f 74/3/3 69/3/3 73/3/3
f 76/4/3 72/4/3 71/4/3
f 77/3/3 73/3/3 72/3/3
f 77/4/3 72/4/3 76/4/3
f 78/2/3 74/2/3 73/2/3
f 78/3/3 73/3/3 77/3/3
f 79/2/3 74/2/3 78/2/3
f 80/2/3 74/2/3 79/2/3
f 81/3/3 69/3/3 74/3/3
f 81/2/3 74/2/3 80/2/3
f 82/4/3 70/4/3 69/4/3
f 82/3/3 69/3/3 81/3/3
f 83/4/3 70/4/3 82/4/3
f 86/4/3 76/4/3 75/4/3
f 87/3/3 77/3/3 76/3/3
f 87/4/3 76/4/3 86/4/3
f 88/2/3 78/2/3 77/2/3
f 88/3/3 77/3/3 87/3/3
f 88/2/3 79/2/3 78/2/3
f 89/2/3 79/2/3 88/2/3
f 90/1/3 80/1/3 79/1/3
f 90/2/3 79/2/3 89/2/3
f 91/2/3 89/2/3 88/2/3
f 91/2/3 88/2/3 87/2/3
f 92/1/3 90/1/3 89/1/3
f 92/2/3 89/2/3 91/2/3
f 93/2/3 81/2/3 80/2/3
f 93/1/3 90/1/3 92/1/3
f 93/1/3 80/1/3 90/1/3
f 93/2/3 82/2/3 81/2/3
f 94/2/3 82/2/3 93/2/3
f 95/3/3 83/3/3 82/3/3
f 95/2/3 82/2/3 94/2/3
f 96/4/3 84/4/3 83/4/3
f 96/3/3 83/3/3 95/3/3
f 97/4/3 84/4/3 96/4/3
f 99/1/3 92/1/3 91/1/3
f 99/2/3 91/2/3 87/2/3
f 99/1/3 94/1/3 93/1/3
f 99/1/3 93/1/3 92/1/3
f 100/1/3 94/1/3 99/1/3
f 101/1/3 94/1/3 100/1/3
f 102/2/3 95/2/3 94/2/3
f 102/1/3 94/1/3 101/1/3
f 102/2/3 96/2/3 95/2/3
f 103/2/3 96/2/3 102/2/3
f 104/3/3 97/3/3 96/3/3
f 104/2/3 96/2/3 103/2/3
f 105/4/3 98/4/3 97/4/3
f 105/3/3 97/3/3 104/3/3
f 106/4/3 98/4/3 105/4/3
f 107/4/3 86/4/3 85/4/3
f 108/3/3 87/3/3 86/3/3
f 108/4/3 86/4/3 107/4/3
f 109/2/3 100/2/3 99/2/3
f 109/3/3 87/3/3 108/3/3
f 109/2/3 99/2/3 87/2/3
f 110/2/3 100/2/3 109/2/3
f 111/1/3 101/1/3 100/1/3
f 111/2/3 100/2/3 110/2/3
f 112/1/3 101/1/3 111/1/3
f 113/4/3 109/4/3 108/4/3
f 114/3/3 110/3/3 109/3/3
f 114/4/3 109/4/3 113/4/3
f 115/2/3 112/2/3 111/2/3
f 115/3/3 110/3/3 114/3/3
f 115/2/3 111/2/3 110/2/3
f 116/2/3 112/2/3 115/2/3
f 117/1/3 101/1/3 112/1/3
f 117/2/3 112/2/3 116/2/3
f 118/2/3 103/2/3 102/2/3
f 118/1/3 101/1/3 117/1/3
f 118/2/3 102/2/3 101/2/3
f 119/2/3 103/2/3 118/2/3
f 120/3/3 104/3/3 103/3/3
f 120/2/3 103/2/3 119/2/3
f 121/4/3 105/4/3 104/4/3
f 121/3/3 104/3/3 120/3/3
f 122/4/3 105/4/3 121/4/3
f 123/4/3 115/4/3 114/4/3
f 124/3/3 116/3/3 115/3/3
f 124/4/3 115/4/3 123/4/3
f 125/2/3 119/2/3 118/2/3
f 125/3/3 116/3/3 124/3/3
f 125/2/3 117/2/3 116/2/3
f 125/2/3 118/2/3 117/2/3
f 126/3/3 120/3/3 119/3/3
f 126/2/3 119/2/3 125/2/3
f 127/4/3 125/4/3 124/4/3
f 128/3/3 126/3/3 125/3/3
f 128/4/3 125/4/3 127/4/3
f 129/3/3 120/3/3 126/3/3
f 129/3/3 126/3/3 128/3/3
f 129/4/3 121/4/3 120/4/3
f 130/4/3 121/4/3 129/4/3
f 131/4/3 129/4/3 128/4/3
f 132/4/3 129/4/3 131/4/3
f 133/4/4 134/4/4 136/4/4
f 136/4/4 134/4/4 137/4/4
f 135/4/4 136/4/4 140/4/4
f 136/3/4 137/3/4 141/3/4
f 140/4/4 136/4/4 141/4/4
f 141/3/4 137/3/4 142/3/4
f 139/4/4 140/4/4 144/4/4
f 140/3/4 141/3/4 145/3/4
f 144/4/4 140/4/4 145/4/4
f 141/2/4 142/2/4 146/2/4
f 145/3/4 141/3/4 146/3/4
f 146/2/4 142/2/4 147/2/4
f 147/2/4 142/2/4 148/2/4
f 142/3/4 137/3/4 149/3/4
f 148/2/4 142/2/4 149/2/4
f 137/4/4 138/4/4 150/4/4
f 149/3/4 137/3/4 150/3/4
f 150/4/4 138/4/4 151/4/4
f 143/4/4 144/4/4 154/4/4
f 144/3/4 145/3/4 155/3/4
f 154/4/4 144/4/4 155/4/4
f 145/2/4 146/2/4 156/2/4
f 155/3/4 145/3/4 156/3/4
f 146/2/4 147/2/4 156/2/4
f 156/2/4 147/2/4 157/2/4
f 147/1/4 148/1/4 158/1/4
f 157/2/4 147/2/4 158/2/4
f 156/2/4 157/2/4 159/2/4
f 155/2/4 156/2/4 159/2/4
f 157/1/4 158/1/4 160/1/4
f 159/2/4 157/2/4 160/2/4
f 148/2/4 149/2/4 161/2/4
f 160/1/4 158/1/4 161/1/4
f 158/1/4 148/1/4 161/1/4
f 149/2/4 150/2/4 161/2/4
f 161/2/4 150/2/4 162/2/4
f 150/3/4 151/3/4 163/3/4
f 162/2/4 150/2/4 163/2/4
f 151/4/4 152/4/4 164/4/4
f 163/3/4 151/3/4 164/3/4
f 164/4/4 152/4/4 165/4/4
f 159/1/4 160/1/4 167/1/4
f 155/2/4 159/2/4 167/2/4
f 161/1/4 162/1/4 167/1/4
f 160/1/4 161/1/4 167/1/4
f 167/1/4 162/1/4 168/1/4
f 168/1/4 162/1/4 169/1/4
f 162/2/4 163/2/4 170/2/4
f 169/1/4 162/1/4 170/1/4
f 163/2/4 164/2/4 170/2/4
f 170/2/4 164/2/4 171/2/4
f 164/3/4 165/3/4 172/3/4
f 171/2/4 164/2/4 172/2/4
f 165/4/4 166/4/4 173/4/4
f 172/3/4 165/3/4 173/3/4
f 173/4/4 166/4/4 174/4/4
f 153/4/4 154/4/4 175/4/4
f 154/3/4 155/3/4 176/3/4
f 175/4/4 154/4/4 176/4/4
f 167/2/4 168/2/4 177/2/4
f 176/3/4 155/3/4 177/3/4
f 155/2/4 167/2/4 177/2/4
f 177/2/4 168/2/4 178/2/4
f 168/1/4 169/1/4 179/1/4
f 178/2/4 168/2/4 179/2/4
f 179/1/4 169/1/4 180/1/4
f 176/4/4 177/4/4 181/4/4
f 177/3/4 178/3/4 182/3/4
f 181/4/4 177/4/4 182/4/4
f 179/2/4 180/2/4 183/2/4
f 182/3/4 178/3/4 183/3/4
f 178/2/4 179/2/4 183/2/4
f 183/2/4 180/2/4 184/2/4
f 180/1/4 169/1/4 185/1/4
f 184/2/4 180/2/4 185/2/4
f 170/2/4 171/2/4 186/2/4
f 185/1/4 169/1/4 186/1/4
f 169/2/4 170/2/4 186/2/4
f 186/2/4 171/2/4 187/2/4
f 171/3/4 172/3/4 188/3/4
f 187/2/4 171/2/4 188/2/4
f 172/4/4 173/4/4 189/4/4
f 188/3/4 172/3/4 189/3/4
f 189/4/4 173/4/4 190/4/4
f 182/4/4 183/4/4 191/4/4
f 183/3/4 184/3/4 192/3/4
f 191/4/4 183/4/4 192/4/4
f 186/2/4 187/2/4 193/2/4
f 192/3/4 184/3/4 193/3/4
f 184/2/4 185/2/4 193/2/4
f 185/2/4 186/2/4 193/2/4
f 187/3/4 188/3/4 194/3/4
f 193/2/4 187/2/4 194/2/4
f 192/4/4 193/4/4 195/4/4
f 193/3/4 194/3/4 196/3/4
f 195/4/4 193/4/4 196/4/4
f 194/3/4 188/3/4 197/3/4
f 196/3/4 194/3/4 197/3/4
f 188/4/4 189/4/4 197/4/4
f 197/4/4 189/4/4 198/4/4
f 196/4/4 197/4/4 199/4/4
f 199/4/4 197/4/4 200/4/4
f 203/4/5 202/4/5 201/4/5
f 204/4/5 202/4/5 203/4/5
f 209/4/5 206/4/5 205/4/5
f 210/4/5 206/4/5 209/4/5
f 211/4/5 208/4/5 207/4/5
f 212/4/5 208/4/5 211/4/5
f 217/4/5 214/4/5 213/4/5
f 218/4/5 214/4/5 217/4/5
f 219/4/5 216/4/5 215/4/5
f 220/4/5 216/4/5 219/4/5
f 225/4/5 222/4/5 221/4/5
f 226/4/5 222/4/5 225/4/5
f 227/4/5 224/4/5 223/4/5
f 228/4/5 224/4/5 227/4/5
f 233/4/5 230/4/5 229/4/5
f 234/4/5 230/4/5 233/4/5
f 235/4/5 232/4/5 231/4/5
f 236/4/5 232/4/5 235/4/5
f 237/4/6 238/4/6 241/4/6
f 241/4/6 238/4/6 242/4/6
f 239/4/6 240/4/6 243/4/6
f 243/4/6 240/4/6 244/4/6
f 245/4/6 246/4/6 249/4/6
f 249/4/6 246/4/6 250/4/6
f 247/4/6 248/4/6 251/4/6
f 251/4/6 248/4/6 252/4/6
f 253/4/6 254/4/6 257/4/6
f 257/4/6 254/4/6 258/4/6
f 255/4/6 256/4/6 259/4/6
f 259/4/6 256/4/6 260/4/6
f 261/4/6 262/4/6 263/4/6
f 263/4/6 262/4/6 264/4/6
