# MagicaVoxel @ Ephtracy

# material
mtllib Bush3.mtl
usemtl palette

# normals
vn -1 0 0
vn 1 0 0
vn 0 0 1
vn 0 0 -1
vn 0 -1 0
vn 0 1 0

# texcoords
vt 0.537109 0.5
vt 0.888672 0.5
vt 0.892578 0.5
vt 0.896484 0.5
vt 0.900391 0.5
vt 0.904297 0.5

# verts
v -5 1 5
v -5 1 -5
v -5 3 5
v -5 3 -5
v -4 3 4
v -4 3 -4
v -4 5 4
v -4 5 -4
v -3 5 3
v -3 5 -3
v -3 7 3
v -3 7 -3
v -2 7 2
v -2 7 -2
v -2 9 2
v -2 9 -2
v -1 0 1
v -1 0 -0
v -1 1 1
v -1 1 -0
v -1 9 1
v -1 9 -1
v -1 10 1
v -1 10 -1
v 0 0 1
v 0 0 -0
v 0 1 1
v 0 1 -0
v 1 9 1
v 1 9 -1
v 1 10 1
v 1 10 -1
v 2 7 2
v 2 7 -2
v 2 9 2
v 2 9 -2
v 3 5 3
v 3 5 -3
v 3 7 3
v 3 7 -3
v 4 3 4
v 4 3 -4
v 4 5 4
v 4 5 -4
v 5 1 5
v 5 1 -5
v 5 3 5
v 5 3 -5
v -5 1 5
v -5 3 5
v 5 1 5
v 5 3 5
v -4 3 4
v -4 5 4
v 4 3 4
v 4 5 4
v -3 5 3
v -3 7 3
v 3 5 3
v 3 7 3
v -2 7 2
v -2 9 2
v 2 7 2
v 2 9 2
v -1 0 1
v -1 1 1
v -1 9 1
v -1 10 1
v 0 0 1
v 0 1 1
v 1 9 1
v 1 10 1
v -1 0 -0
v -1 1 -0
v 0 0 -0
v 0 1 -0
v -1 9 -1
v -1 10 -1
v 1 9 -1
v 1 10 -1
v -2 7 -2
v -2 9 -2
v 2 7 -2
v 2 9 -2
v -3 5 -3
v -3 7 -3
v 3 5 -3
v 3 7 -3
v -4 3 -4
v -4 5 -4
v 4 3 -4
v 4 5 -4
v -5 1 -5
v -5 3 -5
v 5 1 -5
v 5 3 -5
v -1 0 1
v 0 0 1
v -1 0 -0
v 0 0 -0
v -5 1 5
v 5 1 5
v -1 1 1
v 0 1 1
v -1 1 -0
v 0 1 -0
v -5 1 -5
v 5 1 -5
v -5 3 5
v 5 3 5
v -4 3 4
v 4 3 4
v -4 3 -4
v 4 3 -4
v -5 3 -5
v 5 3 -5
v -4 5 4
v 4 5 4
v -3 5 3
v 3 5 3
v -3 5 -3
v 3 5 -3
v -4 5 -4
v 4 5 -4
v -3 7 3
v 3 7 3
v -2 7 2
v 2 7 2
v -2 7 -2
v 2 7 -2
v -3 7 -3
v 3 7 -3
v -2 9 2
v 2 9 2
v -1 9 1
v 1 9 1
v -1 9 -1
v 1 9 -1
v -2 9 -2
v 2 9 -2
v -1 10 1
v 1 10 1
v -1 10 -1
v 1 10 -1

# faces
f 3/3/1 2/3/1 1/3/1
f 4/3/1 2/3/1 3/3/1
f 7/4/1 6/4/1 5/4/1
f 8/4/1 6/4/1 7/4/1
f 11/5/1 10/5/1 9/5/1
f 12/5/1 10/5/1 11/5/1
f 15/6/1 14/6/1 13/6/1
f 16/6/1 14/6/1 15/6/1
f 19/1/1 18/1/1 17/1/1
f 20/1/1 18/1/1 19/1/1
f 23/2/1 22/2/1 21/2/1
f 24/2/1 22/2/1 23/2/1
f 25/1/2 26/1/2 27/1/2
f 27/1/2 26/1/2 28/1/2
f 29/2/2 30/2/2 31/2/2
f 31/2/2 30/2/2 32/2/2
f 33/6/2 34/6/2 35/6/2
f 35/6/2 34/6/2 36/6/2
f 37/5/2 38/5/2 39/5/2
f 39/5/2 38/5/2 40/5/2
f 41/4/2 42/4/2 43/4/2
f 43/4/2 42/4/2 44/4/2
f 45/3/2 46/3/2 47/3/2
f 47/3/2 46/3/2 48/3/2
f 51/3/3 50/3/3 49/3/3
f 52/3/3 50/3/3 51/3/3
f 55/4/3 54/4/3 53/4/3
f 56/4/3 54/4/3 55/4/3
f 59/5/3 58/5/3 57/5/3
f 60/5/3 58/5/3 59/5/3
f 63/6/3 62/6/3 61/6/3
f 64/6/3 62/6/3 63/6/3
f 69/1/3 66/1/3 65/1/3
f 70/1/3 66/1/3 69/1/3
f 71/2/3 68/2/3 67/2/3
f 72/2/3 68/2/3 71/2/3
f 73/1/4 74/1/4 75/1/4
f 75/1/4 74/1/4 76/1/4
f 77/2/4 78/2/4 79/2/4
f 79/2/4 78/2/4 80/2/4
f 81/6/4 82/6/4 83/6/4
f 83/6/4 82/6/4 84/6/4
f 85/5/4 86/5/4 87/5/4
f 87/5/4 86/5/4 88/5/4
f 89/4/4 90/4/4 91/4/4
f 91/4/4 90/4/4 92/4/4
f 93/3/4 94/3/4 95/3/4
f 95/3/4 94/3/4 96/3/4
f 99/1/5 98/1/5 97/1/5
f 100/1/5 98/1/5 99/1/5
f 103/3/5 102/3/5 101/3/5
f 104/3/5 102/3/5 103/3/5
f 105/3/5 103/3/5 101/3/5
f 106/3/5 102/3/5 104/3/5
f 107/3/5 105/3/5 101/3/5
f 107/3/5 106/3/5 105/3/5
f 108/3/5 102/3/5 106/3/5
f 108/3/5 106/3/5 107/3/5
f 109/3/6 110/3/6 111/3/6
f 111/3/6 110/3/6 112/3/6
f 109/3/6 111/3/6 113/3/6
f 112/3/6 110/3/6 114/3/6
f 109/3/6 113/3/6 115/3/6
f 113/3/6 114/3/6 115/3/6
f 114/3/6 110/3/6 116/3/6
f 115/3/6 114/3/6 116/3/6
f 117/4/6 118/4/6 119/4/6
f 119/4/6 118/4/6 120/4/6
f 117/4/6 119/4/6 121/4/6
f 120/4/6 118/4/6 122/4/6
f 117/4/6 121/4/6 123/4/6
f 121/4/6 122/4/6 123/4/6
f 122/4/6 118/4/6 124/4/6
f 123/4/6 122/4/6 124/4/6
f 125/5/6 126/5/6 127/5/6
f 127/5/6 126/5/6 128/5/6
f 125/5/6 127/5/6 129/5/6
f 128/5/6 126/5/6 130/5/6
f 125/5/6 129/5/6 131/5/6
f 129/5/6 130/5/6 131/5/6
f 130/5/6 126/5/6 132/5/6
f 131/5/6 130/5/6 132/5/6
f 133/6/6 134/6/6 135/6/6
f 135/6/6 134/6/6 136/6/6
f 133/6/6 135/6/6 137/6/6
f 136/6/6 134/6/6 138/6/6
f 133/6/6 137/6/6 139/6/6
f 137/6/6 138/6/6 139/6/6
f 138/6/6 134/6/6 140/6/6
f 139/6/6 138/6/6 140/6/6
f 141/2/6 142/2/6 143/2/6
f 143/2/6 142/2/6 144/2/6
