# MagicaVoxel @ Ephtracy

# material
mtllib BrokenMinecart.mtl
usemtl palette

# normals
vn -1 0 0
vn 1 0 0
vn 0 0 1
vn 0 0 -1
vn 0 -1 0
vn 0 1 0

# texcoords
vt 0.396484 0.5
vt 0.974609 0.5
vt 0.994141 0.5

# verts
v -5.5 1 5
v -5.5 1 4
v -5.5 2 5
v -5.5 2 4
v -5.5 9 -3
v -5.5 9 -4
v -5.5 10 -2
v -5.5 10 -3
v -5.5 11 -2
v -5.5 11 -4
v -4.5 1 -2
v -4.5 1 -4
v -4.5 3 -2
v -4.5 3 -4
v -4.5 9 5
v -4.5 9 4
v -4.5 9 -2
v -4.5 9 -3
v -4.5 10 6
v -4.5 10 5
v -4.5 10 -2
v -4.5 10 -3
v -4.5 11 6
v -4.5 11 4
v -3.5 0 7
v -3.5 0 -5
v -3.5 1 5
v -3.5 1 4
v -3.5 1 -2
v -3.5 1 -4
v -3.5 2 5
v -3.5 2 4
v -3.5 3 -2
v -3.5 3 -4
v -3.5 4 7
v -3.5 4 6
v -3.5 4 1
v -3.5 4 -0
v -3.5 5 7
v -3.5 5 6
v -3.5 5 4
v -3.5 5 1
v -3.5 5 -0
v -3.5 6 4
v -3.5 6 2
v -3.5 6 -0
v -3.5 6 -2
v -3.5 7 6
v -3.5 7 4
v -3.5 7 -0
v -3.5 7 -2
v -3.5 8 4
v -3.5 8 2
v -3.5 9 5
v -3.5 9 4
v -3.5 9 -2
v -3.5 9 -4
v -3.5 10 6
v -3.5 10 5
v -3.5 11 6
v -3.5 11 4
v -3.5 11 -2
v -3.5 11 -4
v -3.5 12 7
v -3.5 12 -5
v -2.5 4 7
v -2.5 4 6
v -2.5 4 1
v -2.5 4 -0
v -2.5 5 7
v -2.5 5 6
v -2.5 5 4
v -2.5 5 1
v -2.5 5 -0
v -2.5 6 4
v -2.5 6 2
v -2.5 7 6
v -2.5 7 4
v -2.5 8 4
v -2.5 8 2
v 1.5 5 -4
v 1.5 5 -5
v 1.5 7 7
v 1.5 7 6
v 1.5 7 -4
v 1.5 7 -5
v 1.5 10 7
v 1.5 10 6
v 2.5 8 -4
v 2.5 8 -5
v 2.5 10 -4
v 2.5 10 -5
v 4.5 2 -5
v 4.5 2 -6
v 4.5 3 -6
v 4.5 3 -7
v 4.5 4 -5
v 4.5 4 -6
v 4.5 8 -5
v 4.5 8 -6
v 4.5 9 -5
v 4.5 9 -7
v -2.5 5 2
v -2.5 5 -2
v -2.5 6 -0
v -2.5 6 -2
v -2.5 7 -0
v -2.5 7 -2
v -2.5 9 2
v -2.5 9 -2
v -2.5 11 1
v -2.5 11 -1
v -2.5 12 1
v -2.5 12 -1
v -1.5 5 4
v -1.5 5 2
v -1.5 8 4
v -1.5 8 2
v -1.5 9 -0
v -1.5 9 -2
v -1.5 11 4
v -1.5 11 1
v -1.5 11 -0
v -1.5 11 -1
v -1.5 11 -2
v -1.5 12 4
v -1.5 12 1
v -0.5 5 -3
v -0.5 5 -4
v -0.5 5 -5
v -0.5 7 7
v -0.5 7 6
v -0.5 7 4
v -0.5 7 -3
v -0.5 7 -4
v -0.5 7 -5
v -0.5 8 4
v -0.5 8 3
v -0.5 8 2
v -0.5 8 -2
v -0.5 8 -4
v -0.5 8 -5
v -0.5 9 2
v -0.5 9 -0
v -0.5 10 7
v -0.5 10 6
v -0.5 10 4
v -0.5 10 -3
v -0.5 10 -4
v -0.5 10 -5
v -0.5 11 3
v -0.5 11 -0
v -0.5 11 -2
v -0.5 11 -3
v 0.5 1 6
v 0.5 1 -4
v 0.5 5 4
v 0.5 5 -2
v 0.5 5 -3
v 0.5 5 -4
v 0.5 7 6
v 0.5 7 4
v 0.5 7 -3
v 0.5 7 -4
v 0.5 8 4
v 0.5 8 3
v 0.5 8 -2
v 0.5 8 -4
v 0.5 10 6
v 0.5 10 4
v 0.5 10 -3
v 0.5 10 -5
v 0.5 11 6
v 0.5 11 5
v 0.5 11 4
v 0.5 11 3
v 0.5 11 -3
v 0.5 12 5
v 0.5 12 4
v 0.5 12 -3
v 0.5 12 -5
v 2.5 7 7
v 2.5 7 6
v 2.5 10 7
v 2.5 10 6
v 2.5 11 -2
v 2.5 11 -3
v 2.5 12 -2
v 2.5 12 -3
v 3.5 0 7
v 3.5 0 -5
v 3.5 1 6
v 3.5 1 -4
v 3.5 2 -4
v 3.5 2 -5
v 3.5 4 -4
v 3.5 4 -5
v 3.5 7 7
v 3.5 7 6
v 3.5 10 7
v 3.5 10 6
v 3.5 10 -4
v 3.5 10 -5
v 3.5 11 6
v 3.5 11 5
v 3.5 11 -1
v 3.5 11 -2
v 3.5 12 7
v 3.5 12 5
v 3.5 12 -1
v 3.5 12 -2
v 4.5 2 -4
v 4.5 2 -5
v 4.5 3 -4
v 4.5 3 -5
v 5.5 2 -5
v 5.5 2 -6
v 5.5 3 -4
v 5.5 3 -5
v 5.5 3 -6
v 5.5 3 -7
v 5.5 4 -4
v 5.5 4 -6
v 5.5 8 -5
v 5.5 8 -6
v 5.5 9 -5
v 5.5 9 -7
v -3.5 0 7
v -3.5 4 7
v -3.5 5 7
v -3.5 12 7
v -2.5 1 7
v -2.5 4 7
v -2.5 5 7
v -2.5 11 7
v -0.5 1 7
v -0.5 7 7
v -0.5 10 7
v -0.5 11 7
v 0.5 1 7
v 0.5 7 7
v 0.5 10 7
v 0.5 11 7
v 1.5 1 7
v 1.5 7 7
v 1.5 10 7
v 1.5 11 7
v 2.5 1 7
v 2.5 7 7
v 2.5 10 7
v 2.5 11 7
v 3.5 0 7
v 3.5 7 7
v 3.5 10 7
v 3.5 12 7
v -4.5 10 6
v -4.5 11 6
v -3.5 4 6
v -3.5 5 6
v -3.5 10 6
v -3.5 11 6
v -2.5 4 6
v -2.5 5 6
v -5.5 1 5
v -5.5 2 5
v -4.5 9 5
v -4.5 10 5
v -3.5 1 5
v -3.5 2 5
v -3.5 9 5
v -3.5 10 5
v -3.5 5 4
v -3.5 6 4
v -2.5 5 4
v -2.5 6 4
v -0.5 8 4
v -0.5 10 4
v 0.5 8 4
v 0.5 10 4
v -3.5 6 2
v -3.5 8 2
v -2.5 6 2
v -2.5 8 2
v -3.5 4 -0
v -3.5 5 -0
v -2.5 4 -0
v -2.5 5 -0
v -2.5 11 -1
v -2.5 12 -1
v -1.5 11 -1
v -0.5 11 -1
v -0.5 12 -1
v 0.5 11 -1
v 0.5 12 -1
v 1.5 11 -1
v 1.5 12 -1
v 2.5 11 -1
v 2.5 12 -1
v 3.5 11 -1
v 3.5 12 -1
v -5.5 10 -2
v -5.5 11 -2
v -4.5 1 -2
v -4.5 3 -2
v -4.5 9 -2
v -4.5 10 -2
v -3.5 1 -2
v -3.5 3 -2
v -3.5 6 -2
v -3.5 7 -2
v -3.5 9 -2
v -3.5 11 -2
v -2.5 5 -2
v -2.5 6 -2
v -2.5 7 -2
v -2.5 9 -2
v -1.5 9 -2
v -1.5 11 -2
v -0.5 8 -2
v -0.5 11 -2
v 0.5 5 -2
v 0.5 8 -2
v -5.5 9 -3
v -5.5 10 -3
v -4.5 9 -3
v -4.5 10 -3
v -0.5 10 -3
v -0.5 11 -3
v 0.5 10 -3
v 0.5 11 -3
v 0.5 1 -4
v 0.5 5 -4
v 0.5 7 -4
v 0.5 8 -4
v 1.5 1 -4
v 1.5 5 -4
v 1.5 7 -4
v 1.5 8 -4
v 2.5 1 -4
v 2.5 8 -4
v 2.5 10 -4
v 3.5 1 -4
v 3.5 2 -4
v 3.5 4 -4
v 3.5 10 -4
v 4.5 2 -4
v 4.5 3 -4
v 5.5 3 -4
v 5.5 4 -4
v 4.5 2 -5
v 4.5 3 -5
v 4.5 8 -5
v 4.5 9 -5
v 5.5 2 -5
v 5.5 3 -5
v 5.5 8 -5
v 5.5 9 -5
v 4.5 4 -6
v 4.5 8 -6
v 5.5 4 -6
v 5.5 8 -6
v -3.5 5 6
v -3.5 7 6
v -2.5 5 6
v -2.5 7 6
v 0.5 1 6
v 0.5 7 6
v 0.5 10 6
v 0.5 11 6
v 1.5 1 6
v 1.5 7 6
v 1.5 10 6
v 1.5 11 6
v 2.5 1 6
v 2.5 7 6
v 2.5 10 6
v 2.5 11 6
v 3.5 1 6
v 3.5 7 6
v 3.5 10 6
v 3.5 11 6
v 0.5 11 5
v 0.5 12 5
v 1.5 11 5
v 1.5 12 5
v 2.5 11 5
v 2.5 12 5
v 3.5 11 5
v 3.5 12 5
v -5.5 1 4
v -5.5 2 4
v -4.5 9 4
v -4.5 11 4
v -3.5 1 4
v -3.5 2 4
v -3.5 7 4
v -3.5 8 4
v -3.5 9 4
v -3.5 11 4
v -2.5 7 4
v -2.5 8 4
v -1.5 5 4
v -1.5 8 4
v -1.5 11 4
v -1.5 12 4
v -0.5 7 4
v -0.5 8 4
v -0.5 11 4
v -0.5 12 4
v 0.5 5 4
v 0.5 7 4
v 0.5 11 4
v 0.5 12 4
v -0.5 8 3
v -0.5 11 3
v 0.5 8 3
v 0.5 11 3
v -2.5 5 2
v -2.5 9 2
v -1.5 5 2
v -1.5 8 2
v -0.5 8 2
v -0.5 9 2
v -3.5 4 1
v -3.5 5 1
v -2.5 4 1
v -2.5 5 1
v -2.5 11 1
v -2.5 12 1
v -1.5 11 1
v -1.5 12 1
v -3.5 6 -0
v -3.5 7 -0
v -2.5 6 -0
v -2.5 7 -0
v -1.5 9 -0
v -1.5 11 -0
v -0.5 9 -0
v -0.5 11 -0
v 2.5 11 -2
v 2.5 12 -2
v 3.5 11 -2
v 3.5 12 -2
v -0.5 5 -3
v -0.5 7 -3
v 0.5 5 -3
v 0.5 7 -3
v 0.5 11 -3
v 0.5 12 -3
v 1.5 11 -3
v 1.5 12 -3
v 2.5 11 -3
v 2.5 12 -3
v -5.5 9 -4
v -5.5 11 -4
v -4.5 1 -4
v -4.5 3 -4
v -3.5 1 -4
v -3.5 3 -4
v -3.5 9 -4
v -3.5 11 -4
v -3.5 0 -5
v -3.5 12 -5
v -2.5 1 -5
v -2.5 11 -5
v -0.5 1 -5
v -0.5 5 -5
v -0.5 7 -5
v -0.5 8 -5
v -0.5 10 -5
v -0.5 11 -5
v 0.5 1 -5
v 0.5 5 -5
v 0.5 7 -5
v 0.5 8 -5
v 0.5 10 -5
v 0.5 12 -5
v 1.5 1 -5
v 1.5 5 -5
v 1.5 7 -5
v 1.5 8 -5
v 2.5 1 -5
v 2.5 8 -5
v 2.5 10 -5
v 3.5 0 -5
v 3.5 2 -5
v 3.5 4 -5
v 3.5 10 -5
v 4.5 2 -5
v 4.5 4 -5
v 4.5 2 -6
v 4.5 3 -6
v 5.5 2 -6
v 5.5 3 -6
v 4.5 3 -7
v 4.5 9 -7
v 5.5 3 -7
v 5.5 9 -7
v -3.5 0 7
v 3.5 0 7
v -2.5 0 6
v -0.5 0 6
v 0.5 0 6
v 1.5 0 6
v 2.5 0 6
v -2.5 0 -4
v -0.5 0 -4
v 0.5 0 -4
v 1.5 0 -4
v 2.5 0 -4
v -3.5 0 -5
v 3.5 0 -5
v -5.5 1 5
v -3.5 1 5
v -5.5 1 4
v -3.5 1 4
v -4.5 1 -2
v -3.5 1 -2
v -4.5 1 -4
v -3.5 1 -4
v 3.5 2 -4
v 4.5 2 -4
v 3.5 2 -5
v 4.5 2 -5
v 5.5 2 -5
v 4.5 2 -6
v 5.5 2 -6
v 4.5 3 -4
v 5.5 3 -4
v 4.5 3 -5
v 5.5 3 -5
v 4.5 3 -6
v 5.5 3 -6
v 4.5 3 -7
v 5.5 3 -7
v -3.5 5 7
v -2.5 5 7
v -3.5 5 6
v -2.5 5 6
v -3.5 5 1
v -2.5 5 1
v -3.5 5 -0
v -2.5 5 -0
v -3.5 7 6
v -2.5 7 6
v -3.5 7 4
v -2.5 7 4
v -3.5 7 -0
v -2.5 7 -0
v -3.5 7 -2
v -2.5 7 -2
v -0.5 7 -3
v 0.5 7 -3
v -0.5 7 -4
v 0.5 7 -4
v 1.5 7 -4
v -0.5 7 -5
v 0.5 7 -5
v 1.5 7 -5
v -3.5 8 4
v -2.5 8 4
v -1.5 8 4
v -0.5 8 4
v 0.5 8 4
v -0.5 8 3
v 0.5 8 3
v -3.5 8 2
v -2.5 8 2
v -1.5 8 2
v -0.5 8 2
v 4.5 8 -5
v 5.5 8 -5
v 4.5 8 -6
v 5.5 8 -6
v -4.5 9 5
v -3.5 9 5
v -4.5 9 4
v -3.5 9 4
v -2.5 9 2
v -0.5 9 2
v -1.5 9 -0
v -0.5 9 -0
v -4.5 9 -2
v -3.5 9 -2
v -2.5 9 -2
v -1.5 9 -2
v -5.5 9 -3
v -4.5 9 -3
v -5.5 9 -4
v -3.5 9 -4
v -0.5 10 7
v 0.5 10 7
v 1.5 10 7
v 2.5 10 7
v 3.5 10 7
v -4.5 10 6
v -3.5 10 6
v -0.5 10 6
v 0.5 10 6
v 1.5 10 6
v 2.5 10 6
v 3.5 10 6
v -4.5 10 5
v -3.5 10 5
v -0.5 10 4
v 0.5 10 4
v -5.5 10 -2
v -4.5 10 -2
v -5.5 10 -3
v -4.5 10 -3
v -0.5 10 -3
v 0.5 10 -3
v -0.5 10 -4
v -0.5 10 -5
v 0.5 10 -5
v 0.5 11 6
v 1.5 11 6
v 2.5 11 6
v 3.5 11 6
v 0.5 11 5
v 1.5 11 5
v 2.5 11 5
v 3.5 11 5
v -1.5 11 -1
v -0.5 11 -1
v 0.5 11 -1
v 1.5 11 -1
v 2.5 11 -1
v 3.5 11 -1
v -1.5 11 -2
v -0.5 11 -2
v 2.5 11 -2
v 3.5 11 -2
v -0.5 11 -3
v 0.5 11 -3
v 1.5 11 -3
v 2.5 11 -3
v 0.5 1 6
v 1.5 1 6
v 2.5 1 6
v 3.5 1 6
v 0.5 1 -4
v 1.5 1 -4
v 2.5 1 -4
v 3.5 1 -4
v -5.5 2 5
v -3.5 2 5
v -5.5 2 4
v -3.5 2 4
v -4.5 3 -2
v -3.5 3 -2
v -4.5 3 -4
v -3.5 3 -4
v -3.5 4 7
v -2.5 4 7
v -3.5 4 6
v -2.5 4 6
v -3.5 4 1
v -2.5 4 1
v -3.5 4 -0
v -2.5 4 -0
v 3.5 4 -4
v 5.5 4 -4
v 3.5 4 -5
v 4.5 4 -5
v 4.5 4 -6
v 5.5 4 -6
v -3.5 5 6
v -2.5 5 6
v -3.5 5 4
v -2.5 5 4
v -1.5 5 4
v 0.5 5 4
v -2.5 5 2
v -1.5 5 2
v -2.5 5 -2
v 0.5 5 -2
v -0.5 5 -3
v 0.5 5 -3
v -0.5 5 -4
v 0.5 5 -4
v 1.5 5 -4
v -0.5 5 -5
v 0.5 5 -5
v 1.5 5 -5
v -3.5 6 4
v -2.5 6 4
v -3.5 6 2
v -2.5 6 2
v -3.5 6 -0
v -2.5 6 -0
v -3.5 6 -2
v -2.5 6 -2
v -0.5 7 7
v 0.5 7 7
v 1.5 7 7
v 2.5 7 7
v 3.5 7 7
v -0.5 7 6
v 0.5 7 6
v 1.5 7 6
v 2.5 7 6
v 3.5 7 6
v -0.5 7 4
v 0.5 7 4
v -0.5 8 -2
v 0.5 8 -2
v -0.5 8 -4
v 0.5 8 -4
v 1.5 8 -4
v 2.5 8 -4
v -0.5 8 -5
v 0.5 8 -5
v 1.5 8 -5
v 2.5 8 -5
v 4.5 9 -5
v 5.5 9 -5
v 4.5 9 -7
v 5.5 9 -7
v 2.5 10 -4
v 3.5 10 -4
v 2.5 10 -5
v 3.5 10 -5
v -4.5 11 6
v -3.5 11 6
v -4.5 11 4
v -3.5 11 4
v -1.5 11 4
v -0.5 11 4
v 0.5 11 4
v -0.5 11 3
v 0.5 11 3
v -2.5 11 1
v -1.5 11 1
v -1.5 11 -0
v -0.5 11 -0
v -2.5 11 -1
v -1.5 11 -1
v -5.5 11 -2
v -3.5 11 -2
v -5.5 11 -4
v -3.5 11 -4
v -3.5 12 7
v 3.5 12 7
v -2.5 12 6
v -0.5 12 6
v 0.5 12 6
v 1.5 12 6
v 2.5 12 6
v 0.5 12 5
v 1.5 12 5
v 2.5 12 5
v 3.5 12 5
v -1.5 12 4
v -0.5 12 4
v 0.5 12 4
v -2.5 12 1
v -1.5 12 1
v -2.5 12 -1
v -0.5 12 -1
v 0.5 12 -1
v 1.5 12 -1
v 2.5 12 -1
v 3.5 12 -1
v 2.5 12 -2
v 3.5 12 -2
v 0.5 12 -3
v 1.5 12 -3
v 2.5 12 -3
v -2.5 12 -4
v -0.5 12 -4
v -3.5 12 -5
v 0.5 12 -5

# faces
f 3/3/1 2/3/1 1/3/1
f 4/3/1 2/3/1 3/3/1
f 8/3/1 6/3/1 5/3/1
f 9/3/1 8/3/1 7/3/1
f 10/3/1 6/3/1 8/3/1
f 10/3/1 8/3/1 9/3/1
f 13/3/1 12/3/1 11/3/1
f 14/3/1 12/3/1 13/3/1
f 20/3/1 16/3/1 15/3/1
f 21/3/1 18/3/1 17/3/1
f 22/3/1 18/3/1 21/3/1
f 23/3/1 20/3/1 19/3/1
f 24/3/1 16/3/1 20/3/1
f 24/3/1 20/3/1 23/3/1
f 27/2/1 26/2/1 25/2/1
f 28/2/1 26/2/1 27/2/1
f 29/2/1 26/2/1 28/2/1
f 30/2/1 26/2/1 29/2/1
f 31/2/1 27/2/1 25/2/1
f 32/2/1 29/2/1 28/2/1
f 33/2/1 29/2/1 32/2/1
f 33/2/1 32/2/1 31/2/1
f 34/2/1 26/2/1 30/2/1
f 35/2/1 33/2/1 31/2/1
f 35/2/1 34/2/1 33/2/1
f 35/2/1 31/2/1 25/2/1
f 36/2/1 34/2/1 35/2/1
f 37/2/1 34/2/1 36/2/1
f 38/2/1 34/2/1 37/2/1
f 40/2/1 37/2/1 36/2/1
f 41/2/1 37/2/1 40/2/1
f 42/2/1 37/2/1 41/2/1
f 43/2/1 34/2/1 38/2/1
f 44/2/1 42/2/1 41/2/1
f 44/2/1 43/2/1 42/2/1
f 45/2/1 43/2/1 44/2/1
f 46/2/1 34/2/1 43/2/1
f 46/2/1 43/2/1 45/2/1
f 47/2/1 34/2/1 46/2/1
f 48/2/1 40/2/1 39/2/1
f 50/2/1 46/2/1 45/2/1
f 51/2/1 34/2/1 47/2/1
f 52/2/1 49/2/1 48/2/1
f 53/2/1 50/2/1 45/2/1
f 53/2/1 51/2/1 50/2/1
f 54/2/1 52/2/1 48/2/1
f 54/2/1 53/2/1 52/2/1
f 55/2/1 53/2/1 54/2/1
f 56/2/1 51/2/1 53/2/1
f 56/2/1 53/2/1 55/2/1
f 56/2/1 34/2/1 51/2/1
f 57/2/1 26/2/1 34/2/1
f 57/2/1 34/2/1 56/2/1
f 58/2/1 54/2/1 48/2/1
f 58/2/1 48/2/1 39/2/1
f 59/2/1 54/2/1 58/2/1
f 60/2/1 58/2/1 39/2/1
f 61/2/1 56/2/1 55/2/1
f 62/2/1 56/2/1 61/2/1
f 63/2/1 26/2/1 57/2/1
f 64/2/1 60/2/1 39/2/1
f 64/2/1 63/2/1 62/2/1
f 64/2/1 62/2/1 61/2/1
f 64/2/1 61/2/1 60/2/1
f 65/2/1 26/2/1 63/2/1
f 65/2/1 63/2/1 64/2/1
f 70/1/1 67/1/1 66/1/1
f 71/1/1 67/1/1 70/1/1
f 73/2/1 69/2/1 68/2/1
f 74/2/1 69/2/1 73/2/1
f 75/2/1 72/2/1 71/2/1
f 77/2/1 75/2/1 71/2/1
f 77/2/1 76/2/1 75/2/1
f 78/2/1 76/2/1 77/2/1
f 79/2/1 76/2/1 78/2/1
f 80/2/1 76/2/1 79/2/1
f 85/3/1 82/3/1 81/3/1
f 86/3/1 82/3/1 85/3/1
f 87/3/1 84/3/1 83/3/1
f 88/3/1 84/3/1 87/3/1
f 91/2/1 90/2/1 89/2/1
f 92/2/1 90/2/1 91/2/1
f 95/2/1 94/2/1 93/2/1
f 97/2/1 95/2/1 93/2/1
f 97/2/1 96/2/1 95/2/1
f 98/2/1 96/2/1 97/2/1
f 100/2/1 96/2/1 98/2/1
f 101/2/1 100/2/1 99/2/1
f 102/2/1 96/2/1 100/2/1
f 102/2/1 100/2/1 101/2/1
f 103/2/2 104/2/2 105/2/2
f 105/2/2 104/2/2 106/2/2
f 103/2/2 105/2/2 107/2/2
f 103/2/2 107/2/2 109/2/2
f 107/2/2 108/2/2 109/2/2
f 109/2/2 108/2/2 110/2/2
f 111/2/2 112/2/2 113/2/2
f 113/2/2 112/2/2 114/2/2
f 115/2/2 116/2/2 117/2/2
f 117/2/2 116/2/2 118/2/2
f 119/2/2 120/2/2 123/2/2
f 123/2/2 120/2/2 124/2/2
f 124/2/2 120/2/2 125/2/2
f 121/1/2 122/1/2 126/1/2
f 126/1/2 122/1/2 127/1/2
f 128/2/2 129/2/2 134/2/2
f 129/1/2 130/1/2 135/1/2
f 134/2/2 129/2/2 135/2/2
f 135/1/2 130/1/2 136/1/2
f 132/2/2 133/2/2 137/2/2
f 138/2/2 139/2/2 143/2/2
f 131/1/2 132/1/2 145/1/2
f 132/2/2 137/2/2 146/2/2
f 145/1/2 132/1/2 146/1/2
f 146/2/2 137/2/2 147/2/2
f 140/2/2 141/2/2 148/2/2
f 141/1/2 142/1/2 149/1/2
f 148/2/2 141/2/2 149/2/2
f 149/1/2 142/1/2 150/1/2
f 143/2/2 144/2/2 151/2/2
f 138/2/2 143/2/2 151/2/2
f 151/2/2 144/2/2 152/2/2
f 140/2/2 148/2/2 153/2/2
f 153/2/2 148/2/2 154/2/2
f 155/2/2 156/2/2 157/2/2
f 157/2/2 156/2/2 158/2/2
f 158/2/2 156/2/2 159/2/2
f 159/2/2 156/2/2 160/2/2
f 155/2/2 157/2/2 161/2/2
f 161/2/2 157/2/2 162/2/2
f 158/2/2 159/2/2 163/2/2
f 163/2/2 164/2/2 167/2/2
f 158/2/2 163/2/2 167/2/2
f 167/2/2 164/2/2 168/2/2
f 165/2/2 166/2/2 170/2/2
f 169/2/2 170/2/2 173/2/2
f 173/2/2 170/2/2 174/2/2
f 170/2/2 166/2/2 175/2/2
f 174/2/2 170/2/2 175/2/2
f 175/2/2 166/2/2 176/2/2
f 171/2/2 172/2/2 177/2/2
f 174/2/2 175/2/2 178/2/2
f 178/2/2 175/2/2 179/2/2
f 177/2/2 172/2/2 180/2/2
f 180/2/2 172/2/2 181/2/2
f 182/3/2 183/3/2 184/3/2
f 184/3/2 183/3/2 185/3/2
f 186/3/2 187/3/2 188/3/2
f 188/3/2 187/3/2 189/3/2
f 190/2/2 191/2/2 192/2/2
f 192/2/2 191/2/2 193/2/2
f 193/2/2 191/2/2 194/2/2
f 194/2/2 191/2/2 195/2/2
f 190/2/2 192/2/2 198/2/2
f 198/2/2 192/2/2 199/2/2
f 196/2/2 197/2/2 202/2/2
f 202/2/2 197/2/2 203/2/2
f 200/2/2 201/2/2 204/2/2
f 200/2/2 204/2/2 208/2/2
f 204/2/2 205/2/2 208/2/2
f 208/2/2 205/2/2 209/2/2
f 206/2/2 207/2/2 210/2/2
f 210/2/2 207/2/2 211/2/2
f 212/2/2 213/2/2 214/2/2
f 214/2/2 213/2/2 215/2/2
f 216/2/2 217/2/2 219/2/2
f 219/2/2 217/2/2 220/2/2
f 218/2/2 219/2/2 222/2/2
f 220/2/2 221/2/2 222/2/2
f 219/2/2 220/2/2 222/2/2
f 222/2/2 221/2/2 223/2/2
f 223/2/2 221/2/2 225/2/2
f 224/2/2 225/2/2 226/2/2
f 225/2/2 221/2/2 227/2/2
f 226/2/2 225/2/2 227/2/2
f 232/2/3 229/2/3 228/2/3
f 233/2/3 229/2/3 232/2/3
f 234/2/3 231/2/3 230/2/3
f 235/2/3 231/2/3 234/2/3
f 236/1/3 233/1/3 232/1/3
f 236/2/3 232/2/3 228/2/3
f 236/1/3 235/1/3 234/1/3
f 236/1/3 234/1/3 233/1/3
f 237/1/3 235/1/3 236/1/3
f 238/1/3 235/1/3 237/1/3
f 239/2/3 231/2/3 235/2/3
f 239/1/3 235/1/3 238/1/3
f 240/2/3 236/2/3 228/2/3
f 240/2/3 237/2/3 236/2/3
f 241/2/3 237/2/3 240/2/3
f 242/2/3 239/2/3 238/2/3
f 243/2/3 231/2/3 239/2/3
f 243/2/3 239/2/3 242/2/3
f 244/1/3 241/1/3 240/1/3
f 244/2/3 240/2/3 228/2/3
f 245/1/3 241/1/3 244/1/3
f 246/1/3 243/1/3 242/1/3
f 247/2/3 231/2/3 243/2/3
f 247/1/3 243/1/3 246/1/3
f 248/3/3 246/3/3 245/3/3
f 248/3/3 245/3/3 244/3/3
f 248/3/3 247/3/3 246/3/3
f 248/2/3 244/2/3 228/2/3
f 249/3/3 247/3/3 248/3/3
f 250/3/3 247/3/3 249/3/3
f 251/2/3 231/2/3 247/2/3
f 251/3/3 247/3/3 250/3/3
f 252/2/3 248/2/3 228/2/3
f 252/2/3 249/2/3 248/2/3
f 253/2/3 249/2/3 252/2/3
f 254/2/3 251/2/3 250/2/3
f 255/2/3 231/2/3 251/2/3
f 255/2/3 251/2/3 254/2/3
f 260/3/3 257/3/3 256/3/3
f 261/3/3 257/3/3 260/3/3
f 262/2/3 259/2/3 258/2/3
f 263/2/3 259/2/3 262/2/3
f 268/3/3 265/3/3 264/3/3
f 269/3/3 265/3/3 268/3/3
f 270/3/3 267/3/3 266/3/3
f 271/3/3 267/3/3 270/3/3
f 274/2/3 273/2/3 272/2/3
f 275/2/3 273/2/3 274/2/3
f 278/2/3 277/2/3 276/2/3
f 279/2/3 277/2/3 278/2/3
f 282/2/3 281/2/3 280/2/3
f 283/2/3 281/2/3 282/2/3
f 286/2/3 285/2/3 284/2/3
f 287/2/3 285/2/3 286/2/3
f 290/1/3 289/1/3 288/1/3
f 291/1/3 289/1/3 290/1/3
f 292/1/3 289/1/3 291/1/3
f 293/2/3 292/2/3 291/2/3
f 294/2/3 292/2/3 293/2/3
f 295/1/3 294/1/3 293/1/3
f 296/1/3 294/1/3 295/1/3
f 297/3/3 296/3/3 295/3/3
f 298/3/3 296/3/3 297/3/3
f 299/2/3 298/2/3 297/2/3
f 300/2/3 298/2/3 299/2/3
f 306/3/3 302/3/3 301/3/3
f 307/3/3 304/3/3 303/3/3
f 308/3/3 304/3/3 307/3/3
f 311/3/3 306/3/3 305/3/3
f 312/3/3 302/3/3 306/3/3
f 312/3/3 306/3/3 311/3/3
f 314/2/3 310/2/3 309/2/3
f 315/2/3 310/2/3 314/2/3
f 317/2/3 314/2/3 313/2/3
f 317/2/3 316/2/3 315/2/3
f 317/2/3 315/2/3 314/2/3
f 319/2/3 317/2/3 313/2/3
f 319/2/3 318/2/3 317/2/3
f 320/2/3 318/2/3 319/2/3
f 321/2/3 319/2/3 313/2/3
f 322/2/3 319/2/3 321/2/3
f 325/3/3 324/3/3 323/3/3
f 326/3/3 324/3/3 325/3/3
f 329/2/3 328/2/3 327/2/3
f 330/2/3 328/2/3 329/2/3
f 335/1/3 332/1/3 331/1/3
f 336/1/3 332/1/3 335/1/3
f 337/1/3 334/1/3 333/1/3
f 338/1/3 334/1/3 337/1/3
f 339/3/3 336/3/3 335/3/3
f 339/3/3 337/3/3 336/3/3
f 339/3/3 338/3/3 337/3/3
f 340/3/3 338/3/3 339/3/3
f 342/2/3 340/2/3 339/2/3
f 342/2/3 341/2/3 340/2/3
f 343/2/3 341/2/3 342/2/3
f 344/2/3 341/2/3 343/2/3
f 345/2/3 341/2/3 344/2/3
f 346/2/3 344/2/3 343/2/3
f 347/2/3 344/2/3 346/2/3
f 348/2/3 344/2/3 347/2/3
f 349/2/3 344/2/3 348/2/3
f 354/2/3 351/2/3 350/2/3
f 355/2/3 351/2/3 354/2/3
f 356/2/3 353/2/3 352/2/3
f 357/2/3 353/2/3 356/2/3
f 360/2/3 359/2/3 358/2/3
f 361/2/3 359/2/3 360/2/3
f 362/2/4 363/2/4 364/2/4
f 364/2/4 363/2/4 365/2/4
f 366/1/4 367/1/4 370/1/4
f 370/1/4 367/1/4 371/1/4
f 368/1/4 369/1/4 372/1/4
f 372/1/4 369/1/4 373/1/4
f 370/3/4 371/3/4 374/3/4
f 371/3/4 372/3/4 374/3/4
f 372/3/4 373/3/4 374/3/4
f 374/3/4 373/3/4 375/3/4
f 375/3/4 373/3/4 376/3/4
f 376/3/4 373/3/4 377/3/4
f 374/2/4 375/2/4 378/2/4
f 378/2/4 375/2/4 379/2/4
f 376/2/4 377/2/4 380/2/4
f 380/2/4 377/2/4 381/2/4
f 382/1/4 383/1/4 384/1/4
f 384/1/4 383/1/4 385/1/4
f 384/3/4 385/3/4 386/3/4
f 386/3/4 385/3/4 387/3/4
f 386/2/4 387/2/4 388/2/4
f 388/2/4 387/2/4 389/2/4
f 390/3/4 391/3/4 394/3/4
f 394/3/4 391/3/4 395/3/4
f 392/3/4 393/3/4 398/3/4
f 398/3/4 393/3/4 399/3/4
f 396/2/4 397/2/4 400/2/4
f 400/2/4 397/2/4 401/2/4
f 402/2/4 403/2/4 406/2/4
f 406/2/4 403/2/4 407/2/4
f 404/1/4 405/1/4 408/1/4
f 408/1/4 405/1/4 409/1/4
f 402/2/4 406/2/4 410/2/4
f 410/2/4 406/2/4 411/2/4
f 408/2/4 409/2/4 412/2/4
f 412/2/4 409/2/4 413/2/4
f 414/2/4 415/2/4 416/2/4
f 416/2/4 415/2/4 417/2/4
f 418/2/4 419/2/4 420/2/4
f 420/2/4 419/2/4 421/2/4
f 421/2/4 419/2/4 422/2/4
f 422/2/4 419/2/4 423/2/4
f 424/2/4 425/2/4 426/2/4
f 426/2/4 425/2/4 427/2/4
f 428/1/4 429/1/4 430/1/4
f 430/1/4 429/1/4 431/1/4
f 432/2/4 433/2/4 434/2/4
f 434/2/4 433/2/4 435/2/4
f 436/2/4 437/2/4 438/2/4
f 438/2/4 437/2/4 439/2/4
f 440/2/4 441/2/4 442/2/4
f 442/2/4 441/2/4 443/2/4
f 444/2/4 445/2/4 446/2/4
f 446/2/4 445/2/4 447/2/4
f 448/1/4 449/1/4 450/1/4
f 450/1/4 449/1/4 451/1/4
f 450/3/4 451/3/4 452/3/4
f 452/3/4 451/3/4 453/3/4
f 456/3/4 457/3/4 458/3/4
f 458/3/4 457/3/4 459/3/4
f 454/3/4 455/3/4 460/3/4
f 460/3/4 455/3/4 461/3/4
f 462/2/4 463/2/4 464/2/4
f 464/2/4 463/2/4 465/2/4
f 462/2/4 464/2/4 466/2/4
f 464/1/4 465/1/4 466/1/4
f 466/1/4 465/1/4 467/1/4
f 467/1/4 465/1/4 468/1/4
f 468/1/4 465/1/4 469/1/4
f 469/1/4 465/1/4 470/1/4
f 465/2/4 463/2/4 471/2/4
f 470/1/4 465/1/4 471/1/4
f 462/2/4 466/2/4 472/2/4
f 466/2/4 467/2/4 472/2/4
f 472/2/4 467/2/4 473/2/4
f 468/2/4 469/2/4 474/2/4
f 474/2/4 469/2/4 475/2/4
f 470/2/4 471/2/4 476/2/4
f 471/2/4 463/2/4 477/2/4
f 476/2/4 471/2/4 477/2/4
f 472/1/4 473/1/4 478/1/4
f 462/2/4 472/2/4 478/2/4
f 478/1/4 473/1/4 479/1/4
f 474/1/4 475/1/4 480/1/4
f 480/1/4 475/1/4 481/1/4
f 478/3/4 479/3/4 482/3/4
f 462/2/4 478/2/4 482/2/4
f 480/3/4 481/3/4 482/3/4
f 479/3/4 480/3/4 482/3/4
f 482/3/4 481/3/4 483/3/4
f 482/2/4 483/2/4 485/2/4
f 483/2/4 484/2/4 485/2/4
f 462/2/4 482/2/4 485/2/4
f 485/2/4 484/2/4 486/2/4
f 486/2/4 484/2/4 487/2/4
f 487/2/4 484/2/4 488/2/4
f 486/2/4 487/2/4 489/2/4
f 489/2/4 487/2/4 490/2/4
f 491/2/4 492/2/4 493/2/4
f 493/2/4 492/2/4 494/2/4
f 495/2/4 496/2/4 497/2/4
f 497/2/4 496/2/4 498/2/4
f 501/2/5 500/2/5 499/2/5
f 502/2/5 500/2/5 501/2/5
f 503/2/5 500/2/5 502/2/5
f 504/2/5 500/2/5 503/2/5
f 505/2/5 500/2/5 504/2/5
f 506/2/5 501/2/5 499/2/5
f 506/1/5 502/1/5 501/1/5
f 507/2/5 503/2/5 502/2/5
f 507/1/5 502/1/5 506/1/5
f 508/1/5 504/1/5 503/1/5
f 508/2/5 503/2/5 507/2/5
f 509/3/5 505/3/5 504/3/5
f 509/1/5 504/1/5 508/1/5
f 510/2/5 500/2/5 505/2/5
f 510/3/5 505/3/5 509/3/5
f 511/2/5 509/2/5 508/2/5
f 511/2/5 508/2/5 507/2/5
f 511/2/5 510/2/5 509/2/5
f 511/2/5 507/2/5 506/2/5
f 511/2/5 506/2/5 499/2/5
f 512/2/5 500/2/5 510/2/5
f 512/2/5 510/2/5 511/2/5
f 515/3/5 514/3/5 513/3/5
f 516/3/5 514/3/5 515/3/5
f 519/3/5 518/3/5 517/3/5
f 520/3/5 518/3/5 519/3/5
f 523/2/5 522/2/5 521/2/5
f 524/2/5 522/2/5 523/2/5
f 526/2/5 525/2/5 524/2/5
f 527/2/5 525/2/5 526/2/5
f 530/2/5 529/2/5 528/2/5
f 531/2/5 529/2/5 530/2/5
f 534/2/5 533/2/5 532/2/5
f 535/2/5 533/2/5 534/2/5
f 538/2/5 537/2/5 536/2/5
f 539/2/5 537/2/5 538/2/5
f 542/2/5 541/2/5 540/2/5
f 543/2/5 541/2/5 542/2/5
f 546/2/5 545/2/5 544/2/5
f 547/2/5 545/2/5 546/2/5
f 550/2/5 549/2/5 548/2/5
f 551/2/5 549/2/5 550/2/5
f 554/2/5 553/2/5 552/2/5
f 555/2/5 553/2/5 554/2/5
f 557/2/5 555/2/5 554/2/5
f 558/1/5 556/1/5 555/1/5
f 558/2/5 555/2/5 557/2/5
f 559/1/5 556/1/5 558/1/5
f 565/2/5 563/2/5 562/2/5
f 565/2/5 564/2/5 563/2/5
f 566/2/5 564/2/5 565/2/5
f 567/2/5 561/2/5 560/2/5
f 568/2/5 561/2/5 567/2/5
f 569/2/5 565/2/5 562/2/5
f 570/2/5 565/2/5 569/2/5
f 573/2/5 572/2/5 571/2/5
f 574/2/5 572/2/5 573/2/5
f 577/3/5 576/3/5 575/3/5
f 578/3/5 576/3/5 577/3/5
f 581/2/5 580/2/5 579/2/5
f 582/2/5 580/2/5 581/2/5
f 585/2/5 581/2/5 579/2/5
f 586/2/5 581/2/5 585/2/5
f 588/3/5 584/3/5 583/3/5
f 589/3/5 588/3/5 587/3/5
f 590/3/5 584/3/5 588/3/5
f 590/3/5 588/3/5 589/3/5
f 598/2/5 592/2/5 591/2/5
f 599/1/5 593/1/5 592/1/5
f 599/2/5 592/2/5 598/2/5
f 600/1/5 593/1/5 599/1/5
f 601/2/5 595/2/5 594/2/5
f 602/2/5 595/2/5 601/2/5
f 603/3/5 597/3/5 596/3/5
f 604/3/5 597/3/5 603/3/5
f 605/2/5 599/2/5 598/2/5
f 606/2/5 599/2/5 605/2/5
f 609/3/5 608/3/5 607/3/5
f 610/3/5 608/3/5 609/3/5
f 613/2/5 612/2/5 611/2/5
f 614/2/5 612/2/5 613/2/5
f 615/2/5 612/2/5 614/2/5
f 620/1/5 617/1/5 616/1/5
f 621/3/5 618/3/5 617/3/5
f 621/1/5 617/1/5 620/1/5
f 622/2/5 619/2/5 618/2/5
f 622/3/5 618/3/5 621/3/5
f 623/2/5 619/2/5 622/2/5
f 630/1/5 625/1/5 624/1/5
f 631/2/5 626/2/5 625/2/5
f 631/1/5 625/1/5 630/1/5
f 632/2/5 629/2/5 628/2/5
f 632/3/5 628/3/5 627/3/5
f 633/2/5 629/2/5 632/2/5
f 634/2/5 626/2/5 631/2/5
f 635/1/5 627/1/5 626/1/5
f 635/2/5 626/2/5 634/2/5
f 636/3/5 632/3/5 627/3/5
f 636/1/5 627/1/5 635/1/5
f 637/3/5 632/3/5 636/3/5
f 638/1/6 639/1/6 642/1/6
f 639/3/6 640/3/6 643/3/6
f 642/1/6 639/1/6 643/1/6
f 640/2/6 641/2/6 644/2/6
f 643/3/6 640/3/6 644/3/6
f 644/2/6 641/2/6 645/2/6
f 646/3/6 647/3/6 648/3/6
f 648/3/6 647/3/6 649/3/6
f 650/3/6 651/3/6 652/3/6
f 652/3/6 651/3/6 653/3/6
f 654/2/6 655/2/6 656/2/6
f 656/2/6 655/2/6 657/2/6
f 658/2/6 659/2/6 660/2/6
f 660/2/6 659/2/6 661/2/6
f 662/2/6 663/2/6 664/2/6
f 664/2/6 663/2/6 665/2/6
f 665/2/6 663/2/6 666/2/6
f 666/2/6 663/2/6 667/2/6
f 668/2/6 669/2/6 670/2/6
f 670/2/6 669/2/6 671/2/6
f 672/2/6 673/2/6 675/2/6
f 674/2/6 675/2/6 676/2/6
f 675/2/6 673/2/6 677/2/6
f 676/2/6 675/2/6 677/2/6
f 678/2/6 679/2/6 680/2/6
f 680/2/6 679/2/6 681/2/6
f 680/2/6 681/2/6 683/2/6
f 681/1/6 682/1/6 684/1/6
f 683/2/6 681/2/6 684/2/6
f 684/1/6 682/1/6 685/1/6
f 686/2/6 687/2/6 688/2/6
f 688/2/6 687/2/6 689/2/6
f 690/2/6 691/2/6 692/2/6
f 692/2/6 691/2/6 693/2/6
f 694/2/6 695/2/6 699/2/6
f 695/1/6 696/1/6 700/1/6
f 699/2/6 695/2/6 700/2/6
f 700/1/6 696/1/6 701/1/6
f 697/2/6 698/2/6 702/2/6
f 702/2/6 698/2/6 703/2/6
f 699/2/6 700/2/6 704/2/6
f 704/2/6 700/2/6 705/2/6
f 706/2/6 707/2/6 708/2/6
f 708/2/6 707/2/6 709/2/6
f 708/2/6 709/2/6 712/2/6
f 709/1/6 710/1/6 713/1/6
f 712/2/6 709/2/6 713/2/6
f 710/3/6 711/3/6 714/3/6
f 713/1/6 710/1/6 714/1/6
f 714/3/6 711/3/6 715/3/6
f 716/2/6 717/2/6 718/2/6
f 718/2/6 717/2/6 719/2/6
f 720/2/6 721/2/6 722/2/6
f 722/2/6 721/2/6 723/2/6
f 724/3/6 725/3/6 726/3/6
f 726/3/6 725/3/6 727/3/6
f 729/2/6 730/2/6 731/2/6
f 728/2/6 729/2/6 731/2/6
f 731/2/6 730/2/6 732/2/6
f 728/2/6 731/2/6 734/2/6
f 734/2/6 731/2/6 735/2/6
f 733/2/6 734/2/6 735/2/6
f 735/2/6 731/2/6 736/2/6
f 733/2/6 735/2/6 737/2/6
f 737/2/6 735/2/6 738/2/6
f 739/3/6 740/3/6 741/3/6
f 741/3/6 740/3/6 742/3/6
f 743/2/6 744/2/6 745/2/6
f 745/2/6 744/2/6 746/2/6
f 746/2/6 744/2/6 747/2/6
f 747/2/6 744/2/6 748/2/6
f 748/2/6 744/2/6 749/2/6
f 746/2/6 747/2/6 750/2/6
f 747/1/6 748/1/6 750/1/6
f 748/3/6 749/3/6 751/3/6
f 750/1/6 748/1/6 751/1/6
f 749/2/6 744/2/6 752/2/6
f 751/3/6 749/3/6 752/3/6
f 752/2/6 744/2/6 753/2/6
f 745/1/6 746/1/6 754/1/6
f 746/2/6 750/2/6 755/2/6
f 754/1/6 746/1/6 755/1/6
f 755/2/6 750/2/6 756/2/6
f 743/2/6 745/2/6 757/2/6
f 745/1/6 754/1/6 757/1/6
f 757/1/6 754/1/6 758/1/6
f 743/2/6 757/2/6 759/2/6
f 762/3/6 763/3/6 765/3/6
f 763/2/6 764/2/6 765/2/6
f 765/2/6 764/2/6 766/2/6
f 760/2/6 761/2/6 767/2/6
f 761/1/6 762/1/6 767/1/6
f 762/3/6 765/3/6 768/3/6
f 767/1/6 762/1/6 768/1/6
f 768/3/6 765/3/6 769/3/6
f 743/2/6 759/2/6 770/2/6
f 759/1/6 760/1/6 770/1/6
f 760/2/6 767/2/6 771/2/6
f 770/1/6 760/1/6 771/1/6
f 743/2/6 770/2/6 772/2/6
f 770/2/6 771/2/6 772/2/6
f 771/2/6 767/2/6 773/2/6
f 772/2/6 771/2/6 773/2/6
